<?xml version="1.0" encoding="utf-8" standalone="no"?>
<!DOCTYPE svg PUBLIC "-//W3C//DTD SVG 1.1//EN"
  "http://www.w3.org/Graphics/SVG/1.1/DTD/svg11.dtd">
<svg xmlns:xlink="http://www.w3.org/1999/xlink" width="720pt" height="648pt" viewBox="0 0 720 648" xmlns="http://www.w3.org/2000/svg" version="1.1">
 <metadata>
  <rdf:RDF xmlns:dc="http://purl.org/dc/elements/1.1/" xmlns:cc="http://creativecommons.org/ns#" xmlns:rdf="http://www.w3.org/1999/02/22-rdf-syntax-ns#">
   <cc:Work>
    <dc:type rdf:resource="http://purl.org/dc/dcmitype/StillImage"/>
    <dc:date>2024-11-25T09:53:50.454452</dc:date>
    <dc:format>image/svg+xml</dc:format>
    <dc:creator>
     <cc:Agent>
      <dc:title>Matplotlib v3.5.3, https://matplotlib.org/</dc:title>
     </cc:Agent>
    </dc:creator>
   </cc:Work>
  </rdf:RDF>
 </metadata>
 <defs>
  <style type="text/css">*{stroke-linejoin: round; stroke-linecap: butt}</style>
 </defs>
 <g id="figure_1">
  <g id="patch_1">
   <path d="M 0 648 
L 720 648 
L 720 0 
L 0 0 
L 0 648 
z
" style="fill: none"/>
  </g>
  <g id="axes_1">
   <g id="patch_2">
    <path d="M 72 90.954634 
L 418.853294 90.954634 
L 418.853294 12.96 
L 72 12.96 
L 72 90.954634 
z
" style="fill: none"/>
   </g>
   <g id="matplotlib.axis_1">
    <g id="xtick_1">
     <g id="line2d_1">
      <defs>
       <path id="md039a5b472" d="M 0 0 
L 0 3.5 
" style="stroke: #ffffff; stroke-width: 2"/>
      </defs>
      <g>
       <use xlink:href="#md039a5b472" x="92.403135" y="90.954634" style="fill: #ffffff; stroke: #ffffff; stroke-width: 2"/>
      </g>
     </g>
    </g>
    <g id="xtick_2">
     <g id="line2d_2">
      <g>
       <use xlink:href="#md039a5b472" x="194.418809" y="90.954634" style="fill: #ffffff; stroke: #ffffff; stroke-width: 2"/>
      </g>
     </g>
    </g>
    <g id="xtick_3">
     <g id="line2d_3">
      <g>
       <use xlink:href="#md039a5b472" x="296.434484" y="90.954634" style="fill: #ffffff; stroke: #ffffff; stroke-width: 2"/>
      </g>
     </g>
    </g>
    <g id="xtick_4">
     <g id="line2d_4">
      <g>
       <use xlink:href="#md039a5b472" x="398.450159" y="90.954634" style="fill: #ffffff; stroke: #ffffff; stroke-width: 2"/>
      </g>
     </g>
    </g>
   </g>
   <g id="matplotlib.axis_2">
    <g id="ytick_1">
     <g id="line2d_5">
      <defs>
       <path id="mcd1a149f60" d="M 0 0 
L -3.5 0 
" style="stroke: #ffffff; stroke-width: 2"/>
      </defs>
      <g>
       <use xlink:href="#mcd1a149f60" x="72" y="90.954634" style="fill: #ffffff; stroke: #ffffff; stroke-width: 2"/>
      </g>
     </g>
     <g id="text_1">
      <!-- 0.0 -->
      <g style="fill: #ffffff" transform="translate(39.555 97.033384)scale(0.16 -0.16)">
       <defs>
        <path id="DejaVuSans-30" d="M 2034 4250 
Q 1547 4250 1301 3770 
Q 1056 3291 1056 2328 
Q 1056 1369 1301 889 
Q 1547 409 2034 409 
Q 2525 409 2770 889 
Q 3016 1369 3016 2328 
Q 3016 3291 2770 3770 
Q 2525 4250 2034 4250 
z
M 2034 4750 
Q 2819 4750 3233 4129 
Q 3647 3509 3647 2328 
Q 3647 1150 3233 529 
Q 2819 -91 2034 -91 
Q 1250 -91 836 529 
Q 422 1150 422 2328 
Q 422 3509 836 4129 
Q 1250 4750 2034 4750 
z
" transform="scale(0.015625)"/>
        <path id="DejaVuSans-2e" d="M 684 794 
L 1344 794 
L 1344 0 
L 684 0 
L 684 794 
z
" transform="scale(0.015625)"/>
       </defs>
       <use xlink:href="#DejaVuSans-30"/>
       <use xlink:href="#DejaVuSans-2e" x="63.623047"/>
       <use xlink:href="#DejaVuSans-30" x="95.410156"/>
      </g>
     </g>
    </g>
    <g id="ytick_2">
     <g id="line2d_6">
      <g>
       <use xlink:href="#mcd1a149f60" x="72" y="38.958211" style="fill: #ffffff; stroke: #ffffff; stroke-width: 2"/>
      </g>
     </g>
     <g id="text_2">
      <!-- 0.1 -->
      <g style="fill: #ffffff" transform="translate(39.555 45.036961)scale(0.16 -0.16)">
       <defs>
        <path id="DejaVuSans-31" d="M 794 531 
L 1825 531 
L 1825 4091 
L 703 3866 
L 703 4441 
L 1819 4666 
L 2450 4666 
L 2450 531 
L 3481 531 
L 3481 0 
L 794 0 
L 794 531 
z
" transform="scale(0.015625)"/>
       </defs>
       <use xlink:href="#DejaVuSans-30"/>
       <use xlink:href="#DejaVuSans-2e" x="63.623047"/>
       <use xlink:href="#DejaVuSans-31" x="95.410156"/>
      </g>
     </g>
    </g>
   </g>
   <g id="LineCollection_1">
    <path d="M 92.403135 86.664955 
L 92.403135 63.702976 
" clip-path="url(#p867e014db6)" style="fill: none; stroke: #1f77b4; stroke-width: 2"/>
   </g>
   <g id="line2d_7">
    <defs>
     <path id="m4391b3e631" d="M 5 0 
L -5 -0 
" style="stroke: #1f77b4"/>
    </defs>
    <g clip-path="url(#p867e014db6)">
     <use xlink:href="#m4391b3e631" x="92.403135" y="86.664955" style="fill: #1f77b4; stroke: #1f77b4"/>
    </g>
   </g>
   <g id="line2d_8">
    <g clip-path="url(#p867e014db6)">
     <use xlink:href="#m4391b3e631" x="92.403135" y="63.702976" style="fill: #1f77b4; stroke: #1f77b4"/>
    </g>
   </g>
   <g id="LineCollection_2">
    <path d="M 194.418809 72.940606 
L 194.418809 56.404582 
" clip-path="url(#p867e014db6)" style="fill: none; stroke: #ff7f0e; stroke-width: 2"/>
   </g>
   <g id="line2d_9">
    <defs>
     <path id="mbce22d0d52" d="M 5 0 
L -5 -0 
" style="stroke: #ff7f0e"/>
    </defs>
    <g clip-path="url(#p867e014db6)">
     <use xlink:href="#mbce22d0d52" x="194.418809" y="72.940606" style="fill: #ff7f0e; stroke: #ff7f0e"/>
    </g>
   </g>
   <g id="line2d_10">
    <g clip-path="url(#p867e014db6)">
     <use xlink:href="#mbce22d0d52" x="194.418809" y="56.404582" style="fill: #ff7f0e; stroke: #ff7f0e"/>
    </g>
   </g>
   <g id="LineCollection_3">
    <path d="M 296.434484 82.563178 
L 296.434484 67.593273 
" clip-path="url(#p867e014db6)" style="fill: none; stroke: #2ca02c; stroke-width: 2"/>
   </g>
   <g id="line2d_11">
    <defs>
     <path id="mac5021e6e0" d="M 5 0 
L -5 -0 
" style="stroke: #2ca02c"/>
    </defs>
    <g clip-path="url(#p867e014db6)">
     <use xlink:href="#mac5021e6e0" x="296.434484" y="82.563178" style="fill: #2ca02c; stroke: #2ca02c"/>
    </g>
   </g>
   <g id="line2d_12">
    <g clip-path="url(#p867e014db6)">
     <use xlink:href="#mac5021e6e0" x="296.434484" y="67.593273" style="fill: #2ca02c; stroke: #2ca02c"/>
    </g>
   </g>
   <g id="LineCollection_4">
    <path d="M 398.450159 106.226975 
L 398.450159 85.63615 
" clip-path="url(#p867e014db6)" style="fill: none; stroke: #d62728; stroke-width: 2"/>
   </g>
   <g id="line2d_13">
    <defs>
     <path id="m366e60d2a4" d="M 5 0 
L -5 -0 
" style="stroke: #d62728"/>
    </defs>
    <g clip-path="url(#p867e014db6)">
     <use xlink:href="#m366e60d2a4" x="398.450159" y="106.226975" style="fill: #d62728; stroke: #d62728"/>
    </g>
   </g>
   <g id="line2d_14">
    <g clip-path="url(#p867e014db6)">
     <use xlink:href="#m366e60d2a4" x="398.450159" y="85.63615" style="fill: #d62728; stroke: #d62728"/>
    </g>
   </g>
   <g id="line2d_15">
    <defs>
     <path id="mba63fdaf48" d="M 0 5 
C 1.326016 5 2.597899 4.473168 3.535534 3.535534 
C 4.473168 2.597899 5 1.326016 5 0 
C 5 -1.326016 4.473168 -2.597899 3.535534 -3.535534 
C 2.597899 -4.473168 1.326016 -5 0 -5 
C -1.326016 -5 -2.597899 -4.473168 -3.535534 -3.535534 
C -4.473168 -2.597899 -5 -1.326016 -5 0 
C -5 1.326016 -4.473168 2.597899 -3.535534 3.535534 
C -2.597899 4.473168 -1.326016 5 0 5 
z
" style="stroke: #1f77b4"/>
    </defs>
    <g clip-path="url(#p867e014db6)">
     <use xlink:href="#mba63fdaf48" x="92.403135" y="75.183966" style="fill: #1f77b4; stroke: #1f77b4"/>
    </g>
   </g>
   <g id="line2d_16">
    <defs>
     <path id="mc442427952" d="M 0 5 
C 1.326016 5 2.597899 4.473168 3.535534 3.535534 
C 4.473168 2.597899 5 1.326016 5 0 
C 5 -1.326016 4.473168 -2.597899 3.535534 -3.535534 
C 2.597899 -4.473168 1.326016 -5 0 -5 
C -1.326016 -5 -2.597899 -4.473168 -3.535534 -3.535534 
C -4.473168 -2.597899 -5 -1.326016 -5 0 
C -5 1.326016 -4.473168 2.597899 -3.535534 3.535534 
C -2.597899 4.473168 -1.326016 5 0 5 
z
" style="stroke: #ff7f0e"/>
    </defs>
    <g clip-path="url(#p867e014db6)">
     <use xlink:href="#mc442427952" x="194.418809" y="64.672594" style="fill: #ff7f0e; stroke: #ff7f0e"/>
    </g>
   </g>
   <g id="line2d_17">
    <defs>
     <path id="mb3d3e8479a" d="M 0 5 
C 1.326016 5 2.597899 4.473168 3.535534 3.535534 
C 4.473168 2.597899 5 1.326016 5 0 
C 5 -1.326016 4.473168 -2.597899 3.535534 -3.535534 
C 2.597899 -4.473168 1.326016 -5 0 -5 
C -1.326016 -5 -2.597899 -4.473168 -3.535534 -3.535534 
C -4.473168 -2.597899 -5 -1.326016 -5 0 
C -5 1.326016 -4.473168 2.597899 -3.535534 3.535534 
C -2.597899 4.473168 -1.326016 5 0 5 
z
" style="stroke: #2ca02c"/>
    </defs>
    <g clip-path="url(#p867e014db6)">
     <use xlink:href="#mb3d3e8479a" x="296.434484" y="75.078225" style="fill: #2ca02c; stroke: #2ca02c"/>
    </g>
   </g>
   <g id="line2d_18">
    <defs>
     <path id="m2aec7a40dd" d="M 0 5 
C 1.326016 5 2.597899 4.473168 3.535534 3.535534 
C 4.473168 2.597899 5 1.326016 5 0 
C 5 -1.326016 4.473168 -2.597899 3.535534 -3.535534 
C 2.597899 -4.473168 1.326016 -5 0 -5 
C -1.326016 -5 -2.597899 -4.473168 -3.535534 -3.535534 
C -4.473168 -2.597899 -5 -1.326016 -5 0 
C -5 1.326016 -4.473168 2.597899 -3.535534 3.535534 
C -2.597899 4.473168 -1.326016 5 0 5 
z
" style="stroke: #d62728"/>
    </defs>
    <g clip-path="url(#p867e014db6)">
     <use xlink:href="#m2aec7a40dd" x="398.450159" y="95.931563" style="fill: #d62728; stroke: #d62728"/>
    </g>
   </g>
   <g id="patch_3">
    <path d="M 72 90.954634 
L 72 12.96 
" style="fill: none; stroke: #ffffff; stroke-width: 2; stroke-linejoin: miter; stroke-linecap: square"/>
   </g>
   <g id="patch_4">
    <path d="M 418.853294 90.954634 
L 418.853294 12.96 
" style="fill: none; stroke: #ffffff; stroke-width: 2; stroke-linejoin: miter; stroke-linecap: square"/>
   </g>
   <g id="patch_5">
    <path d="M 72 90.954634 
L 418.853294 90.954634 
" style="fill: none; stroke: #ffffff; stroke-width: 2; stroke-linejoin: miter; stroke-linecap: square"/>
   </g>
   <g id="patch_6">
    <path d="M 72 12.96 
L 418.853294 12.96 
" style="fill: none; stroke: #ffffff; stroke-width: 2; stroke-linejoin: miter; stroke-linecap: square"/>
   </g>
  </g>
  <g id="axes_2">
   <g id="PathCollection_1">
    <defs>
     <path id="m46bc39a689" d="M 0 2.5 
C 0.663008 2.5 1.29895 2.236584 1.767767 1.767767 
C 2.236584 1.29895 2.5 0.663008 2.5 0 
C 2.5 -0.663008 2.236584 -1.29895 1.767767 -1.767767 
C 1.29895 -2.236584 0.663008 -2.5 0 -2.5 
C -0.663008 -2.5 -1.29895 -2.236584 -1.767767 -1.767767 
C -2.236584 -1.29895 -2.5 -0.663008 -2.5 0 
C -2.5 0.663008 -2.236584 1.29895 -1.767767 1.767767 
C -1.29895 2.236584 -0.663008 2.5 0 2.5 
z
" style="stroke: #ffffff; stroke-width: 2"/>
    </defs>
    <g>
     <use xlink:href="#m46bc39a689" x="527.724555" y="27.761157" style="fill: #aa3377; stroke: #ffffff; stroke-width: 2"/>
    </g>
   </g>
   <g id="line2d_19">
    <path d="M 578.832057 54.43072 
L 578.766981 52.35997 
L 578.57201 50.297392 
L 578.247913 48.251127 
L 577.79597 46.229249 
L 577.217964 44.23974 
L 576.516176 42.290449 
L 575.693376 40.389071 
L 574.752811 38.543108 
L 573.698193 36.759847 
L 572.533685 35.046324 
L 571.263881 33.409303 
L 569.893793 31.855244 
L 568.428829 30.390279 
L 566.87477 29.020192 
L 565.237749 27.750388 
L 563.524226 26.585879 
L 561.740965 25.531261 
L 559.895002 24.590697 
L 557.993624 23.767897 
L 556.044333 23.066109 
L 554.054823 22.488103 
L 552.032946 22.03616 
L 549.986681 21.712063 
L 547.924103 21.517092 
L 545.853353 21.452016 
L 543.782603 21.517092 
L 541.720026 21.712063 
L 539.67376 22.03616 
L 537.651883 22.488103 
L 535.662373 23.066109 
L 533.713083 23.767897 
L 531.811704 24.590697 
L 529.965742 25.531261 
L 528.18248 26.585879 
L 526.468958 27.750388 
L 524.831937 29.020192 
L 523.277877 30.390279 
L 521.812913 31.855244 
L 520.442826 33.409303 
L 519.173022 35.046324 
L 518.008513 36.759847 
L 516.953895 38.543108 
L 516.01333 40.389071 
L 515.19053 42.290449 
L 514.488742 44.23974 
L 513.910736 46.229249 
L 513.458793 48.251127 
L 513.134697 50.297392 
L 512.939726 52.35997 
L 512.87465 54.43072 
L 512.939726 56.501469 
L 513.134697 58.564047 
L 513.458793 60.610312 
L 513.910736 62.63219 
L 514.488742 64.621699 
L 515.19053 66.57099 
L 516.01333 68.472368 
L 516.953895 70.318331 
L 518.008513 72.101592 
L 519.173022 73.815115 
L 520.442826 75.452136 
L 521.812913 77.006195 
L 523.277877 78.47116 
L 524.831937 79.841247 
L 526.468958 81.111051 
L 528.18248 82.27556 
L 529.965742 83.330178 
L 531.811704 84.270743 
L 533.713083 85.093542 
L 535.662373 85.79533 
L 537.651883 86.373336 
L 539.67376 86.825279 
L 541.720026 87.149376 
L 543.782603 87.344347 
L 545.853353 87.409423 
L 547.924103 87.344347 
L 549.986681 87.149376 
L 552.032946 86.825279 
L 554.054823 86.373336 
L 556.044333 85.79533 
L 557.993624 85.093542 
L 559.895002 84.270743 
L 561.740965 83.330178 
L 563.524226 82.27556 
L 565.237749 81.111051 
L 566.87477 79.841247 
L 568.428829 78.47116 
L 569.893793 77.006195 
L 571.263881 75.452136 
L 572.533685 73.815115 
L 573.698193 72.101592 
L 574.752811 70.318331 
L 575.693376 68.472368 
L 576.516176 66.57099 
L 577.217964 64.621699 
L 577.79597 62.63219 
L 578.247913 60.610312 
L 578.57201 58.564047 
L 578.766981 56.501469 
L 578.832057 54.43072 
" style="fill: none; stroke: #ffffff; stroke-linecap: square"/>
   </g>
   <g id="line2d_20">
    <path d="M 538.94631 22.183431 
L 545.853353 16.505211 
L 552.760397 22.183431 
" style="fill: none; stroke: #ffffff; stroke-linecap: square"/>
   </g>
   <g id="line2d_21">
    <path d="M 513.072522 50.770083 
L 512.215076 49.31902 
L 511.687417 49.266255 
L 510.902523 49.510297 
L 510.111035 50.770083 
L 510.236354 54.793485 
L 509.774652 60.57795 
L 510.764013 63.090927 
L 512.215076 63.559225 
L 513.600181 62.339013 
" style="fill: none; stroke: #ffffff; stroke-linecap: square"/>
   </g>
   <g id="line2d_22">
    <path d="M 578.634184 50.770083 
L 579.491631 49.31902 
L 580.01929 49.266255 
L 580.804183 49.510297 
L 581.595672 50.770083 
L 581.470353 54.793485 
L 581.932055 60.57795 
L 580.942694 63.090927 
L 579.491631 63.559225 
L 578.106525 62.339013 
" style="fill: none; stroke: #ffffff; stroke-linecap: square"/>
   </g>
  </g>
  <g id="axes_3">
   <g id="patch_7">
    <path d="M 72 189.403707 
L 418.853294 189.403707 
L 418.853294 111.409073 
L 72 111.409073 
L 72 189.403707 
z
" style="fill: none"/>
   </g>
   <g id="matplotlib.axis_3">
    <g id="xtick_5">
     <g id="line2d_23">
      <g>
       <use xlink:href="#md039a5b472" x="92.403135" y="189.403707" style="fill: #ffffff; stroke: #ffffff; stroke-width: 2"/>
      </g>
     </g>
    </g>
    <g id="xtick_6">
     <g id="line2d_24">
      <g>
       <use xlink:href="#md039a5b472" x="194.418809" y="189.403707" style="fill: #ffffff; stroke: #ffffff; stroke-width: 2"/>
      </g>
     </g>
    </g>
    <g id="xtick_7">
     <g id="line2d_25">
      <g>
       <use xlink:href="#md039a5b472" x="296.434484" y="189.403707" style="fill: #ffffff; stroke: #ffffff; stroke-width: 2"/>
      </g>
     </g>
    </g>
    <g id="xtick_8">
     <g id="line2d_26">
      <g>
       <use xlink:href="#md039a5b472" x="398.450159" y="189.403707" style="fill: #ffffff; stroke: #ffffff; stroke-width: 2"/>
      </g>
     </g>
    </g>
   </g>
   <g id="matplotlib.axis_4">
    <g id="ytick_3">
     <g id="line2d_27">
      <g>
       <use xlink:href="#mcd1a149f60" x="72" y="189.403707" style="fill: #ffffff; stroke: #ffffff; stroke-width: 2"/>
      </g>
     </g>
     <g id="text_3">
      <!-- 0.0 -->
      <g style="fill: #ffffff" transform="translate(39.555 195.482457)scale(0.16 -0.16)">
       <use xlink:href="#DejaVuSans-30"/>
       <use xlink:href="#DejaVuSans-2e" x="63.623047"/>
       <use xlink:href="#DejaVuSans-30" x="95.410156"/>
      </g>
     </g>
    </g>
    <g id="ytick_4">
     <g id="line2d_28">
      <g>
       <use xlink:href="#mcd1a149f60" x="72" y="137.407284" style="fill: #ffffff; stroke: #ffffff; stroke-width: 2"/>
      </g>
     </g>
     <g id="text_4">
      <!-- 0.1 -->
      <g style="fill: #ffffff" transform="translate(39.555 143.486034)scale(0.16 -0.16)">
       <use xlink:href="#DejaVuSans-30"/>
       <use xlink:href="#DejaVuSans-2e" x="63.623047"/>
       <use xlink:href="#DejaVuSans-31" x="95.410156"/>
      </g>
     </g>
    </g>
   </g>
   <g id="LineCollection_5">
    <path d="M 92.403135 169.291262 
L 92.403135 149.378809 
" clip-path="url(#p9e75ed2ca3)" style="fill: none; stroke: #1f77b4; stroke-width: 2"/>
   </g>
   <g id="line2d_29">
    <g clip-path="url(#p9e75ed2ca3)">
     <use xlink:href="#m4391b3e631" x="92.403135" y="169.291262" style="fill: #1f77b4; stroke: #1f77b4"/>
    </g>
   </g>
   <g id="line2d_30">
    <g clip-path="url(#p9e75ed2ca3)">
     <use xlink:href="#m4391b3e631" x="92.403135" y="149.378809" style="fill: #1f77b4; stroke: #1f77b4"/>
    </g>
   </g>
   <g id="LineCollection_6">
    <path d="M 194.418809 182.267234 
L 194.418809 168.359864 
" clip-path="url(#p9e75ed2ca3)" style="fill: none; stroke: #ff7f0e; stroke-width: 2"/>
   </g>
   <g id="line2d_31">
    <g clip-path="url(#p9e75ed2ca3)">
     <use xlink:href="#mbce22d0d52" x="194.418809" y="182.267234" style="fill: #ff7f0e; stroke: #ff7f0e"/>
    </g>
   </g>
   <g id="line2d_32">
    <g clip-path="url(#p9e75ed2ca3)">
     <use xlink:href="#mbce22d0d52" x="194.418809" y="168.359864" style="fill: #ff7f0e; stroke: #ff7f0e"/>
    </g>
   </g>
   <g id="LineCollection_7">
    <path d="M 296.434484 187.154458 
L 296.434484 169.642248 
" clip-path="url(#p9e75ed2ca3)" style="fill: none; stroke: #2ca02c; stroke-width: 2"/>
   </g>
   <g id="line2d_33">
    <g clip-path="url(#p9e75ed2ca3)">
     <use xlink:href="#mac5021e6e0" x="296.434484" y="187.154458" style="fill: #2ca02c; stroke: #2ca02c"/>
    </g>
   </g>
   <g id="line2d_34">
    <g clip-path="url(#p9e75ed2ca3)">
     <use xlink:href="#mac5021e6e0" x="296.434484" y="169.642248" style="fill: #2ca02c; stroke: #2ca02c"/>
    </g>
   </g>
   <g id="LineCollection_8">
    <path d="M 398.450159 186.882672 
L 398.450159 169.355116 
" clip-path="url(#p9e75ed2ca3)" style="fill: none; stroke: #d62728; stroke-width: 2"/>
   </g>
   <g id="line2d_35">
    <g clip-path="url(#p9e75ed2ca3)">
     <use xlink:href="#m366e60d2a4" x="398.450159" y="186.882672" style="fill: #d62728; stroke: #d62728"/>
    </g>
   </g>
   <g id="line2d_36">
    <g clip-path="url(#p9e75ed2ca3)">
     <use xlink:href="#m366e60d2a4" x="398.450159" y="169.355116" style="fill: #d62728; stroke: #d62728"/>
    </g>
   </g>
   <g id="line2d_37">
    <g clip-path="url(#p9e75ed2ca3)">
     <use xlink:href="#mba63fdaf48" x="92.403135" y="159.335036" style="fill: #1f77b4; stroke: #1f77b4"/>
    </g>
   </g>
   <g id="line2d_38">
    <g clip-path="url(#p9e75ed2ca3)">
     <use xlink:href="#mc442427952" x="194.418809" y="175.313549" style="fill: #ff7f0e; stroke: #ff7f0e"/>
    </g>
   </g>
   <g id="line2d_39">
    <g clip-path="url(#p9e75ed2ca3)">
     <use xlink:href="#mb3d3e8479a" x="296.434484" y="178.398353" style="fill: #2ca02c; stroke: #2ca02c"/>
    </g>
   </g>
   <g id="line2d_40">
    <g clip-path="url(#p9e75ed2ca3)">
     <use xlink:href="#m2aec7a40dd" x="398.450159" y="178.118894" style="fill: #d62728; stroke: #d62728"/>
    </g>
   </g>
   <g id="patch_8">
    <path d="M 72 189.403707 
L 72 111.409073 
" style="fill: none; stroke: #ffffff; stroke-width: 2; stroke-linejoin: miter; stroke-linecap: square"/>
   </g>
   <g id="patch_9">
    <path d="M 418.853294 189.403707 
L 418.853294 111.409073 
" style="fill: none; stroke: #ffffff; stroke-width: 2; stroke-linejoin: miter; stroke-linecap: square"/>
   </g>
   <g id="patch_10">
    <path d="M 72 189.403707 
L 418.853294 189.403707 
" style="fill: none; stroke: #ffffff; stroke-width: 2; stroke-linejoin: miter; stroke-linecap: square"/>
   </g>
   <g id="patch_11">
    <path d="M 72 111.409073 
L 418.853294 111.409073 
" style="fill: none; stroke: #ffffff; stroke-width: 2; stroke-linejoin: miter; stroke-linecap: square"/>
   </g>
  </g>
  <g id="axes_4">
   <g id="PathCollection_2">
    <g>
     <use xlink:href="#m46bc39a689" x="532.105946" y="121.909619" style="fill: #aa3377; stroke: #ffffff; stroke-width: 2"/>
    </g>
   </g>
   <g id="line2d_41">
    <path d="M 578.832057 152.879793 
L 578.766981 150.809043 
L 578.57201 148.746465 
L 578.247913 146.7002 
L 577.79597 144.678323 
L 577.217964 142.688813 
L 576.516176 140.739522 
L 575.693376 138.838144 
L 574.752811 136.992181 
L 573.698193 135.20892 
L 572.533685 133.495397 
L 571.263881 131.858376 
L 569.893793 130.304317 
L 568.428829 128.839353 
L 566.87477 127.469265 
L 565.237749 126.199461 
L 563.524226 125.034953 
L 561.740965 123.980335 
L 559.895002 123.03977 
L 557.993624 122.21697 
L 556.044333 121.515182 
L 554.054823 120.937176 
L 552.032946 120.485233 
L 549.986681 120.161136 
L 547.924103 119.966165 
L 545.853353 119.901089 
L 543.782603 119.966165 
L 541.720026 120.161136 
L 539.67376 120.485233 
L 537.651883 120.937176 
L 535.662373 121.515182 
L 533.713083 122.21697 
L 531.811704 123.03977 
L 529.965742 123.980335 
L 528.18248 125.034953 
L 526.468958 126.199461 
L 524.831937 127.469265 
L 523.277877 128.839353 
L 521.812913 130.304317 
L 520.442826 131.858376 
L 519.173022 133.495397 
L 518.008513 135.20892 
L 516.953895 136.992181 
L 516.01333 138.838144 
L 515.19053 140.739522 
L 514.488742 142.688813 
L 513.910736 144.678323 
L 513.458793 146.7002 
L 513.134697 148.746465 
L 512.939726 150.809043 
L 512.87465 152.879793 
L 512.939726 154.950543 
L 513.134697 157.01312 
L 513.458793 159.059386 
L 513.910736 161.081263 
L 514.488742 163.070773 
L 515.19053 165.020063 
L 516.01333 166.921442 
L 516.953895 168.767404 
L 518.008513 170.550666 
L 519.173022 172.264188 
L 520.442826 173.90121 
L 521.812913 175.455269 
L 523.277877 176.920233 
L 524.831937 178.290321 
L 526.468958 179.560124 
L 528.18248 180.724633 
L 529.965742 181.779251 
L 531.811704 182.719816 
L 533.713083 183.542616 
L 535.662373 184.244404 
L 537.651883 184.82241 
L 539.67376 185.274353 
L 541.720026 185.598449 
L 543.782603 185.79342 
L 545.853353 185.858496 
L 547.924103 185.79342 
L 549.986681 185.598449 
L 552.032946 185.274353 
L 554.054823 184.82241 
L 556.044333 184.244404 
L 557.993624 183.542616 
L 559.895002 182.719816 
L 561.740965 181.779251 
L 563.524226 180.724633 
L 565.237749 179.560124 
L 566.87477 178.290321 
L 568.428829 176.920233 
L 569.893793 175.455269 
L 571.263881 173.90121 
L 572.533685 172.264188 
L 573.698193 170.550666 
L 574.752811 168.767404 
L 575.693376 166.921442 
L 576.516176 165.020063 
L 577.217964 163.070773 
L 577.79597 161.081263 
L 578.247913 159.059386 
L 578.57201 157.01312 
L 578.766981 154.950543 
L 578.832057 152.879793 
" style="fill: none; stroke: #ffffff; stroke-linecap: square"/>
   </g>
   <g id="line2d_42">
    <path d="M 538.94631 120.632504 
L 545.853353 114.954284 
L 552.760397 120.632504 
" style="fill: none; stroke: #ffffff; stroke-linecap: square"/>
   </g>
   <g id="line2d_43">
    <path d="M 513.072522 149.219157 
L 512.215076 147.768094 
L 511.687417 147.715328 
L 510.902523 147.95937 
L 510.111035 149.219157 
L 510.236354 153.242559 
L 509.774652 159.027023 
L 510.764013 161.54 
L 512.215076 162.008298 
L 513.600181 160.788086 
" style="fill: none; stroke: #ffffff; stroke-linecap: square"/>
   </g>
   <g id="line2d_44">
    <path d="M 578.634184 149.219157 
L 579.491631 147.768094 
L 580.01929 147.715328 
L 580.804183 147.95937 
L 581.595672 149.219157 
L 581.470353 153.242559 
L 581.932055 159.027023 
L 580.942694 161.54 
L 579.491631 162.008298 
L 578.106525 160.788086 
" style="fill: none; stroke: #ffffff; stroke-linecap: square"/>
   </g>
  </g>
  <g id="axes_5">
   <g id="patch_12">
    <path d="M 72 287.85278 
L 418.853294 287.85278 
L 418.853294 209.858147 
L 72 209.858147 
L 72 287.85278 
z
" style="fill: none"/>
   </g>
   <g id="matplotlib.axis_5">
    <g id="xtick_9">
     <g id="line2d_45">
      <g>
       <use xlink:href="#md039a5b472" x="92.403135" y="287.85278" style="fill: #ffffff; stroke: #ffffff; stroke-width: 2"/>
      </g>
     </g>
    </g>
    <g id="xtick_10">
     <g id="line2d_46">
      <g>
       <use xlink:href="#md039a5b472" x="194.418809" y="287.85278" style="fill: #ffffff; stroke: #ffffff; stroke-width: 2"/>
      </g>
     </g>
    </g>
    <g id="xtick_11">
     <g id="line2d_47">
      <g>
       <use xlink:href="#md039a5b472" x="296.434484" y="287.85278" style="fill: #ffffff; stroke: #ffffff; stroke-width: 2"/>
      </g>
     </g>
    </g>
    <g id="xtick_12">
     <g id="line2d_48">
      <g>
       <use xlink:href="#md039a5b472" x="398.450159" y="287.85278" style="fill: #ffffff; stroke: #ffffff; stroke-width: 2"/>
      </g>
     </g>
    </g>
   </g>
   <g id="matplotlib.axis_6">
    <g id="ytick_5">
     <g id="line2d_49">
      <g>
       <use xlink:href="#mcd1a149f60" x="72" y="287.85278" style="fill: #ffffff; stroke: #ffffff; stroke-width: 2"/>
      </g>
     </g>
     <g id="text_5">
      <!-- 0.0 -->
      <g style="fill: #ffffff" transform="translate(39.555 293.93153)scale(0.16 -0.16)">
       <use xlink:href="#DejaVuSans-30"/>
       <use xlink:href="#DejaVuSans-2e" x="63.623047"/>
       <use xlink:href="#DejaVuSans-30" x="95.410156"/>
      </g>
     </g>
    </g>
    <g id="ytick_6">
     <g id="line2d_50">
      <g>
       <use xlink:href="#mcd1a149f60" x="72" y="235.856358" style="fill: #ffffff; stroke: #ffffff; stroke-width: 2"/>
      </g>
     </g>
     <g id="text_6">
      <!-- 0.1 -->
      <g style="fill: #ffffff" transform="translate(39.555 241.935108)scale(0.16 -0.16)">
       <use xlink:href="#DejaVuSans-30"/>
       <use xlink:href="#DejaVuSans-2e" x="63.623047"/>
       <use xlink:href="#DejaVuSans-31" x="95.410156"/>
      </g>
     </g>
    </g>
    <g id="text_7">
     <!-- Mean $\Delta$Hb ($\mu$M) during stim. -->
     <g style="fill: #ffffff" transform="translate(30.515 417.575463)rotate(-90)scale(0.24 -0.24)">
      <defs>
       <path id="DejaVuSans-4d" d="M 628 4666 
L 1569 4666 
L 2759 1491 
L 3956 4666 
L 4897 4666 
L 4897 0 
L 4281 0 
L 4281 4097 
L 3078 897 
L 2444 897 
L 1241 4097 
L 1241 0 
L 628 0 
L 628 4666 
z
" transform="scale(0.015625)"/>
       <path id="DejaVuSans-65" d="M 3597 1894 
L 3597 1613 
L 953 1613 
Q 991 1019 1311 708 
Q 1631 397 2203 397 
Q 2534 397 2845 478 
Q 3156 559 3463 722 
L 3463 178 
Q 3153 47 2828 -22 
Q 2503 -91 2169 -91 
Q 1331 -91 842 396 
Q 353 884 353 1716 
Q 353 2575 817 3079 
Q 1281 3584 2069 3584 
Q 2775 3584 3186 3129 
Q 3597 2675 3597 1894 
z
M 3022 2063 
Q 3016 2534 2758 2815 
Q 2500 3097 2075 3097 
Q 1594 3097 1305 2825 
Q 1016 2553 972 2059 
L 3022 2063 
z
" transform="scale(0.015625)"/>
       <path id="DejaVuSans-61" d="M 2194 1759 
Q 1497 1759 1228 1600 
Q 959 1441 959 1056 
Q 959 750 1161 570 
Q 1363 391 1709 391 
Q 2188 391 2477 730 
Q 2766 1069 2766 1631 
L 2766 1759 
L 2194 1759 
z
M 3341 1997 
L 3341 0 
L 2766 0 
L 2766 531 
Q 2569 213 2275 61 
Q 1981 -91 1556 -91 
Q 1019 -91 701 211 
Q 384 513 384 1019 
Q 384 1609 779 1909 
Q 1175 2209 1959 2209 
L 2766 2209 
L 2766 2266 
Q 2766 2663 2505 2880 
Q 2244 3097 1772 3097 
Q 1472 3097 1187 3025 
Q 903 2953 641 2809 
L 641 3341 
Q 956 3463 1253 3523 
Q 1550 3584 1831 3584 
Q 2591 3584 2966 3190 
Q 3341 2797 3341 1997 
z
" transform="scale(0.015625)"/>
       <path id="DejaVuSans-6e" d="M 3513 2113 
L 3513 0 
L 2938 0 
L 2938 2094 
Q 2938 2591 2744 2837 
Q 2550 3084 2163 3084 
Q 1697 3084 1428 2787 
Q 1159 2491 1159 1978 
L 1159 0 
L 581 0 
L 581 3500 
L 1159 3500 
L 1159 2956 
Q 1366 3272 1645 3428 
Q 1925 3584 2291 3584 
Q 2894 3584 3203 3211 
Q 3513 2838 3513 2113 
z
" transform="scale(0.015625)"/>
       <path id="DejaVuSans-20" transform="scale(0.015625)"/>
       <path id="DejaVuSans-394" d="M 2188 4044 
L 906 525 
L 3472 525 
L 2188 4044 
z
M 50 0 
L 1831 4666 
L 2547 4666 
L 4325 0 
L 50 0 
z
" transform="scale(0.015625)"/>
       <path id="DejaVuSans-48" d="M 628 4666 
L 1259 4666 
L 1259 2753 
L 3553 2753 
L 3553 4666 
L 4184 4666 
L 4184 0 
L 3553 0 
L 3553 2222 
L 1259 2222 
L 1259 0 
L 628 0 
L 628 4666 
z
" transform="scale(0.015625)"/>
       <path id="DejaVuSans-62" d="M 3116 1747 
Q 3116 2381 2855 2742 
Q 2594 3103 2138 3103 
Q 1681 3103 1420 2742 
Q 1159 2381 1159 1747 
Q 1159 1113 1420 752 
Q 1681 391 2138 391 
Q 2594 391 2855 752 
Q 3116 1113 3116 1747 
z
M 1159 2969 
Q 1341 3281 1617 3432 
Q 1894 3584 2278 3584 
Q 2916 3584 3314 3078 
Q 3713 2572 3713 1747 
Q 3713 922 3314 415 
Q 2916 -91 2278 -91 
Q 1894 -91 1617 61 
Q 1341 213 1159 525 
L 1159 0 
L 581 0 
L 581 4863 
L 1159 4863 
L 1159 2969 
z
" transform="scale(0.015625)"/>
       <path id="DejaVuSans-28" d="M 1984 4856 
Q 1566 4138 1362 3434 
Q 1159 2731 1159 2009 
Q 1159 1288 1364 580 
Q 1569 -128 1984 -844 
L 1484 -844 
Q 1016 -109 783 600 
Q 550 1309 550 2009 
Q 550 2706 781 3412 
Q 1013 4119 1484 4856 
L 1984 4856 
z
" transform="scale(0.015625)"/>
       <path id="DejaVuSans-Oblique-3bc" d="M -84 -1331 
L 856 3500 
L 1434 3500 
L 1009 1322 
Q 997 1256 987 1175 
Q 978 1094 978 1013 
Q 978 722 1161 565 
Q 1344 409 1684 409 
Q 2147 409 2431 671 
Q 2716 934 2816 1459 
L 3213 3500 
L 3788 3500 
L 3266 809 
Q 3253 750 3248 706 
Q 3244 663 3244 628 
Q 3244 531 3283 486 
Q 3322 441 3406 441 
Q 3438 441 3492 456 
Q 3547 472 3647 513 
L 3559 50 
Q 3422 -19 3297 -55 
Q 3172 -91 3053 -91 
Q 2847 -91 2730 40 
Q 2613 172 2613 403 
Q 2438 153 2195 31 
Q 1953 -91 1625 -91 
Q 1334 -91 1117 43 
Q 900 178 831 397 
L 494 -1331 
L -84 -1331 
z
" transform="scale(0.015625)"/>
       <path id="DejaVuSans-29" d="M 513 4856 
L 1013 4856 
Q 1481 4119 1714 3412 
Q 1947 2706 1947 2009 
Q 1947 1309 1714 600 
Q 1481 -109 1013 -844 
L 513 -844 
Q 928 -128 1133 580 
Q 1338 1288 1338 2009 
Q 1338 2731 1133 3434 
Q 928 4138 513 4856 
z
" transform="scale(0.015625)"/>
       <path id="DejaVuSans-64" d="M 2906 2969 
L 2906 4863 
L 3481 4863 
L 3481 0 
L 2906 0 
L 2906 525 
Q 2725 213 2448 61 
Q 2172 -91 1784 -91 
Q 1150 -91 751 415 
Q 353 922 353 1747 
Q 353 2572 751 3078 
Q 1150 3584 1784 3584 
Q 2172 3584 2448 3432 
Q 2725 3281 2906 2969 
z
M 947 1747 
Q 947 1113 1208 752 
Q 1469 391 1925 391 
Q 2381 391 2643 752 
Q 2906 1113 2906 1747 
Q 2906 2381 2643 2742 
Q 2381 3103 1925 3103 
Q 1469 3103 1208 2742 
Q 947 2381 947 1747 
z
" transform="scale(0.015625)"/>
       <path id="DejaVuSans-75" d="M 544 1381 
L 544 3500 
L 1119 3500 
L 1119 1403 
Q 1119 906 1312 657 
Q 1506 409 1894 409 
Q 2359 409 2629 706 
Q 2900 1003 2900 1516 
L 2900 3500 
L 3475 3500 
L 3475 0 
L 2900 0 
L 2900 538 
Q 2691 219 2414 64 
Q 2138 -91 1772 -91 
Q 1169 -91 856 284 
Q 544 659 544 1381 
z
M 1991 3584 
L 1991 3584 
z
" transform="scale(0.015625)"/>
       <path id="DejaVuSans-72" d="M 2631 2963 
Q 2534 3019 2420 3045 
Q 2306 3072 2169 3072 
Q 1681 3072 1420 2755 
Q 1159 2438 1159 1844 
L 1159 0 
L 581 0 
L 581 3500 
L 1159 3500 
L 1159 2956 
Q 1341 3275 1631 3429 
Q 1922 3584 2338 3584 
Q 2397 3584 2469 3576 
Q 2541 3569 2628 3553 
L 2631 2963 
z
" transform="scale(0.015625)"/>
       <path id="DejaVuSans-69" d="M 603 3500 
L 1178 3500 
L 1178 0 
L 603 0 
L 603 3500 
z
M 603 4863 
L 1178 4863 
L 1178 4134 
L 603 4134 
L 603 4863 
z
" transform="scale(0.015625)"/>
       <path id="DejaVuSans-67" d="M 2906 1791 
Q 2906 2416 2648 2759 
Q 2391 3103 1925 3103 
Q 1463 3103 1205 2759 
Q 947 2416 947 1791 
Q 947 1169 1205 825 
Q 1463 481 1925 481 
Q 2391 481 2648 825 
Q 2906 1169 2906 1791 
z
M 3481 434 
Q 3481 -459 3084 -895 
Q 2688 -1331 1869 -1331 
Q 1566 -1331 1297 -1286 
Q 1028 -1241 775 -1147 
L 775 -588 
Q 1028 -725 1275 -790 
Q 1522 -856 1778 -856 
Q 2344 -856 2625 -561 
Q 2906 -266 2906 331 
L 2906 616 
Q 2728 306 2450 153 
Q 2172 0 1784 0 
Q 1141 0 747 490 
Q 353 981 353 1791 
Q 353 2603 747 3093 
Q 1141 3584 1784 3584 
Q 2172 3584 2450 3431 
Q 2728 3278 2906 2969 
L 2906 3500 
L 3481 3500 
L 3481 434 
z
" transform="scale(0.015625)"/>
       <path id="DejaVuSans-73" d="M 2834 3397 
L 2834 2853 
Q 2591 2978 2328 3040 
Q 2066 3103 1784 3103 
Q 1356 3103 1142 2972 
Q 928 2841 928 2578 
Q 928 2378 1081 2264 
Q 1234 2150 1697 2047 
L 1894 2003 
Q 2506 1872 2764 1633 
Q 3022 1394 3022 966 
Q 3022 478 2636 193 
Q 2250 -91 1575 -91 
Q 1294 -91 989 -36 
Q 684 19 347 128 
L 347 722 
Q 666 556 975 473 
Q 1284 391 1588 391 
Q 1994 391 2212 530 
Q 2431 669 2431 922 
Q 2431 1156 2273 1281 
Q 2116 1406 1581 1522 
L 1381 1569 
Q 847 1681 609 1914 
Q 372 2147 372 2553 
Q 372 3047 722 3315 
Q 1072 3584 1716 3584 
Q 2034 3584 2315 3537 
Q 2597 3491 2834 3397 
z
" transform="scale(0.015625)"/>
       <path id="DejaVuSans-74" d="M 1172 4494 
L 1172 3500 
L 2356 3500 
L 2356 3053 
L 1172 3053 
L 1172 1153 
Q 1172 725 1289 603 
Q 1406 481 1766 481 
L 2356 481 
L 2356 0 
L 1766 0 
Q 1100 0 847 248 
Q 594 497 594 1153 
L 594 3053 
L 172 3053 
L 172 3500 
L 594 3500 
L 594 4494 
L 1172 4494 
z
" transform="scale(0.015625)"/>
       <path id="DejaVuSans-6d" d="M 3328 2828 
Q 3544 3216 3844 3400 
Q 4144 3584 4550 3584 
Q 5097 3584 5394 3201 
Q 5691 2819 5691 2113 
L 5691 0 
L 5113 0 
L 5113 2094 
Q 5113 2597 4934 2840 
Q 4756 3084 4391 3084 
Q 3944 3084 3684 2787 
Q 3425 2491 3425 1978 
L 3425 0 
L 2847 0 
L 2847 2094 
Q 2847 2600 2669 2842 
Q 2491 3084 2119 3084 
Q 1678 3084 1418 2786 
Q 1159 2488 1159 1978 
L 1159 0 
L 581 0 
L 581 3500 
L 1159 3500 
L 1159 2956 
Q 1356 3278 1631 3431 
Q 1906 3584 2284 3584 
Q 2666 3584 2933 3390 
Q 3200 3197 3328 2828 
z
" transform="scale(0.015625)"/>
      </defs>
      <use xlink:href="#DejaVuSans-4d" transform="translate(0 0.015625)"/>
      <use xlink:href="#DejaVuSans-65" transform="translate(86.279297 0.015625)"/>
      <use xlink:href="#DejaVuSans-61" transform="translate(147.802734 0.015625)"/>
      <use xlink:href="#DejaVuSans-6e" transform="translate(209.082031 0.015625)"/>
      <use xlink:href="#DejaVuSans-20" transform="translate(272.460938 0.015625)"/>
      <use xlink:href="#DejaVuSans-394" transform="translate(304.248047 0.015625)"/>
      <use xlink:href="#DejaVuSans-48" transform="translate(372.65625 0.015625)"/>
      <use xlink:href="#DejaVuSans-62" transform="translate(447.851562 0.015625)"/>
      <use xlink:href="#DejaVuSans-20" transform="translate(511.328125 0.015625)"/>
      <use xlink:href="#DejaVuSans-28" transform="translate(543.115234 0.015625)"/>
      <use xlink:href="#DejaVuSans-Oblique-3bc" transform="translate(582.128906 0.015625)"/>
      <use xlink:href="#DejaVuSans-4d" transform="translate(645.751953 0.015625)"/>
      <use xlink:href="#DejaVuSans-29" transform="translate(732.03125 0.015625)"/>
      <use xlink:href="#DejaVuSans-20" transform="translate(771.044922 0.015625)"/>
      <use xlink:href="#DejaVuSans-64" transform="translate(802.832031 0.015625)"/>
      <use xlink:href="#DejaVuSans-75" transform="translate(866.308594 0.015625)"/>
      <use xlink:href="#DejaVuSans-72" transform="translate(929.6875 0.015625)"/>
      <use xlink:href="#DejaVuSans-69" transform="translate(970.800781 0.015625)"/>
      <use xlink:href="#DejaVuSans-6e" transform="translate(998.583984 0.015625)"/>
      <use xlink:href="#DejaVuSans-67" transform="translate(1061.962891 0.015625)"/>
      <use xlink:href="#DejaVuSans-20" transform="translate(1125.439453 0.015625)"/>
      <use xlink:href="#DejaVuSans-73" transform="translate(1157.226562 0.015625)"/>
      <use xlink:href="#DejaVuSans-74" transform="translate(1209.326172 0.015625)"/>
      <use xlink:href="#DejaVuSans-69" transform="translate(1248.535156 0.015625)"/>
      <use xlink:href="#DejaVuSans-6d" transform="translate(1276.318359 0.015625)"/>
      <use xlink:href="#DejaVuSans-2e" transform="translate(1373.730469 0.015625)"/>
     </g>
    </g>
   </g>
   <g id="LineCollection_9">
    <path d="M 92.403135 257.578626 
L 92.403135 239.165066 
" clip-path="url(#p264adf7d7b)" style="fill: none; stroke: #1f77b4; stroke-width: 2"/>
   </g>
   <g id="line2d_51">
    <g clip-path="url(#p264adf7d7b)">
     <use xlink:href="#m4391b3e631" x="92.403135" y="257.578626" style="fill: #1f77b4; stroke: #1f77b4"/>
    </g>
   </g>
   <g id="line2d_52">
    <g clip-path="url(#p264adf7d7b)">
     <use xlink:href="#m4391b3e631" x="92.403135" y="239.165066" style="fill: #1f77b4; stroke: #1f77b4"/>
    </g>
   </g>
   <g id="LineCollection_10">
    <path d="M 194.418809 284.006684 
L 194.418809 268.105451 
" clip-path="url(#p264adf7d7b)" style="fill: none; stroke: #ff7f0e; stroke-width: 2"/>
   </g>
   <g id="line2d_53">
    <g clip-path="url(#p264adf7d7b)">
     <use xlink:href="#mbce22d0d52" x="194.418809" y="284.006684" style="fill: #ff7f0e; stroke: #ff7f0e"/>
    </g>
   </g>
   <g id="line2d_54">
    <g clip-path="url(#p264adf7d7b)">
     <use xlink:href="#mbce22d0d52" x="194.418809" y="268.105451" style="fill: #ff7f0e; stroke: #ff7f0e"/>
    </g>
   </g>
   <g id="LineCollection_11">
    <path d="M 296.434484 281.257642 
L 296.434484 264.172224 
" clip-path="url(#p264adf7d7b)" style="fill: none; stroke: #2ca02c; stroke-width: 2"/>
   </g>
   <g id="line2d_55">
    <g clip-path="url(#p264adf7d7b)">
     <use xlink:href="#mac5021e6e0" x="296.434484" y="281.257642" style="fill: #2ca02c; stroke: #2ca02c"/>
    </g>
   </g>
   <g id="line2d_56">
    <g clip-path="url(#p264adf7d7b)">
     <use xlink:href="#mac5021e6e0" x="296.434484" y="264.172224" style="fill: #2ca02c; stroke: #2ca02c"/>
    </g>
   </g>
   <g id="LineCollection_12">
    <path d="M 398.450159 278.04267 
L 398.450159 259.455522 
" clip-path="url(#p264adf7d7b)" style="fill: none; stroke: #d62728; stroke-width: 2"/>
   </g>
   <g id="line2d_57">
    <g clip-path="url(#p264adf7d7b)">
     <use xlink:href="#m366e60d2a4" x="398.450159" y="278.04267" style="fill: #d62728; stroke: #d62728"/>
    </g>
   </g>
   <g id="line2d_58">
    <g clip-path="url(#p264adf7d7b)">
     <use xlink:href="#m366e60d2a4" x="398.450159" y="259.455522" style="fill: #d62728; stroke: #d62728"/>
    </g>
   </g>
   <g id="line2d_59">
    <g clip-path="url(#p264adf7d7b)">
     <use xlink:href="#mba63fdaf48" x="92.403135" y="248.371846" style="fill: #1f77b4; stroke: #1f77b4"/>
    </g>
   </g>
   <g id="line2d_60">
    <g clip-path="url(#p264adf7d7b)">
     <use xlink:href="#mc442427952" x="194.418809" y="276.056067" style="fill: #ff7f0e; stroke: #ff7f0e"/>
    </g>
   </g>
   <g id="line2d_61">
    <g clip-path="url(#p264adf7d7b)">
     <use xlink:href="#mb3d3e8479a" x="296.434484" y="272.714933" style="fill: #2ca02c; stroke: #2ca02c"/>
    </g>
   </g>
   <g id="line2d_62">
    <g clip-path="url(#p264adf7d7b)">
     <use xlink:href="#m2aec7a40dd" x="398.450159" y="268.749096" style="fill: #d62728; stroke: #d62728"/>
    </g>
   </g>
   <g id="patch_13">
    <path d="M 72 287.85278 
L 72 209.858147 
" style="fill: none; stroke: #ffffff; stroke-width: 2; stroke-linejoin: miter; stroke-linecap: square"/>
   </g>
   <g id="patch_14">
    <path d="M 418.853294 287.85278 
L 418.853294 209.858147 
" style="fill: none; stroke: #ffffff; stroke-width: 2; stroke-linejoin: miter; stroke-linecap: square"/>
   </g>
   <g id="patch_15">
    <path d="M 72 287.85278 
L 418.853294 287.85278 
" style="fill: none; stroke: #ffffff; stroke-width: 2; stroke-linejoin: miter; stroke-linecap: square"/>
   </g>
   <g id="patch_16">
    <path d="M 72 209.858147 
L 418.853294 209.858147 
" style="fill: none; stroke: #ffffff; stroke-width: 2; stroke-linejoin: miter; stroke-linecap: square"/>
   </g>
  </g>
  <g id="axes_6">
   <g id="PathCollection_3">
    <g>
     <use xlink:href="#m46bc39a689" x="529.829814" y="228.559163" style="fill: #aa3377; stroke: #ffffff; stroke-width: 2"/>
    </g>
   </g>
   <g id="line2d_63">
    <path d="M 578.832057 251.328866 
L 578.766981 249.258116 
L 578.57201 247.195539 
L 578.247913 245.149273 
L 577.79597 243.127396 
L 577.217964 241.137886 
L 576.516176 239.188596 
L 575.693376 237.287217 
L 574.752811 235.441255 
L 573.698193 233.657993 
L 572.533685 231.944471 
L 571.263881 230.307449 
L 569.893793 228.75339 
L 568.428829 227.288426 
L 566.87477 225.918338 
L 565.237749 224.648535 
L 563.524226 223.484026 
L 561.740965 222.429408 
L 559.895002 221.488843 
L 557.993624 220.666043 
L 556.044333 219.964255 
L 554.054823 219.386249 
L 552.032946 218.934306 
L 549.986681 218.61021 
L 547.924103 218.415239 
L 545.853353 218.350163 
L 543.782603 218.415239 
L 541.720026 218.61021 
L 539.67376 218.934306 
L 537.651883 219.386249 
L 535.662373 219.964255 
L 533.713083 220.666043 
L 531.811704 221.488843 
L 529.965742 222.429408 
L 528.18248 223.484026 
L 526.468958 224.648535 
L 524.831937 225.918338 
L 523.277877 227.288426 
L 521.812913 228.75339 
L 520.442826 230.307449 
L 519.173022 231.944471 
L 518.008513 233.657993 
L 516.953895 235.441255 
L 516.01333 237.287217 
L 515.19053 239.188596 
L 514.488742 241.137886 
L 513.910736 243.127396 
L 513.458793 245.149273 
L 513.134697 247.195539 
L 512.939726 249.258116 
L 512.87465 251.328866 
L 512.939726 253.399616 
L 513.134697 255.462194 
L 513.458793 257.508459 
L 513.910736 259.530336 
L 514.488742 261.519846 
L 515.19053 263.469137 
L 516.01333 265.370515 
L 516.953895 267.216478 
L 518.008513 268.999739 
L 519.173022 270.713262 
L 520.442826 272.350283 
L 521.812913 273.904342 
L 523.277877 275.369306 
L 524.831937 276.739394 
L 526.468958 278.009198 
L 528.18248 279.173706 
L 529.965742 280.228324 
L 531.811704 281.168889 
L 533.713083 281.991689 
L 535.662373 282.693477 
L 537.651883 283.271483 
L 539.67376 283.723426 
L 541.720026 284.047523 
L 543.782603 284.242494 
L 545.853353 284.30757 
L 547.924103 284.242494 
L 549.986681 284.047523 
L 552.032946 283.723426 
L 554.054823 283.271483 
L 556.044333 282.693477 
L 557.993624 281.991689 
L 559.895002 281.168889 
L 561.740965 280.228324 
L 563.524226 279.173706 
L 565.237749 278.009198 
L 566.87477 276.739394 
L 568.428829 275.369306 
L 569.893793 273.904342 
L 571.263881 272.350283 
L 572.533685 270.713262 
L 573.698193 268.999739 
L 574.752811 267.216478 
L 575.693376 265.370515 
L 576.516176 263.469137 
L 577.217964 261.519846 
L 577.79597 259.530336 
L 578.247913 257.508459 
L 578.57201 255.462194 
L 578.766981 253.399616 
L 578.832057 251.328866 
" style="fill: none; stroke: #ffffff; stroke-linecap: square"/>
   </g>
   <g id="line2d_64">
    <path d="M 538.94631 219.081577 
L 545.853353 213.403357 
L 552.760397 219.081577 
" style="fill: none; stroke: #ffffff; stroke-linecap: square"/>
   </g>
   <g id="line2d_65">
    <path d="M 513.072522 247.66823 
L 512.215076 246.217167 
L 511.687417 246.164401 
L 510.902523 246.408444 
L 510.111035 247.66823 
L 510.236354 251.691632 
L 509.774652 257.476096 
L 510.764013 259.989074 
L 512.215076 260.457371 
L 513.600181 259.237159 
" style="fill: none; stroke: #ffffff; stroke-linecap: square"/>
   </g>
   <g id="line2d_66">
    <path d="M 578.634184 247.66823 
L 579.491631 246.217167 
L 580.01929 246.164401 
L 580.804183 246.408444 
L 581.595672 247.66823 
L 581.470353 251.691632 
L 581.932055 257.476096 
L 580.942694 259.989074 
L 579.491631 260.457371 
L 578.106525 259.237159 
" style="fill: none; stroke: #ffffff; stroke-linecap: square"/>
   </g>
  </g>
  <g id="axes_7">
   <g id="patch_17">
    <path d="M 72 386.301853 
L 418.853294 386.301853 
L 418.853294 308.30722 
L 72 308.30722 
L 72 386.301853 
z
" style="fill: none"/>
   </g>
   <g id="matplotlib.axis_7">
    <g id="xtick_13">
     <g id="line2d_67">
      <g>
       <use xlink:href="#md039a5b472" x="92.403135" y="386.301853" style="fill: #ffffff; stroke: #ffffff; stroke-width: 2"/>
      </g>
     </g>
    </g>
    <g id="xtick_14">
     <g id="line2d_68">
      <g>
       <use xlink:href="#md039a5b472" x="194.418809" y="386.301853" style="fill: #ffffff; stroke: #ffffff; stroke-width: 2"/>
      </g>
     </g>
    </g>
    <g id="xtick_15">
     <g id="line2d_69">
      <g>
       <use xlink:href="#md039a5b472" x="296.434484" y="386.301853" style="fill: #ffffff; stroke: #ffffff; stroke-width: 2"/>
      </g>
     </g>
    </g>
    <g id="xtick_16">
     <g id="line2d_70">
      <g>
       <use xlink:href="#md039a5b472" x="398.450159" y="386.301853" style="fill: #ffffff; stroke: #ffffff; stroke-width: 2"/>
      </g>
     </g>
    </g>
   </g>
   <g id="matplotlib.axis_8">
    <g id="ytick_7">
     <g id="line2d_71">
      <g>
       <use xlink:href="#mcd1a149f60" x="72" y="386.301853" style="fill: #ffffff; stroke: #ffffff; stroke-width: 2"/>
      </g>
     </g>
     <g id="text_8">
      <!-- 0.0 -->
      <g style="fill: #ffffff" transform="translate(39.555 392.380603)scale(0.16 -0.16)">
       <use xlink:href="#DejaVuSans-30"/>
       <use xlink:href="#DejaVuSans-2e" x="63.623047"/>
       <use xlink:href="#DejaVuSans-30" x="95.410156"/>
      </g>
     </g>
    </g>
    <g id="ytick_8">
     <g id="line2d_72">
      <g>
       <use xlink:href="#mcd1a149f60" x="72" y="334.305431" style="fill: #ffffff; stroke: #ffffff; stroke-width: 2"/>
      </g>
     </g>
     <g id="text_9">
      <!-- 0.1 -->
      <g style="fill: #ffffff" transform="translate(39.555 340.384181)scale(0.16 -0.16)">
       <use xlink:href="#DejaVuSans-30"/>
       <use xlink:href="#DejaVuSans-2e" x="63.623047"/>
       <use xlink:href="#DejaVuSans-31" x="95.410156"/>
      </g>
     </g>
    </g>
   </g>
   <g id="LineCollection_13">
    <path d="M 92.403135 357.750997 
L 92.403135 338.239131 
" clip-path="url(#p3c91013ab8)" style="fill: none; stroke: #1f77b4; stroke-width: 2"/>
   </g>
   <g id="line2d_73">
    <g clip-path="url(#p3c91013ab8)">
     <use xlink:href="#m4391b3e631" x="92.403135" y="357.750997" style="fill: #1f77b4; stroke: #1f77b4"/>
    </g>
   </g>
   <g id="line2d_74">
    <g clip-path="url(#p3c91013ab8)">
     <use xlink:href="#m4391b3e631" x="92.403135" y="338.239131" style="fill: #1f77b4; stroke: #1f77b4"/>
    </g>
   </g>
   <g id="LineCollection_14">
    <path d="M 194.418809 379.446912 
L 194.418809 365.416943 
" clip-path="url(#p3c91013ab8)" style="fill: none; stroke: #ff7f0e; stroke-width: 2"/>
   </g>
   <g id="line2d_75">
    <g clip-path="url(#p3c91013ab8)">
     <use xlink:href="#mbce22d0d52" x="194.418809" y="379.446912" style="fill: #ff7f0e; stroke: #ff7f0e"/>
    </g>
   </g>
   <g id="line2d_76">
    <g clip-path="url(#p3c91013ab8)">
     <use xlink:href="#mbce22d0d52" x="194.418809" y="365.416943" style="fill: #ff7f0e; stroke: #ff7f0e"/>
    </g>
   </g>
   <g id="LineCollection_15">
    <path d="M 296.434484 378.923045 
L 296.434484 360.123284 
" clip-path="url(#p3c91013ab8)" style="fill: none; stroke: #2ca02c; stroke-width: 2"/>
   </g>
   <g id="line2d_77">
    <g clip-path="url(#p3c91013ab8)">
     <use xlink:href="#mac5021e6e0" x="296.434484" y="378.923045" style="fill: #2ca02c; stroke: #2ca02c"/>
    </g>
   </g>
   <g id="line2d_78">
    <g clip-path="url(#p3c91013ab8)">
     <use xlink:href="#mac5021e6e0" x="296.434484" y="360.123284" style="fill: #2ca02c; stroke: #2ca02c"/>
    </g>
   </g>
   <g id="LineCollection_16">
    <path d="M 398.450159 381.378315 
L 398.450159 357.222988 
" clip-path="url(#p3c91013ab8)" style="fill: none; stroke: #d62728; stroke-width: 2"/>
   </g>
   <g id="line2d_79">
    <g clip-path="url(#p3c91013ab8)">
     <use xlink:href="#m366e60d2a4" x="398.450159" y="381.378315" style="fill: #d62728; stroke: #d62728"/>
    </g>
   </g>
   <g id="line2d_80">
    <g clip-path="url(#p3c91013ab8)">
     <use xlink:href="#m366e60d2a4" x="398.450159" y="357.222988" style="fill: #d62728; stroke: #d62728"/>
    </g>
   </g>
   <g id="line2d_81">
    <g clip-path="url(#p3c91013ab8)">
     <use xlink:href="#mba63fdaf48" x="92.403135" y="347.995064" style="fill: #1f77b4; stroke: #1f77b4"/>
    </g>
   </g>
   <g id="line2d_82">
    <g clip-path="url(#p3c91013ab8)">
     <use xlink:href="#mc442427952" x="194.418809" y="372.431927" style="fill: #ff7f0e; stroke: #ff7f0e"/>
    </g>
   </g>
   <g id="line2d_83">
    <g clip-path="url(#p3c91013ab8)">
     <use xlink:href="#mb3d3e8479a" x="296.434484" y="369.523165" style="fill: #2ca02c; stroke: #2ca02c"/>
    </g>
   </g>
   <g id="line2d_84">
    <g clip-path="url(#p3c91013ab8)">
     <use xlink:href="#m2aec7a40dd" x="398.450159" y="369.300651" style="fill: #d62728; stroke: #d62728"/>
    </g>
   </g>
   <g id="patch_18">
    <path d="M 72 386.301853 
L 72 308.30722 
" style="fill: none; stroke: #ffffff; stroke-width: 2; stroke-linejoin: miter; stroke-linecap: square"/>
   </g>
   <g id="patch_19">
    <path d="M 418.853294 386.301853 
L 418.853294 308.30722 
" style="fill: none; stroke: #ffffff; stroke-width: 2; stroke-linejoin: miter; stroke-linecap: square"/>
   </g>
   <g id="patch_20">
    <path d="M 72 386.301853 
L 418.853294 386.301853 
" style="fill: none; stroke: #ffffff; stroke-width: 2; stroke-linejoin: miter; stroke-linecap: square"/>
   </g>
   <g id="patch_21">
    <path d="M 72 308.30722 
L 418.853294 308.30722 
" style="fill: none; stroke: #ffffff; stroke-width: 2; stroke-linejoin: miter; stroke-linecap: square"/>
   </g>
  </g>
  <g id="axes_8">
   <g id="PathCollection_4">
    <g>
     <use xlink:href="#m46bc39a689" x="533.734169" y="323.005174" style="fill: #aa3377; stroke: #ffffff; stroke-width: 2"/>
    </g>
   </g>
   <g id="line2d_85">
    <path d="M 578.832057 349.777939 
L 578.766981 347.707189 
L 578.57201 345.644612 
L 578.247913 343.598347 
L 577.79597 341.576469 
L 577.217964 339.58696 
L 576.516176 337.637669 
L 575.693376 335.73629 
L 574.752811 333.890328 
L 573.698193 332.107066 
L 572.533685 330.393544 
L 571.263881 328.756523 
L 569.893793 327.202463 
L 568.428829 325.737499 
L 566.87477 324.367412 
L 565.237749 323.097608 
L 563.524226 321.933099 
L 561.740965 320.878481 
L 559.895002 319.937916 
L 557.993624 319.115116 
L 556.044333 318.413329 
L 554.054823 317.835323 
L 552.032946 317.38338 
L 549.986681 317.059283 
L 547.924103 316.864312 
L 545.853353 316.799236 
L 543.782603 316.864312 
L 541.720026 317.059283 
L 539.67376 317.38338 
L 537.651883 317.835323 
L 535.662373 318.413329 
L 533.713083 319.115116 
L 531.811704 319.937916 
L 529.965742 320.878481 
L 528.18248 321.933099 
L 526.468958 323.097608 
L 524.831937 324.367412 
L 523.277877 325.737499 
L 521.812913 327.202463 
L 520.442826 328.756523 
L 519.173022 330.393544 
L 518.008513 332.107066 
L 516.953895 333.890328 
L 516.01333 335.73629 
L 515.19053 337.637669 
L 514.488742 339.58696 
L 513.910736 341.576469 
L 513.458793 343.598347 
L 513.134697 345.644612 
L 512.939726 347.707189 
L 512.87465 349.777939 
L 512.939726 351.848689 
L 513.134697 353.911267 
L 513.458793 355.957532 
L 513.910736 357.979409 
L 514.488742 359.968919 
L 515.19053 361.91821 
L 516.01333 363.819588 
L 516.953895 365.665551 
L 518.008513 367.448812 
L 519.173022 369.162335 
L 520.442826 370.799356 
L 521.812913 372.353415 
L 523.277877 373.81838 
L 524.831937 375.188467 
L 526.468958 376.458271 
L 528.18248 377.62278 
L 529.965742 378.677397 
L 531.811704 379.617962 
L 533.713083 380.440762 
L 535.662373 381.14255 
L 537.651883 381.720556 
L 539.67376 382.172499 
L 541.720026 382.496596 
L 543.782603 382.691567 
L 545.853353 382.756643 
L 547.924103 382.691567 
L 549.986681 382.496596 
L 552.032946 382.172499 
L 554.054823 381.720556 
L 556.044333 381.14255 
L 557.993624 380.440762 
L 559.895002 379.617962 
L 561.740965 378.677397 
L 563.524226 377.62278 
L 565.237749 376.458271 
L 566.87477 375.188467 
L 568.428829 373.81838 
L 569.893793 372.353415 
L 571.263881 370.799356 
L 572.533685 369.162335 
L 573.698193 367.448812 
L 574.752811 365.665551 
L 575.693376 363.819588 
L 576.516176 361.91821 
L 577.217964 359.968919 
L 577.79597 357.979409 
L 578.247913 355.957532 
L 578.57201 353.911267 
L 578.766981 351.848689 
L 578.832057 349.777939 
" style="fill: none; stroke: #ffffff; stroke-linecap: square"/>
   </g>
   <g id="line2d_86">
    <path d="M 538.94631 317.530651 
L 545.853353 311.85243 
L 552.760397 317.530651 
" style="fill: none; stroke: #ffffff; stroke-linecap: square"/>
   </g>
   <g id="line2d_87">
    <path d="M 513.072522 346.117303 
L 512.215076 344.66624 
L 511.687417 344.613474 
L 510.902523 344.857517 
L 510.111035 346.117303 
L 510.236354 350.140705 
L 509.774652 355.92517 
L 510.764013 358.438147 
L 512.215076 358.906445 
L 513.600181 357.686232 
" style="fill: none; stroke: #ffffff; stroke-linecap: square"/>
   </g>
   <g id="line2d_88">
    <path d="M 578.634184 346.117303 
L 579.491631 344.66624 
L 580.01929 344.613474 
L 580.804183 344.857517 
L 581.595672 346.117303 
L 581.470353 350.140705 
L 581.932055 355.92517 
L 580.942694 358.438147 
L 579.491631 358.906445 
L 578.106525 357.686232 
" style="fill: none; stroke: #ffffff; stroke-linecap: square"/>
   </g>
  </g>
  <g id="axes_9">
   <g id="patch_22">
    <path d="M 72 484.750927 
L 418.853294 484.750927 
L 418.853294 406.756293 
L 72 406.756293 
L 72 484.750927 
z
" style="fill: none"/>
   </g>
   <g id="matplotlib.axis_9">
    <g id="xtick_17">
     <g id="line2d_89">
      <g>
       <use xlink:href="#md039a5b472" x="92.403135" y="484.750927" style="fill: #ffffff; stroke: #ffffff; stroke-width: 2"/>
      </g>
     </g>
    </g>
    <g id="xtick_18">
     <g id="line2d_90">
      <g>
       <use xlink:href="#md039a5b472" x="194.418809" y="484.750927" style="fill: #ffffff; stroke: #ffffff; stroke-width: 2"/>
      </g>
     </g>
    </g>
    <g id="xtick_19">
     <g id="line2d_91">
      <g>
       <use xlink:href="#md039a5b472" x="296.434484" y="484.750927" style="fill: #ffffff; stroke: #ffffff; stroke-width: 2"/>
      </g>
     </g>
    </g>
    <g id="xtick_20">
     <g id="line2d_92">
      <g>
       <use xlink:href="#md039a5b472" x="398.450159" y="484.750927" style="fill: #ffffff; stroke: #ffffff; stroke-width: 2"/>
      </g>
     </g>
    </g>
   </g>
   <g id="matplotlib.axis_10">
    <g id="ytick_9">
     <g id="line2d_93">
      <g>
       <use xlink:href="#mcd1a149f60" x="72" y="484.750927" style="fill: #ffffff; stroke: #ffffff; stroke-width: 2"/>
      </g>
     </g>
     <g id="text_10">
      <!-- 0.0 -->
      <g style="fill: #ffffff" transform="translate(39.555 490.829677)scale(0.16 -0.16)">
       <use xlink:href="#DejaVuSans-30"/>
       <use xlink:href="#DejaVuSans-2e" x="63.623047"/>
       <use xlink:href="#DejaVuSans-30" x="95.410156"/>
      </g>
     </g>
    </g>
    <g id="ytick_10">
     <g id="line2d_94">
      <g>
       <use xlink:href="#mcd1a149f60" x="72" y="432.754504" style="fill: #ffffff; stroke: #ffffff; stroke-width: 2"/>
      </g>
     </g>
     <g id="text_11">
      <!-- 0.1 -->
      <g style="fill: #ffffff" transform="translate(39.555 438.833254)scale(0.16 -0.16)">
       <use xlink:href="#DejaVuSans-30"/>
       <use xlink:href="#DejaVuSans-2e" x="63.623047"/>
       <use xlink:href="#DejaVuSans-31" x="95.410156"/>
      </g>
     </g>
    </g>
   </g>
   <g id="LineCollection_17">
    <path d="M 92.403135 441.335029 
L 92.403135 414.912001 
" clip-path="url(#p475dcf8558)" style="fill: none; stroke: #1f77b4; stroke-width: 2"/>
   </g>
   <g id="line2d_95">
    <g clip-path="url(#p475dcf8558)">
     <use xlink:href="#m4391b3e631" x="92.403135" y="441.335029" style="fill: #1f77b4; stroke: #1f77b4"/>
    </g>
   </g>
   <g id="line2d_96">
    <g clip-path="url(#p475dcf8558)">
     <use xlink:href="#m4391b3e631" x="92.403135" y="414.912001" style="fill: #1f77b4; stroke: #1f77b4"/>
    </g>
   </g>
   <g id="LineCollection_18">
    <path d="M 194.418809 466.182993 
L 194.418809 452.484822 
" clip-path="url(#p475dcf8558)" style="fill: none; stroke: #ff7f0e; stroke-width: 2"/>
   </g>
   <g id="line2d_97">
    <g clip-path="url(#p475dcf8558)">
     <use xlink:href="#mbce22d0d52" x="194.418809" y="466.182993" style="fill: #ff7f0e; stroke: #ff7f0e"/>
    </g>
   </g>
   <g id="line2d_98">
    <g clip-path="url(#p475dcf8558)">
     <use xlink:href="#mbce22d0d52" x="194.418809" y="452.484822" style="fill: #ff7f0e; stroke: #ff7f0e"/>
    </g>
   </g>
   <g id="LineCollection_19">
    <path d="M 296.434484 463.923557 
L 296.434484 444.253031 
" clip-path="url(#p475dcf8558)" style="fill: none; stroke: #2ca02c; stroke-width: 2"/>
   </g>
   <g id="line2d_99">
    <g clip-path="url(#p475dcf8558)">
     <use xlink:href="#mac5021e6e0" x="296.434484" y="463.923557" style="fill: #2ca02c; stroke: #2ca02c"/>
    </g>
   </g>
   <g id="line2d_100">
    <g clip-path="url(#p475dcf8558)">
     <use xlink:href="#mac5021e6e0" x="296.434484" y="444.253031" style="fill: #2ca02c; stroke: #2ca02c"/>
    </g>
   </g>
   <g id="LineCollection_20">
    <path d="M 398.450159 456.323414 
L 398.450159 433.226331 
" clip-path="url(#p475dcf8558)" style="fill: none; stroke: #d62728; stroke-width: 2"/>
   </g>
   <g id="line2d_101">
    <g clip-path="url(#p475dcf8558)">
     <use xlink:href="#m366e60d2a4" x="398.450159" y="456.323414" style="fill: #d62728; stroke: #d62728"/>
    </g>
   </g>
   <g id="line2d_102">
    <g clip-path="url(#p475dcf8558)">
     <use xlink:href="#m366e60d2a4" x="398.450159" y="433.226331" style="fill: #d62728; stroke: #d62728"/>
    </g>
   </g>
   <g id="line2d_103">
    <g clip-path="url(#p475dcf8558)">
     <use xlink:href="#mba63fdaf48" x="92.403135" y="428.123515" style="fill: #1f77b4; stroke: #1f77b4"/>
    </g>
   </g>
   <g id="line2d_104">
    <g clip-path="url(#p475dcf8558)">
     <use xlink:href="#mc442427952" x="194.418809" y="459.333908" style="fill: #ff7f0e; stroke: #ff7f0e"/>
    </g>
   </g>
   <g id="line2d_105">
    <g clip-path="url(#p475dcf8558)">
     <use xlink:href="#mb3d3e8479a" x="296.434484" y="454.088294" style="fill: #2ca02c; stroke: #2ca02c"/>
    </g>
   </g>
   <g id="line2d_106">
    <g clip-path="url(#p475dcf8558)">
     <use xlink:href="#m2aec7a40dd" x="398.450159" y="444.774873" style="fill: #d62728; stroke: #d62728"/>
    </g>
   </g>
   <g id="patch_23">
    <path d="M 72 484.750927 
L 72 406.756293 
" style="fill: none; stroke: #ffffff; stroke-width: 2; stroke-linejoin: miter; stroke-linecap: square"/>
   </g>
   <g id="patch_24">
    <path d="M 418.853294 484.750927 
L 418.853294 406.756293 
" style="fill: none; stroke: #ffffff; stroke-width: 2; stroke-linejoin: miter; stroke-linecap: square"/>
   </g>
   <g id="patch_25">
    <path d="M 72 484.750927 
L 418.853294 484.750927 
" style="fill: none; stroke: #ffffff; stroke-width: 2; stroke-linejoin: miter; stroke-linecap: square"/>
   </g>
   <g id="patch_26">
    <path d="M 72 406.756293 
L 418.853294 406.756293 
" style="fill: none; stroke: #ffffff; stroke-width: 2; stroke-linejoin: miter; stroke-linecap: square"/>
   </g>
  </g>
  <g id="axes_10">
   <g id="PathCollection_5">
    <defs>
     <path id="meef2db2820" d="M 0 2.5 
C 0.663008 2.5 1.29895 2.236584 1.767767 1.767767 
C 2.236584 1.29895 2.5 0.663008 2.5 0 
C 2.5 -0.663008 2.236584 -1.29895 1.767767 -1.767767 
C 1.29895 -2.236584 0.663008 -2.5 0 -2.5 
C -0.663008 -2.5 -1.29895 -2.236584 -1.767767 -1.767767 
C -2.236584 -1.29895 -2.5 -0.663008 -2.5 0 
C -2.5 0.663008 -2.236584 1.29895 -1.767767 1.767767 
C -1.29895 2.236584 -0.663008 2.5 0 2.5 
z
" style="stroke: #ff0000; stroke-width: 2"/>
    </defs>
    <g>
     <use xlink:href="#meef2db2820" x="559.243201" y="421.540868" style="fill: #ff0000; stroke: #ff0000; stroke-width: 2"/>
    </g>
   </g>
   <g id="line2d_107">
    <path d="M 578.832057 448.227013 
L 578.766981 446.156263 
L 578.57201 444.093685 
L 578.247913 442.04742 
L 577.79597 440.025543 
L 577.217964 438.036033 
L 576.516176 436.086742 
L 575.693376 434.185364 
L 574.752811 432.339401 
L 573.698193 430.55614 
L 572.533685 428.842617 
L 571.263881 427.205596 
L 569.893793 425.651537 
L 568.428829 424.186573 
L 566.87477 422.816485 
L 565.237749 421.546681 
L 563.524226 420.382172 
L 561.740965 419.327555 
L 559.895002 418.38699 
L 557.993624 417.56419 
L 556.044333 416.862402 
L 554.054823 416.284396 
L 552.032946 415.832453 
L 549.986681 415.508356 
L 547.924103 415.313385 
L 545.853353 415.248309 
L 543.782603 415.313385 
L 541.720026 415.508356 
L 539.67376 415.832453 
L 537.651883 416.284396 
L 535.662373 416.862402 
L 533.713083 417.56419 
L 531.811704 418.38699 
L 529.965742 419.327555 
L 528.18248 420.382172 
L 526.468958 421.546681 
L 524.831937 422.816485 
L 523.277877 424.186573 
L 521.812913 425.651537 
L 520.442826 427.205596 
L 519.173022 428.842617 
L 518.008513 430.55614 
L 516.953895 432.339401 
L 516.01333 434.185364 
L 515.19053 436.086742 
L 514.488742 438.036033 
L 513.910736 440.025543 
L 513.458793 442.04742 
L 513.134697 444.093685 
L 512.939726 446.156263 
L 512.87465 448.227013 
L 512.939726 450.297763 
L 513.134697 452.36034 
L 513.458793 454.406605 
L 513.910736 456.428483 
L 514.488742 458.417992 
L 515.19053 460.367283 
L 516.01333 462.268662 
L 516.953895 464.114624 
L 518.008513 465.897886 
L 519.173022 467.611408 
L 520.442826 469.248429 
L 521.812913 470.802489 
L 523.277877 472.267453 
L 524.831937 473.63754 
L 526.468958 474.907344 
L 528.18248 476.071853 
L 529.965742 477.126471 
L 531.811704 478.067036 
L 533.713083 478.889836 
L 535.662373 479.591623 
L 537.651883 480.169629 
L 539.67376 480.621573 
L 541.720026 480.945669 
L 543.782603 481.14064 
L 545.853353 481.205716 
L 547.924103 481.14064 
L 549.986681 480.945669 
L 552.032946 480.621573 
L 554.054823 480.169629 
L 556.044333 479.591623 
L 557.993624 478.889836 
L 559.895002 478.067036 
L 561.740965 477.126471 
L 563.524226 476.071853 
L 565.237749 474.907344 
L 566.87477 473.63754 
L 568.428829 472.267453 
L 569.893793 470.802489 
L 571.263881 469.248429 
L 572.533685 467.611408 
L 573.698193 465.897886 
L 574.752811 464.114624 
L 575.693376 462.268662 
L 576.516176 460.367283 
L 577.217964 458.417992 
L 577.79597 456.428483 
L 578.247913 454.406605 
L 578.57201 452.36034 
L 578.766981 450.297763 
L 578.832057 448.227013 
" style="fill: none; stroke: #ffffff; stroke-linecap: square"/>
   </g>
   <g id="line2d_108">
    <path d="M 538.94631 415.979724 
L 545.853353 410.301504 
L 552.760397 415.979724 
" style="fill: none; stroke: #ffffff; stroke-linecap: square"/>
   </g>
   <g id="line2d_109">
    <path d="M 513.072522 444.566377 
L 512.215076 443.115314 
L 511.687417 443.062548 
L 510.902523 443.30659 
L 510.111035 444.566377 
L 510.236354 448.589778 
L 509.774652 454.374243 
L 510.764013 456.88722 
L 512.215076 457.355518 
L 513.600181 456.135306 
" style="fill: none; stroke: #ffffff; stroke-linecap: square"/>
   </g>
   <g id="line2d_110">
    <path d="M 578.634184 444.566377 
L 579.491631 443.115314 
L 580.01929 443.062548 
L 580.804183 443.30659 
L 581.595672 444.566377 
L 581.470353 448.589778 
L 581.932055 454.374243 
L 580.942694 456.88722 
L 579.491631 457.355518 
L 578.106525 456.135306 
" style="fill: none; stroke: #ffffff; stroke-linecap: square"/>
   </g>
  </g>
  <g id="axes_11">
   <g id="patch_27">
    <path d="M 72 583.2 
L 418.853294 583.2 
L 418.853294 505.205366 
L 72 505.205366 
L 72 583.2 
z
" style="fill: none"/>
   </g>
   <g id="matplotlib.axis_11">
    <g id="xtick_21">
     <g id="line2d_111">
      <g>
       <use xlink:href="#md039a5b472" x="92.403135" y="583.2" style="fill: #ffffff; stroke: #ffffff; stroke-width: 2"/>
      </g>
     </g>
     <g id="text_12">
      <!-- Small -->
      <g style="fill: #ffffff" transform="translate(67.407041 603.877188)scale(0.18 -0.18)">
       <defs>
        <path id="DejaVuSans-53" d="M 3425 4513 
L 3425 3897 
Q 3066 4069 2747 4153 
Q 2428 4238 2131 4238 
Q 1616 4238 1336 4038 
Q 1056 3838 1056 3469 
Q 1056 3159 1242 3001 
Q 1428 2844 1947 2747 
L 2328 2669 
Q 3034 2534 3370 2195 
Q 3706 1856 3706 1288 
Q 3706 609 3251 259 
Q 2797 -91 1919 -91 
Q 1588 -91 1214 -16 
Q 841 59 441 206 
L 441 856 
Q 825 641 1194 531 
Q 1563 422 1919 422 
Q 2459 422 2753 634 
Q 3047 847 3047 1241 
Q 3047 1584 2836 1778 
Q 2625 1972 2144 2069 
L 1759 2144 
Q 1053 2284 737 2584 
Q 422 2884 422 3419 
Q 422 4038 858 4394 
Q 1294 4750 2059 4750 
Q 2388 4750 2728 4690 
Q 3069 4631 3425 4513 
z
" transform="scale(0.015625)"/>
        <path id="DejaVuSans-6c" d="M 603 4863 
L 1178 4863 
L 1178 0 
L 603 0 
L 603 4863 
z
" transform="scale(0.015625)"/>
       </defs>
       <use xlink:href="#DejaVuSans-53"/>
       <use xlink:href="#DejaVuSans-6d" x="63.476562"/>
       <use xlink:href="#DejaVuSans-61" x="160.888672"/>
       <use xlink:href="#DejaVuSans-6c" x="222.167969"/>
       <use xlink:href="#DejaVuSans-6c" x="249.951172"/>
      </g>
      <!--  ITD -->
      <g style="fill: #ffffff" transform="translate(74.460791 624.03325)scale(0.18 -0.18)">
       <defs>
        <path id="DejaVuSans-49" d="M 628 4666 
L 1259 4666 
L 1259 0 
L 628 0 
L 628 4666 
z
" transform="scale(0.015625)"/>
        <path id="DejaVuSans-54" d="M -19 4666 
L 3928 4666 
L 3928 4134 
L 2272 4134 
L 2272 0 
L 1638 0 
L 1638 4134 
L -19 4134 
L -19 4666 
z
" transform="scale(0.015625)"/>
        <path id="DejaVuSans-44" d="M 1259 4147 
L 1259 519 
L 2022 519 
Q 2988 519 3436 956 
Q 3884 1394 3884 2338 
Q 3884 3275 3436 3711 
Q 2988 4147 2022 4147 
L 1259 4147 
z
M 628 4666 
L 1925 4666 
Q 3281 4666 3915 4102 
Q 4550 3538 4550 2338 
Q 4550 1131 3912 565 
Q 3275 0 1925 0 
L 628 0 
L 628 4666 
z
" transform="scale(0.015625)"/>
       </defs>
       <use xlink:href="#DejaVuSans-20"/>
       <use xlink:href="#DejaVuSans-49" x="31.787109"/>
       <use xlink:href="#DejaVuSans-54" x="61.279297"/>
       <use xlink:href="#DejaVuSans-44" x="122.363281"/>
      </g>
     </g>
    </g>
    <g id="xtick_22">
     <g id="line2d_112">
      <g>
       <use xlink:href="#md039a5b472" x="194.418809" y="583.2" style="fill: #ffffff; stroke: #ffffff; stroke-width: 2"/>
      </g>
     </g>
     <g id="text_13">
      <!-- Large -->
      <g style="fill: #ffffff" transform="translate(169.095059 603.877188)scale(0.18 -0.18)">
       <defs>
        <path id="DejaVuSans-4c" d="M 628 4666 
L 1259 4666 
L 1259 531 
L 3531 531 
L 3531 0 
L 628 0 
L 628 4666 
z
" transform="scale(0.015625)"/>
       </defs>
       <use xlink:href="#DejaVuSans-4c"/>
       <use xlink:href="#DejaVuSans-61" x="55.712891"/>
       <use xlink:href="#DejaVuSans-72" x="116.992188"/>
       <use xlink:href="#DejaVuSans-67" x="156.355469"/>
       <use xlink:href="#DejaVuSans-65" x="219.832031"/>
      </g>
      <!--  ITD -->
      <g style="fill: #ffffff" transform="translate(176.476466 624.03325)scale(0.18 -0.18)">
       <use xlink:href="#DejaVuSans-20"/>
       <use xlink:href="#DejaVuSans-49" x="31.787109"/>
       <use xlink:href="#DejaVuSans-54" x="61.279297"/>
       <use xlink:href="#DejaVuSans-44" x="122.363281"/>
      </g>
     </g>
    </g>
    <g id="xtick_23">
     <g id="line2d_113">
      <g>
       <use xlink:href="#md039a5b472" x="296.434484" y="583.2" style="fill: #ffffff; stroke: #ffffff; stroke-width: 2"/>
      </g>
     </g>
     <g id="text_14">
      <!-- Natural -->
      <g style="fill: #ffffff" transform="translate(263.238547 603.877188)scale(0.18 -0.18)">
       <defs>
        <path id="DejaVuSans-4e" d="M 628 4666 
L 1478 4666 
L 3547 763 
L 3547 4666 
L 4159 4666 
L 4159 0 
L 3309 0 
L 1241 3903 
L 1241 0 
L 628 0 
L 628 4666 
z
" transform="scale(0.015625)"/>
       </defs>
       <use xlink:href="#DejaVuSans-4e"/>
       <use xlink:href="#DejaVuSans-61" x="74.804688"/>
       <use xlink:href="#DejaVuSans-74" x="136.083984"/>
       <use xlink:href="#DejaVuSans-75" x="175.292969"/>
       <use xlink:href="#DejaVuSans-72" x="238.671875"/>
       <use xlink:href="#DejaVuSans-61" x="279.785156"/>
       <use xlink:href="#DejaVuSans-6c" x="341.064453"/>
      </g>
      <!--  ILD -->
      <g style="fill: #ffffff" transform="translate(278.974484 624.03325)scale(0.18 -0.18)">
       <use xlink:href="#DejaVuSans-20"/>
       <use xlink:href="#DejaVuSans-49" x="31.787109"/>
       <use xlink:href="#DejaVuSans-4c" x="61.279297"/>
       <use xlink:href="#DejaVuSans-44" x="116.992188"/>
      </g>
     </g>
    </g>
    <g id="xtick_24">
     <g id="line2d_114">
      <g>
       <use xlink:href="#md039a5b472" x="398.450159" y="583.2" style="fill: #ffffff; stroke: #ffffff; stroke-width: 2"/>
      </g>
     </g>
     <g id="text_15">
      <!-- Broadband -->
      <g style="fill: #ffffff" transform="translate(349.39594 603.877188)scale(0.18 -0.18)">
       <defs>
        <path id="DejaVuSans-42" d="M 1259 2228 
L 1259 519 
L 2272 519 
Q 2781 519 3026 730 
Q 3272 941 3272 1375 
Q 3272 1813 3026 2020 
Q 2781 2228 2272 2228 
L 1259 2228 
z
M 1259 4147 
L 1259 2741 
L 2194 2741 
Q 2656 2741 2882 2914 
Q 3109 3088 3109 3444 
Q 3109 3797 2882 3972 
Q 2656 4147 2194 4147 
L 1259 4147 
z
M 628 4666 
L 2241 4666 
Q 2963 4666 3353 4366 
Q 3744 4066 3744 3513 
Q 3744 3084 3544 2831 
Q 3344 2578 2956 2516 
Q 3422 2416 3680 2098 
Q 3938 1781 3938 1306 
Q 3938 681 3513 340 
Q 3088 0 2303 0 
L 628 0 
L 628 4666 
z
" transform="scale(0.015625)"/>
        <path id="DejaVuSans-6f" d="M 1959 3097 
Q 1497 3097 1228 2736 
Q 959 2375 959 1747 
Q 959 1119 1226 758 
Q 1494 397 1959 397 
Q 2419 397 2687 759 
Q 2956 1122 2956 1747 
Q 2956 2369 2687 2733 
Q 2419 3097 1959 3097 
z
M 1959 3584 
Q 2709 3584 3137 3096 
Q 3566 2609 3566 1747 
Q 3566 888 3137 398 
Q 2709 -91 1959 -91 
Q 1206 -91 779 398 
Q 353 888 353 1747 
Q 353 2609 779 3096 
Q 1206 3584 1959 3584 
z
" transform="scale(0.015625)"/>
       </defs>
       <use xlink:href="#DejaVuSans-42"/>
       <use xlink:href="#DejaVuSans-72" x="68.603516"/>
       <use xlink:href="#DejaVuSans-6f" x="107.466797"/>
       <use xlink:href="#DejaVuSans-61" x="168.648438"/>
       <use xlink:href="#DejaVuSans-64" x="229.927734"/>
       <use xlink:href="#DejaVuSans-62" x="293.404297"/>
       <use xlink:href="#DejaVuSans-61" x="356.880859"/>
       <use xlink:href="#DejaVuSans-6e" x="418.160156"/>
       <use xlink:href="#DejaVuSans-64" x="481.539062"/>
      </g>
      <!--  ILD -->
      <g style="fill: #ffffff" transform="translate(380.990159 624.03325)scale(0.18 -0.18)">
       <use xlink:href="#DejaVuSans-20"/>
       <use xlink:href="#DejaVuSans-49" x="31.787109"/>
       <use xlink:href="#DejaVuSans-4c" x="61.279297"/>
       <use xlink:href="#DejaVuSans-44" x="116.992188"/>
      </g>
     </g>
    </g>
   </g>
   <g id="matplotlib.axis_12">
    <g id="ytick_11">
     <g id="line2d_115">
      <g>
       <use xlink:href="#mcd1a149f60" x="72" y="583.2" style="fill: #ffffff; stroke: #ffffff; stroke-width: 2"/>
      </g>
     </g>
     <g id="text_16">
      <!-- 0.0 -->
      <g style="fill: #ffffff" transform="translate(39.555 589.27875)scale(0.16 -0.16)">
       <use xlink:href="#DejaVuSans-30"/>
       <use xlink:href="#DejaVuSans-2e" x="63.623047"/>
       <use xlink:href="#DejaVuSans-30" x="95.410156"/>
      </g>
     </g>
    </g>
    <g id="ytick_12">
     <g id="line2d_116">
      <g>
       <use xlink:href="#mcd1a149f60" x="72" y="531.203578" style="fill: #ffffff; stroke: #ffffff; stroke-width: 2"/>
      </g>
     </g>
     <g id="text_17">
      <!-- 0.1 -->
      <g style="fill: #ffffff" transform="translate(39.555 537.282328)scale(0.16 -0.16)">
       <use xlink:href="#DejaVuSans-30"/>
       <use xlink:href="#DejaVuSans-2e" x="63.623047"/>
       <use xlink:href="#DejaVuSans-31" x="95.410156"/>
      </g>
     </g>
    </g>
   </g>
   <g id="LineCollection_21">
    <path d="M 92.403135 566.458319 
L 92.403135 541.175083 
" clip-path="url(#pd43a211f66)" style="fill: none; stroke: #1f77b4; stroke-width: 2"/>
   </g>
   <g id="line2d_117">
    <g clip-path="url(#pd43a211f66)">
     <use xlink:href="#m4391b3e631" x="92.403135" y="566.458319" style="fill: #1f77b4; stroke: #1f77b4"/>
    </g>
   </g>
   <g id="line2d_118">
    <g clip-path="url(#pd43a211f66)">
     <use xlink:href="#m4391b3e631" x="92.403135" y="541.175083" style="fill: #1f77b4; stroke: #1f77b4"/>
    </g>
   </g>
   <g id="LineCollection_22">
    <path d="M 194.418809 571.547089 
L 194.418809 556.717757 
" clip-path="url(#pd43a211f66)" style="fill: none; stroke: #ff7f0e; stroke-width: 2"/>
   </g>
   <g id="line2d_119">
    <g clip-path="url(#pd43a211f66)">
     <use xlink:href="#mbce22d0d52" x="194.418809" y="571.547089" style="fill: #ff7f0e; stroke: #ff7f0e"/>
    </g>
   </g>
   <g id="line2d_120">
    <g clip-path="url(#pd43a211f66)">
     <use xlink:href="#mbce22d0d52" x="194.418809" y="556.717757" style="fill: #ff7f0e; stroke: #ff7f0e"/>
    </g>
   </g>
   <g id="LineCollection_23">
    <path d="M 296.434484 570.366261 
L 296.434484 551.701124 
" clip-path="url(#pd43a211f66)" style="fill: none; stroke: #2ca02c; stroke-width: 2"/>
   </g>
   <g id="line2d_121">
    <g clip-path="url(#pd43a211f66)">
     <use xlink:href="#mac5021e6e0" x="296.434484" y="570.366261" style="fill: #2ca02c; stroke: #2ca02c"/>
    </g>
   </g>
   <g id="line2d_122">
    <g clip-path="url(#pd43a211f66)">
     <use xlink:href="#mac5021e6e0" x="296.434484" y="551.701124" style="fill: #2ca02c; stroke: #2ca02c"/>
    </g>
   </g>
   <g id="LineCollection_24">
    <path d="M 398.450159 579.360048 
L 398.450159 555.892898 
" clip-path="url(#pd43a211f66)" style="fill: none; stroke: #d62728; stroke-width: 2"/>
   </g>
   <g id="line2d_123">
    <g clip-path="url(#pd43a211f66)">
     <use xlink:href="#m366e60d2a4" x="398.450159" y="579.360048" style="fill: #d62728; stroke: #d62728"/>
    </g>
   </g>
   <g id="line2d_124">
    <g clip-path="url(#pd43a211f66)">
     <use xlink:href="#m366e60d2a4" x="398.450159" y="555.892898" style="fill: #d62728; stroke: #d62728"/>
    </g>
   </g>
   <g id="line2d_125">
    <g clip-path="url(#pd43a211f66)">
     <use xlink:href="#mba63fdaf48" x="92.403135" y="553.816701" style="fill: #1f77b4; stroke: #1f77b4"/>
    </g>
   </g>
   <g id="line2d_126">
    <g clip-path="url(#pd43a211f66)">
     <use xlink:href="#mc442427952" x="194.418809" y="564.132423" style="fill: #ff7f0e; stroke: #ff7f0e"/>
    </g>
   </g>
   <g id="line2d_127">
    <g clip-path="url(#pd43a211f66)">
     <use xlink:href="#mb3d3e8479a" x="296.434484" y="561.033692" style="fill: #2ca02c; stroke: #2ca02c"/>
    </g>
   </g>
   <g id="line2d_128">
    <g clip-path="url(#pd43a211f66)">
     <use xlink:href="#m2aec7a40dd" x="398.450159" y="567.626473" style="fill: #d62728; stroke: #d62728"/>
    </g>
   </g>
   <g id="patch_28">
    <path d="M 72 583.2 
L 72 505.205366 
" style="fill: none; stroke: #ffffff; stroke-width: 2; stroke-linejoin: miter; stroke-linecap: square"/>
   </g>
   <g id="patch_29">
    <path d="M 418.853294 583.2 
L 418.853294 505.205366 
" style="fill: none; stroke: #ffffff; stroke-width: 2; stroke-linejoin: miter; stroke-linecap: square"/>
   </g>
   <g id="patch_30">
    <path d="M 72 583.2 
L 418.853294 583.2 
" style="fill: none; stroke: #ffffff; stroke-width: 2; stroke-linejoin: miter; stroke-linecap: square"/>
   </g>
   <g id="patch_31">
    <path d="M 72 505.205366 
L 418.853294 505.205366 
" style="fill: none; stroke: #ffffff; stroke-width: 2; stroke-linejoin: miter; stroke-linecap: square"/>
   </g>
  </g>
  <g id="axes_12">
   <g id="PathCollection_6">
    <g>
     <use xlink:href="#m46bc39a689" x="562.82259" y="520.089198" style="fill: #aa3377; stroke: #ffffff; stroke-width: 2"/>
    </g>
   </g>
   <g id="line2d_129">
    <path d="M 578.832057 546.676086 
L 578.766981 544.605336 
L 578.57201 542.542758 
L 578.247913 540.496493 
L 577.79597 538.474616 
L 577.217964 536.485106 
L 576.516176 534.535816 
L 575.693376 532.634437 
L 574.752811 530.788474 
L 573.698193 529.005213 
L 572.533685 527.29169 
L 571.263881 525.654669 
L 569.893793 524.10061 
L 568.428829 522.635646 
L 566.87477 521.265558 
L 565.237749 519.995754 
L 563.524226 518.831246 
L 561.740965 517.776628 
L 559.895002 516.836063 
L 557.993624 516.013263 
L 556.044333 515.311475 
L 554.054823 514.733469 
L 552.032946 514.281526 
L 549.986681 513.95743 
L 547.924103 513.762459 
L 545.853353 513.697383 
L 543.782603 513.762459 
L 541.720026 513.95743 
L 539.67376 514.281526 
L 537.651883 514.733469 
L 535.662373 515.311475 
L 533.713083 516.013263 
L 531.811704 516.836063 
L 529.965742 517.776628 
L 528.18248 518.831246 
L 526.468958 519.995754 
L 524.831937 521.265558 
L 523.277877 522.635646 
L 521.812913 524.10061 
L 520.442826 525.654669 
L 519.173022 527.29169 
L 518.008513 529.005213 
L 516.953895 530.788474 
L 516.01333 532.634437 
L 515.19053 534.535816 
L 514.488742 536.485106 
L 513.910736 538.474616 
L 513.458793 540.496493 
L 513.134697 542.542758 
L 512.939726 544.605336 
L 512.87465 546.676086 
L 512.939726 548.746836 
L 513.134697 550.809414 
L 513.458793 552.855679 
L 513.910736 554.877556 
L 514.488742 556.867066 
L 515.19053 558.816356 
L 516.01333 560.717735 
L 516.953895 562.563698 
L 518.008513 564.346959 
L 519.173022 566.060481 
L 520.442826 567.697503 
L 521.812913 569.251562 
L 523.277877 570.716526 
L 524.831937 572.086614 
L 526.468958 573.356417 
L 528.18248 574.520926 
L 529.965742 575.575544 
L 531.811704 576.516109 
L 533.713083 577.338909 
L 535.662373 578.040697 
L 537.651883 578.618703 
L 539.67376 579.070646 
L 541.720026 579.394742 
L 543.782603 579.589713 
L 545.853353 579.654789 
L 547.924103 579.589713 
L 549.986681 579.394742 
L 552.032946 579.070646 
L 554.054823 578.618703 
L 556.044333 578.040697 
L 557.993624 577.338909 
L 559.895002 576.516109 
L 561.740965 575.575544 
L 563.524226 574.520926 
L 565.237749 573.356417 
L 566.87477 572.086614 
L 568.428829 570.716526 
L 569.893793 569.251562 
L 571.263881 567.697503 
L 572.533685 566.060481 
L 573.698193 564.346959 
L 574.752811 562.563698 
L 575.693376 560.717735 
L 576.516176 558.816356 
L 577.217964 556.867066 
L 577.79597 554.877556 
L 578.247913 552.855679 
L 578.57201 550.809414 
L 578.766981 548.746836 
L 578.832057 546.676086 
" style="fill: none; stroke: #ffffff; stroke-linecap: square"/>
   </g>
   <g id="line2d_130">
    <path d="M 538.94631 514.428797 
L 545.853353 508.750577 
L 552.760397 514.428797 
" style="fill: none; stroke: #ffffff; stroke-linecap: square"/>
   </g>
   <g id="line2d_131">
    <path d="M 513.072522 543.01545 
L 512.215076 541.564387 
L 511.687417 541.511621 
L 510.902523 541.755663 
L 510.111035 543.01545 
L 510.236354 547.038852 
L 509.774652 552.823316 
L 510.764013 555.336293 
L 512.215076 555.804591 
L 513.600181 554.584379 
" style="fill: none; stroke: #ffffff; stroke-linecap: square"/>
   </g>
   <g id="line2d_132">
    <path d="M 578.634184 543.01545 
L 579.491631 541.564387 
L 580.01929 541.511621 
L 580.804183 541.755663 
L 581.595672 543.01545 
L 581.470353 547.038852 
L 581.932055 552.823316 
L 580.942694 555.336293 
L 579.491631 555.804591 
L 578.106525 554.584379 
" style="fill: none; stroke: #ffffff; stroke-linecap: square"/>
   </g>
  </g>
 </g>
 <defs>
  <clipPath id="p867e014db6">
   <rect x="72" y="12.96" width="346.853294" height="77.994634"/>
  </clipPath>
  <clipPath id="p9e75ed2ca3">
   <rect x="72" y="111.409073" width="346.853294" height="77.994634"/>
  </clipPath>
  <clipPath id="p264adf7d7b">
   <rect x="72" y="209.858147" width="346.853294" height="77.994634"/>
  </clipPath>
  <clipPath id="p3c91013ab8">
   <rect x="72" y="308.30722" width="346.853294" height="77.994634"/>
  </clipPath>
  <clipPath id="p475dcf8558">
   <rect x="72" y="406.756293" width="346.853294" height="77.994634"/>
  </clipPath>
  <clipPath id="pd43a211f66">
   <rect x="72" y="505.205366" width="346.853294" height="77.994634"/>
  </clipPath>
 </defs>
</svg>
