<?xml version="1.0" encoding="utf-8" standalone="no"?>
<!DOCTYPE svg PUBLIC "-//W3C//DTD SVG 1.1//EN"
  "http://www.w3.org/Graphics/SVG/1.1/DTD/svg11.dtd">
<svg xmlns:xlink="http://www.w3.org/1999/xlink" width="720pt" height="648pt" viewBox="0 0 720 648" xmlns="http://www.w3.org/2000/svg" version="1.1">
 <metadata>
  <rdf:RDF xmlns:dc="http://purl.org/dc/elements/1.1/" xmlns:cc="http://creativecommons.org/ns#" xmlns:rdf="http://www.w3.org/1999/02/22-rdf-syntax-ns#">
   <cc:Work>
    <dc:type rdf:resource="http://purl.org/dc/dcmitype/StillImage"/>
    <dc:date>2024-11-26T16:05:33.644934</dc:date>
    <dc:format>image/svg+xml</dc:format>
    <dc:creator>
     <cc:Agent>
      <dc:title>Matplotlib v3.5.3, https://matplotlib.org/</dc:title>
     </cc:Agent>
    </dc:creator>
   </cc:Work>
  </rdf:RDF>
 </metadata>
 <defs>
  <style type="text/css">*{stroke-linejoin: round; stroke-linecap: butt}</style>
 </defs>
 <g id="figure_1">
  <g id="patch_1">
   <path d="M 0 648 
L 720 648 
L 720 0 
L 0 0 
L 0 648 
z
" style="fill: none"/>
  </g>
  <g id="axes_1">
   <g id="patch_2">
    <path d="M 72 67.335981 
L 438.892103 67.335981 
L 438.892103 12.96 
L 72 12.96 
L 72 67.335981 
z
" style="fill: none"/>
   </g>
   <g id="matplotlib.axis_1">
    <g id="xtick_1">
     <g id="line2d_1">
      <defs>
       <path id="mff191dd177" d="M 0 0 
L 0 3.5 
" style="stroke: #ffffff; stroke-width: 2"/>
      </defs>
      <g>
       <use xlink:href="#mff191dd177" x="93.581888" y="67.335981" style="fill: #ffffff; stroke: #ffffff; stroke-width: 2"/>
      </g>
     </g>
    </g>
    <g id="xtick_2">
     <g id="line2d_2">
      <g>
       <use xlink:href="#mff191dd177" x="201.491331" y="67.335981" style="fill: #ffffff; stroke: #ffffff; stroke-width: 2"/>
      </g>
     </g>
    </g>
    <g id="xtick_3">
     <g id="line2d_3">
      <g>
       <use xlink:href="#mff191dd177" x="309.400773" y="67.335981" style="fill: #ffffff; stroke: #ffffff; stroke-width: 2"/>
      </g>
     </g>
    </g>
    <g id="xtick_4">
     <g id="line2d_4">
      <g>
       <use xlink:href="#mff191dd177" x="417.310215" y="67.335981" style="fill: #ffffff; stroke: #ffffff; stroke-width: 2"/>
      </g>
     </g>
    </g>
   </g>
   <g id="matplotlib.axis_2">
    <g id="ytick_1">
     <g id="line2d_5">
      <defs>
       <path id="m2316730be0" d="M 0 0 
L -3.5 0 
" style="stroke: #ffffff; stroke-width: 2"/>
      </defs>
      <g>
       <use xlink:href="#m2316730be0" x="72" y="67.335981" style="fill: #ffffff; stroke: #ffffff; stroke-width: 2"/>
      </g>
     </g>
     <g id="text_1">
      <!-- 0.0 -->
      <g style="fill: #ffffff" transform="translate(39.555 73.414731)scale(0.16 -0.16)">
       <defs>
        <path id="DejaVuSans-30" d="M 2034 4250 
Q 1547 4250 1301 3770 
Q 1056 3291 1056 2328 
Q 1056 1369 1301 889 
Q 1547 409 2034 409 
Q 2525 409 2770 889 
Q 3016 1369 3016 2328 
Q 3016 3291 2770 3770 
Q 2525 4250 2034 4250 
z
M 2034 4750 
Q 2819 4750 3233 4129 
Q 3647 3509 3647 2328 
Q 3647 1150 3233 529 
Q 2819 -91 2034 -91 
Q 1250 -91 836 529 
Q 422 1150 422 2328 
Q 422 3509 836 4129 
Q 1250 4750 2034 4750 
z
" transform="scale(0.015625)"/>
        <path id="DejaVuSans-2e" d="M 684 794 
L 1344 794 
L 1344 0 
L 684 0 
L 684 794 
z
" transform="scale(0.015625)"/>
       </defs>
       <use xlink:href="#DejaVuSans-30"/>
       <use xlink:href="#DejaVuSans-2e" x="63.623047"/>
       <use xlink:href="#DejaVuSans-30" x="95.410156"/>
      </g>
     </g>
    </g>
    <g id="ytick_2">
     <g id="line2d_6">
      <g>
       <use xlink:href="#m2316730be0" x="72" y="31.085327" style="fill: #ffffff; stroke: #ffffff; stroke-width: 2"/>
      </g>
     </g>
     <g id="text_2">
      <!-- 0.1 -->
      <g style="fill: #ffffff" transform="translate(39.555 37.164077)scale(0.16 -0.16)">
       <defs>
        <path id="DejaVuSans-31" d="M 794 531 
L 1825 531 
L 1825 4091 
L 703 3866 
L 703 4441 
L 1819 4666 
L 2450 4666 
L 2450 531 
L 3481 531 
L 3481 0 
L 794 0 
L 794 531 
z
" transform="scale(0.015625)"/>
       </defs>
       <use xlink:href="#DejaVuSans-30"/>
       <use xlink:href="#DejaVuSans-2e" x="63.623047"/>
       <use xlink:href="#DejaVuSans-31" x="95.410156"/>
      </g>
     </g>
    </g>
   </g>
   <g id="LineCollection_1">
    <path d="M 93.581888 58.715412 
L 93.581888 42.086133 
" clip-path="url(#p7f8c88c81c)" style="fill: none; stroke: #1f77b4; stroke-width: 2"/>
   </g>
   <g id="line2d_7">
    <defs>
     <path id="m054de0ed10" d="M 5 0 
L -5 -0 
" style="stroke: #1f77b4"/>
    </defs>
    <g clip-path="url(#p7f8c88c81c)">
     <use xlink:href="#m054de0ed10" x="93.581888" y="58.715412" style="fill: #1f77b4; stroke: #1f77b4"/>
    </g>
   </g>
   <g id="line2d_8">
    <g clip-path="url(#p7f8c88c81c)">
     <use xlink:href="#m054de0ed10" x="93.581888" y="42.086133" style="fill: #1f77b4; stroke: #1f77b4"/>
    </g>
   </g>
   <g id="LineCollection_2">
    <path d="M 201.491331 62.356115 
L 201.491331 50.598952 
" clip-path="url(#p7f8c88c81c)" style="fill: none; stroke: #ff7f0e; stroke-width: 2"/>
   </g>
   <g id="line2d_9">
    <defs>
     <path id="m91a12e198a" d="M 5 0 
L -5 -0 
" style="stroke: #ff7f0e"/>
    </defs>
    <g clip-path="url(#p7f8c88c81c)">
     <use xlink:href="#m91a12e198a" x="201.491331" y="62.356115" style="fill: #ff7f0e; stroke: #ff7f0e"/>
    </g>
   </g>
   <g id="line2d_10">
    <g clip-path="url(#p7f8c88c81c)">
     <use xlink:href="#m91a12e198a" x="201.491331" y="50.598952" style="fill: #ff7f0e; stroke: #ff7f0e"/>
    </g>
   </g>
   <g id="LineCollection_3">
    <path d="M 309.400773 57.897642 
L 309.400773 40.603865 
" clip-path="url(#p7f8c88c81c)" style="fill: none; stroke: #2ca02c; stroke-width: 2"/>
   </g>
   <g id="line2d_11">
    <defs>
     <path id="m5a96fc69f3" d="M 5 0 
L -5 -0 
" style="stroke: #2ca02c"/>
    </defs>
    <g clip-path="url(#p7f8c88c81c)">
     <use xlink:href="#m5a96fc69f3" x="309.400773" y="57.897642" style="fill: #2ca02c; stroke: #2ca02c"/>
    </g>
   </g>
   <g id="line2d_12">
    <g clip-path="url(#p7f8c88c81c)">
     <use xlink:href="#m5a96fc69f3" x="309.400773" y="40.603865" style="fill: #2ca02c; stroke: #2ca02c"/>
    </g>
   </g>
   <g id="LineCollection_4">
    <path d="M 417.310215 48.08068 
L 417.310215 24.607735 
" clip-path="url(#p7f8c88c81c)" style="fill: none; stroke: #d62728; stroke-width: 2"/>
   </g>
   <g id="line2d_13">
    <defs>
     <path id="m69a4e782f6" d="M 5 0 
L -5 -0 
" style="stroke: #d62728"/>
    </defs>
    <g clip-path="url(#p7f8c88c81c)">
     <use xlink:href="#m69a4e782f6" x="417.310215" y="48.08068" style="fill: #d62728; stroke: #d62728"/>
    </g>
   </g>
   <g id="line2d_14">
    <g clip-path="url(#p7f8c88c81c)">
     <use xlink:href="#m69a4e782f6" x="417.310215" y="24.607735" style="fill: #d62728; stroke: #d62728"/>
    </g>
   </g>
   <g id="line2d_15">
    <defs>
     <path id="m2a355d4515" d="M 0 5 
C 1.326016 5 2.597899 4.473168 3.535534 3.535534 
C 4.473168 2.597899 5 1.326016 5 0 
C 5 -1.326016 4.473168 -2.597899 3.535534 -3.535534 
C 2.597899 -4.473168 1.326016 -5 0 -5 
C -1.326016 -5 -2.597899 -4.473168 -3.535534 -3.535534 
C -4.473168 -2.597899 -5 -1.326016 -5 0 
C -5 1.326016 -4.473168 2.597899 -3.535534 3.535534 
C -2.597899 4.473168 -1.326016 5 0 5 
z
" style="stroke: #1f77b4"/>
    </defs>
    <g clip-path="url(#p7f8c88c81c)">
     <use xlink:href="#m2a355d4515" x="93.581888" y="50.400772" style="fill: #1f77b4; stroke: #1f77b4"/>
    </g>
   </g>
   <g id="line2d_16">
    <defs>
     <path id="m4a1665cb66" d="M 0 5 
C 1.326016 5 2.597899 4.473168 3.535534 3.535534 
C 4.473168 2.597899 5 1.326016 5 0 
C 5 -1.326016 4.473168 -2.597899 3.535534 -3.535534 
C 2.597899 -4.473168 1.326016 -5 0 -5 
C -1.326016 -5 -2.597899 -4.473168 -3.535534 -3.535534 
C -4.473168 -2.597899 -5 -1.326016 -5 0 
C -5 1.326016 -4.473168 2.597899 -3.535534 3.535534 
C -2.597899 4.473168 -1.326016 5 0 5 
z
" style="stroke: #ff7f0e"/>
    </defs>
    <g clip-path="url(#p7f8c88c81c)">
     <use xlink:href="#m4a1665cb66" x="201.491331" y="56.477533" style="fill: #ff7f0e; stroke: #ff7f0e"/>
    </g>
   </g>
   <g id="line2d_17">
    <defs>
     <path id="mf828e50cfc" d="M 0 5 
C 1.326016 5 2.597899 4.473168 3.535534 3.535534 
C 4.473168 2.597899 5 1.326016 5 0 
C 5 -1.326016 4.473168 -2.597899 3.535534 -3.535534 
C 2.597899 -4.473168 1.326016 -5 0 -5 
C -1.326016 -5 -2.597899 -4.473168 -3.535534 -3.535534 
C -4.473168 -2.597899 -5 -1.326016 -5 0 
C -5 1.326016 -4.473168 2.597899 -3.535534 3.535534 
C -2.597899 4.473168 -1.326016 5 0 5 
z
" style="stroke: #2ca02c"/>
    </defs>
    <g clip-path="url(#p7f8c88c81c)">
     <use xlink:href="#mf828e50cfc" x="309.400773" y="49.250754" style="fill: #2ca02c; stroke: #2ca02c"/>
    </g>
   </g>
   <g id="line2d_18">
    <defs>
     <path id="m0b917ad4ff" d="M 0 5 
C 1.326016 5 2.597899 4.473168 3.535534 3.535534 
C 4.473168 2.597899 5 1.326016 5 0 
C 5 -1.326016 4.473168 -2.597899 3.535534 -3.535534 
C 2.597899 -4.473168 1.326016 -5 0 -5 
C -1.326016 -5 -2.597899 -4.473168 -3.535534 -3.535534 
C -4.473168 -2.597899 -5 -1.326016 -5 0 
C -5 1.326016 -4.473168 2.597899 -3.535534 3.535534 
C -2.597899 4.473168 -1.326016 5 0 5 
z
" style="stroke: #d62728"/>
    </defs>
    <g clip-path="url(#p7f8c88c81c)">
     <use xlink:href="#m0b917ad4ff" x="417.310215" y="36.344207" style="fill: #d62728; stroke: #d62728"/>
    </g>
   </g>
   <g id="patch_3">
    <path d="M 72 67.335981 
L 72 12.96 
" style="fill: none; stroke: #ffffff; stroke-width: 2; stroke-linejoin: miter; stroke-linecap: square"/>
   </g>
   <g id="patch_4">
    <path d="M 438.892103 67.335981 
L 438.892103 12.96 
" style="fill: none; stroke: #ffffff; stroke-width: 2; stroke-linejoin: miter; stroke-linecap: square"/>
   </g>
   <g id="patch_5">
    <path d="M 72 67.335981 
L 438.892103 67.335981 
" style="fill: none; stroke: #ffffff; stroke-width: 2; stroke-linejoin: miter; stroke-linecap: square"/>
   </g>
   <g id="patch_6">
    <path d="M 72 12.96 
L 438.892103 12.96 
" style="fill: none; stroke: #ffffff; stroke-width: 2; stroke-linejoin: miter; stroke-linecap: square"/>
   </g>
  </g>
  <g id="axes_2">
   <g id="PathCollection_1">
    <defs>
     <path id="m7769659a53" d="M 0 2.5 
C 0.663008 2.5 1.29895 2.236584 1.767767 1.767767 
C 2.236584 1.29895 2.5 0.663008 2.5 0 
C 2.5 -0.663008 2.236584 -1.29895 1.767767 -1.767767 
C 1.29895 -2.236584 0.663008 -2.5 0 -2.5 
C -0.663008 -2.5 -1.29895 -2.236584 -1.767767 -1.767767 
C -2.236584 -1.29895 -2.5 -0.663008 -2.5 0 
C -2.5 0.663008 -2.236584 1.29895 -1.767767 1.767767 
C -1.29895 2.236584 -0.663008 2.5 0 2.5 
z
" style="stroke: #ffffff; stroke-width: 2"/>
    </defs>
    <g>
     <use xlink:href="#m7769659a53" x="552.625992" y="41.788112" style="fill: #aa3377; stroke: #ffffff; stroke-width: 2"/>
    </g>
   </g>
   <g id="line2d_19">
    <path d="M 558.825907 41.872388 
L 558.780537 40.428711 
L 558.644608 38.990731 
L 558.418656 37.564124 
L 558.103572 36.15452 
L 557.7006 34.767482 
L 557.21133 33.408483 
L 556.637694 32.082888 
L 555.981955 30.795927 
L 555.246701 29.55268 
L 554.434833 28.358054 
L 553.549557 27.216762 
L 552.594365 26.133309 
L 551.573027 25.111971 
L 550.489574 24.156779 
L 549.348282 23.271503 
L 548.153656 22.459635 
L 546.910409 21.724381 
L 545.623448 21.068642 
L 544.297853 20.495005 
L 542.938854 20.005736 
L 541.551816 19.602764 
L 540.142212 19.28768 
L 538.715605 19.061728 
L 537.277625 18.925799 
L 535.833948 18.880429 
L 534.390271 18.925799 
L 532.952292 19.061728 
L 531.525685 19.28768 
L 530.116081 19.602764 
L 528.729042 20.005736 
L 527.370044 20.495005 
L 526.044449 21.068642 
L 524.757488 21.724381 
L 523.514241 22.459635 
L 522.319614 23.271503 
L 521.178323 24.156779 
L 520.09487 25.111971 
L 519.073532 26.133309 
L 518.11834 27.216762 
L 517.233063 28.358054 
L 516.421196 29.55268 
L 515.685942 30.795927 
L 515.030203 32.082888 
L 514.456566 33.408483 
L 513.967297 34.767482 
L 513.564325 36.15452 
L 513.249241 37.564124 
L 513.023289 38.990731 
L 512.887359 40.428711 
L 512.84199 41.872388 
L 512.887359 43.316065 
L 513.023289 44.754044 
L 513.249241 46.180651 
L 513.564325 47.590255 
L 513.967297 48.977293 
L 514.456566 50.336292 
L 515.030203 51.661887 
L 515.685942 52.948848 
L 516.421196 54.192095 
L 517.233063 55.386722 
L 518.11834 56.528013 
L 519.073532 57.611466 
L 520.09487 58.632804 
L 521.178323 59.587996 
L 522.319614 60.473272 
L 523.514241 61.28514 
L 524.757488 62.020394 
L 526.044449 62.676133 
L 527.370044 63.24977 
L 528.729042 63.739039 
L 530.116081 64.142011 
L 531.525685 64.457095 
L 532.952292 64.683047 
L 534.390271 64.818976 
L 535.833948 64.864346 
L 537.277625 64.818976 
L 538.715605 64.683047 
L 540.142212 64.457095 
L 541.551816 64.142011 
L 542.938854 63.739039 
L 544.297853 63.24977 
L 545.623448 62.676133 
L 546.910409 62.020394 
L 548.153656 61.28514 
L 549.348282 60.473272 
L 550.489574 59.587996 
L 551.573027 58.632804 
L 552.594365 57.611466 
L 553.549557 56.528013 
L 554.434833 55.386722 
L 555.246701 54.192095 
L 555.981955 52.948848 
L 556.637694 51.661887 
L 557.21133 50.336292 
L 557.7006 48.977293 
L 558.103572 47.590255 
L 558.418656 46.180651 
L 558.644608 44.754044 
L 558.780537 43.316065 
L 558.825907 41.872388 
" style="fill: none; stroke: #ffffff; stroke-linecap: square"/>
   </g>
   <g id="line2d_20">
    <path d="M 531.018524 19.390354 
L 535.833948 15.431636 
L 540.649373 19.390354 
" style="fill: none; stroke: #ffffff; stroke-linecap: square"/>
   </g>
   <g id="line2d_21">
    <path d="M 512.979942 39.32028 
L 512.382151 38.308634 
L 512.01428 38.271847 
L 511.467071 38.441987 
L 510.915264 39.32028 
L 511.002633 42.125299 
L 510.680746 46.158089 
L 511.370505 47.910076 
L 512.382151 48.236562 
L 513.347813 47.385859 
" style="fill: none; stroke: #ffffff; stroke-linecap: square"/>
   </g>
   <g id="line2d_22">
    <path d="M 558.687955 39.32028 
L 559.285746 38.308634 
L 559.653617 38.271847 
L 560.200826 38.441987 
L 560.752633 39.32028 
L 560.665263 42.125299 
L 560.987151 46.158089 
L 560.297392 47.910076 
L 559.285746 48.236562 
L 558.320084 47.385859 
" style="fill: none; stroke: #ffffff; stroke-linecap: square"/>
   </g>
  </g>
  <g id="axes_3">
   <g id="patch_7">
    <path d="M 72 141.030841 
L 438.892103 141.030841 
L 438.892103 86.65486 
L 72 86.65486 
L 72 141.030841 
z
" style="fill: none"/>
   </g>
   <g id="matplotlib.axis_3">
    <g id="xtick_5">
     <g id="line2d_23">
      <g>
       <use xlink:href="#mff191dd177" x="93.581888" y="141.030841" style="fill: #ffffff; stroke: #ffffff; stroke-width: 2"/>
      </g>
     </g>
    </g>
    <g id="xtick_6">
     <g id="line2d_24">
      <g>
       <use xlink:href="#mff191dd177" x="201.491331" y="141.030841" style="fill: #ffffff; stroke: #ffffff; stroke-width: 2"/>
      </g>
     </g>
    </g>
    <g id="xtick_7">
     <g id="line2d_25">
      <g>
       <use xlink:href="#mff191dd177" x="309.400773" y="141.030841" style="fill: #ffffff; stroke: #ffffff; stroke-width: 2"/>
      </g>
     </g>
    </g>
    <g id="xtick_8">
     <g id="line2d_26">
      <g>
       <use xlink:href="#mff191dd177" x="417.310215" y="141.030841" style="fill: #ffffff; stroke: #ffffff; stroke-width: 2"/>
      </g>
     </g>
    </g>
   </g>
   <g id="matplotlib.axis_4">
    <g id="ytick_3">
     <g id="line2d_27">
      <g>
       <use xlink:href="#m2316730be0" x="72" y="141.030841" style="fill: #ffffff; stroke: #ffffff; stroke-width: 2"/>
      </g>
     </g>
     <g id="text_3">
      <!-- 0.0 -->
      <g style="fill: #ffffff" transform="translate(39.555 147.109591)scale(0.16 -0.16)">
       <use xlink:href="#DejaVuSans-30"/>
       <use xlink:href="#DejaVuSans-2e" x="63.623047"/>
       <use xlink:href="#DejaVuSans-30" x="95.410156"/>
      </g>
     </g>
    </g>
    <g id="ytick_4">
     <g id="line2d_28">
      <g>
       <use xlink:href="#m2316730be0" x="72" y="104.780187" style="fill: #ffffff; stroke: #ffffff; stroke-width: 2"/>
      </g>
     </g>
     <g id="text_4">
      <!-- 0.1 -->
      <g style="fill: #ffffff" transform="translate(39.555 110.858937)scale(0.16 -0.16)">
       <use xlink:href="#DejaVuSans-30"/>
       <use xlink:href="#DejaVuSans-2e" x="63.623047"/>
       <use xlink:href="#DejaVuSans-31" x="95.410156"/>
      </g>
     </g>
    </g>
   </g>
   <g id="LineCollection_5">
    <path d="M 93.581888 137.341093 
L 93.581888 122.335308 
" clip-path="url(#p2d884c98f4)" style="fill: none; stroke: #1f77b4; stroke-width: 2"/>
   </g>
   <g id="line2d_29">
    <g clip-path="url(#p2d884c98f4)">
     <use xlink:href="#m054de0ed10" x="93.581888" y="137.341093" style="fill: #1f77b4; stroke: #1f77b4"/>
    </g>
   </g>
   <g id="line2d_30">
    <g clip-path="url(#p2d884c98f4)">
     <use xlink:href="#m054de0ed10" x="93.581888" y="122.335308" style="fill: #1f77b4; stroke: #1f77b4"/>
    </g>
   </g>
   <g id="LineCollection_6">
    <path d="M 201.491331 138.610162 
L 201.491331 125.688544 
" clip-path="url(#p2d884c98f4)" style="fill: none; stroke: #ff7f0e; stroke-width: 2"/>
   </g>
   <g id="line2d_31">
    <g clip-path="url(#p2d884c98f4)">
     <use xlink:href="#m91a12e198a" x="201.491331" y="138.610162" style="fill: #ff7f0e; stroke: #ff7f0e"/>
    </g>
   </g>
   <g id="line2d_32">
    <g clip-path="url(#p2d884c98f4)">
     <use xlink:href="#m91a12e198a" x="201.491331" y="125.688544" style="fill: #ff7f0e; stroke: #ff7f0e"/>
    </g>
   </g>
   <g id="LineCollection_7">
    <path d="M 309.400773 126.594436 
L 309.400773 112.972967 
" clip-path="url(#p2d884c98f4)" style="fill: none; stroke: #2ca02c; stroke-width: 2"/>
   </g>
   <g id="line2d_33">
    <g clip-path="url(#p2d884c98f4)">
     <use xlink:href="#m5a96fc69f3" x="309.400773" y="126.594436" style="fill: #2ca02c; stroke: #2ca02c"/>
    </g>
   </g>
   <g id="line2d_34">
    <g clip-path="url(#p2d884c98f4)">
     <use xlink:href="#m5a96fc69f3" x="309.400773" y="112.972967" style="fill: #2ca02c; stroke: #2ca02c"/>
    </g>
   </g>
   <g id="LineCollection_8">
    <path d="M 417.310215 124.500595 
L 417.310215 110.707837 
" clip-path="url(#p2d884c98f4)" style="fill: none; stroke: #d62728; stroke-width: 2"/>
   </g>
   <g id="line2d_35">
    <g clip-path="url(#p2d884c98f4)">
     <use xlink:href="#m69a4e782f6" x="417.310215" y="124.500595" style="fill: #d62728; stroke: #d62728"/>
    </g>
   </g>
   <g id="line2d_36">
    <g clip-path="url(#p2d884c98f4)">
     <use xlink:href="#m69a4e782f6" x="417.310215" y="110.707837" style="fill: #d62728; stroke: #d62728"/>
    </g>
   </g>
   <g id="line2d_37">
    <g clip-path="url(#p2d884c98f4)">
     <use xlink:href="#m2a355d4515" x="93.581888" y="129.8382" style="fill: #1f77b4; stroke: #1f77b4"/>
    </g>
   </g>
   <g id="line2d_38">
    <g clip-path="url(#p2d884c98f4)">
     <use xlink:href="#m4a1665cb66" x="201.491331" y="132.149353" style="fill: #ff7f0e; stroke: #ff7f0e"/>
    </g>
   </g>
   <g id="line2d_39">
    <g clip-path="url(#p2d884c98f4)">
     <use xlink:href="#mf828e50cfc" x="309.400773" y="119.783702" style="fill: #2ca02c; stroke: #2ca02c"/>
    </g>
   </g>
   <g id="line2d_40">
    <g clip-path="url(#p2d884c98f4)">
     <use xlink:href="#m0b917ad4ff" x="417.310215" y="117.604216" style="fill: #d62728; stroke: #d62728"/>
    </g>
   </g>
   <g id="patch_8">
    <path d="M 72 141.030841 
L 72 86.65486 
" style="fill: none; stroke: #ffffff; stroke-width: 2; stroke-linejoin: miter; stroke-linecap: square"/>
   </g>
   <g id="patch_9">
    <path d="M 438.892103 141.030841 
L 438.892103 86.65486 
" style="fill: none; stroke: #ffffff; stroke-width: 2; stroke-linejoin: miter; stroke-linecap: square"/>
   </g>
   <g id="patch_10">
    <path d="M 72 141.030841 
L 438.892103 141.030841 
" style="fill: none; stroke: #ffffff; stroke-width: 2; stroke-linejoin: miter; stroke-linecap: square"/>
   </g>
   <g id="patch_11">
    <path d="M 72 86.65486 
L 438.892103 86.65486 
" style="fill: none; stroke: #ffffff; stroke-width: 2; stroke-linejoin: miter; stroke-linecap: square"/>
   </g>
  </g>
  <g id="axes_4">
   <g id="PathCollection_2">
    <g>
     <use xlink:href="#m7769659a53" x="551.357517" y="112.159022" style="fill: #aa3377; stroke: #ffffff; stroke-width: 2"/>
    </g>
   </g>
   <g id="line2d_41">
    <path d="M 558.825907 115.567247 
L 558.780537 114.12357 
L 558.644608 112.685591 
L 558.418656 111.258984 
L 558.103572 109.84938 
L 557.7006 108.462341 
L 557.21133 107.103343 
L 556.637694 105.777748 
L 555.981955 104.490787 
L 555.246701 103.24754 
L 554.434833 102.052913 
L 553.549557 100.911622 
L 552.594365 99.828169 
L 551.573027 98.806831 
L 550.489574 97.851639 
L 549.348282 96.966362 
L 548.153656 96.154495 
L 546.910409 95.419241 
L 545.623448 94.763502 
L 544.297853 94.189865 
L 542.938854 93.700596 
L 541.551816 93.297624 
L 540.142212 92.98254 
L 538.715605 92.756588 
L 537.277625 92.620658 
L 535.833948 92.575289 
L 534.390271 92.620658 
L 532.952292 92.756588 
L 531.525685 92.98254 
L 530.116081 93.297624 
L 528.729042 93.700596 
L 527.370044 94.189865 
L 526.044449 94.763502 
L 524.757488 95.419241 
L 523.514241 96.154495 
L 522.319614 96.966362 
L 521.178323 97.851639 
L 520.09487 98.806831 
L 519.073532 99.828169 
L 518.11834 100.911622 
L 517.233063 102.052913 
L 516.421196 103.24754 
L 515.685942 104.490787 
L 515.030203 105.777748 
L 514.456566 107.103343 
L 513.967297 108.462341 
L 513.564325 109.84938 
L 513.249241 111.258984 
L 513.023289 112.685591 
L 512.887359 114.12357 
L 512.84199 115.567247 
L 512.887359 117.010924 
L 513.023289 118.448904 
L 513.249241 119.875511 
L 513.564325 121.285115 
L 513.967297 122.672153 
L 514.456566 124.031152 
L 515.030203 125.356747 
L 515.685942 126.643708 
L 516.421196 127.886955 
L 517.233063 129.081581 
L 518.11834 130.222873 
L 519.073532 131.306326 
L 520.09487 132.327664 
L 521.178323 133.282856 
L 522.319614 134.168132 
L 523.514241 134.98 
L 524.757488 135.715254 
L 526.044449 136.370993 
L 527.370044 136.94463 
L 528.729042 137.433899 
L 530.116081 137.836871 
L 531.525685 138.151955 
L 532.952292 138.377907 
L 534.390271 138.513836 
L 535.833948 138.559206 
L 537.277625 138.513836 
L 538.715605 138.377907 
L 540.142212 138.151955 
L 541.551816 137.836871 
L 542.938854 137.433899 
L 544.297853 136.94463 
L 545.623448 136.370993 
L 546.910409 135.715254 
L 548.153656 134.98 
L 549.348282 134.168132 
L 550.489574 133.282856 
L 551.573027 132.327664 
L 552.594365 131.306326 
L 553.549557 130.222873 
L 554.434833 129.081581 
L 555.246701 127.886955 
L 555.981955 126.643708 
L 556.637694 125.356747 
L 557.21133 124.031152 
L 557.7006 122.672153 
L 558.103572 121.285115 
L 558.418656 119.875511 
L 558.644608 118.448904 
L 558.780537 117.010924 
L 558.825907 115.567247 
" style="fill: none; stroke: #ffffff; stroke-linecap: square"/>
   </g>
   <g id="line2d_42">
    <path d="M 531.018524 93.085214 
L 535.833948 89.126495 
L 540.649373 93.085214 
" style="fill: none; stroke: #ffffff; stroke-linecap: square"/>
   </g>
   <g id="line2d_43">
    <path d="M 512.979942 113.01514 
L 512.382151 112.003494 
L 512.01428 111.966707 
L 511.467071 112.136847 
L 510.915264 113.01514 
L 511.002633 115.820159 
L 510.680746 119.852948 
L 511.370505 121.604936 
L 512.382151 121.931421 
L 513.347813 121.080719 
" style="fill: none; stroke: #ffffff; stroke-linecap: square"/>
   </g>
   <g id="line2d_44">
    <path d="M 558.687955 113.01514 
L 559.285746 112.003494 
L 559.653617 111.966707 
L 560.200826 112.136847 
L 560.752633 113.01514 
L 560.665263 115.820159 
L 560.987151 119.852948 
L 560.297392 121.604936 
L 559.285746 121.931421 
L 558.320084 121.080719 
" style="fill: none; stroke: #ffffff; stroke-linecap: square"/>
   </g>
  </g>
  <g id="axes_5">
   <g id="patch_12">
    <path d="M 72 214.725701 
L 438.892103 214.725701 
L 438.892103 160.34972 
L 72 160.34972 
L 72 214.725701 
z
" style="fill: none"/>
   </g>
   <g id="matplotlib.axis_5">
    <g id="xtick_9">
     <g id="line2d_45">
      <g>
       <use xlink:href="#mff191dd177" x="93.581888" y="214.725701" style="fill: #ffffff; stroke: #ffffff; stroke-width: 2"/>
      </g>
     </g>
    </g>
    <g id="xtick_10">
     <g id="line2d_46">
      <g>
       <use xlink:href="#mff191dd177" x="201.491331" y="214.725701" style="fill: #ffffff; stroke: #ffffff; stroke-width: 2"/>
      </g>
     </g>
    </g>
    <g id="xtick_11">
     <g id="line2d_47">
      <g>
       <use xlink:href="#mff191dd177" x="309.400773" y="214.725701" style="fill: #ffffff; stroke: #ffffff; stroke-width: 2"/>
      </g>
     </g>
    </g>
    <g id="xtick_12">
     <g id="line2d_48">
      <g>
       <use xlink:href="#mff191dd177" x="417.310215" y="214.725701" style="fill: #ffffff; stroke: #ffffff; stroke-width: 2"/>
      </g>
     </g>
    </g>
   </g>
   <g id="matplotlib.axis_6">
    <g id="ytick_5">
     <g id="line2d_49">
      <g>
       <use xlink:href="#m2316730be0" x="72" y="214.725701" style="fill: #ffffff; stroke: #ffffff; stroke-width: 2"/>
      </g>
     </g>
     <g id="text_5">
      <!-- 0.0 -->
      <g style="fill: #ffffff" transform="translate(39.555 220.804451)scale(0.16 -0.16)">
       <use xlink:href="#DejaVuSans-30"/>
       <use xlink:href="#DejaVuSans-2e" x="63.623047"/>
       <use xlink:href="#DejaVuSans-30" x="95.410156"/>
      </g>
     </g>
    </g>
    <g id="ytick_6">
     <g id="line2d_50">
      <g>
       <use xlink:href="#m2316730be0" x="72" y="178.475047" style="fill: #ffffff; stroke: #ffffff; stroke-width: 2"/>
      </g>
     </g>
     <g id="text_6">
      <!-- 0.1 -->
      <g style="fill: #ffffff" transform="translate(39.555 184.553797)scale(0.16 -0.16)">
       <use xlink:href="#DejaVuSans-30"/>
       <use xlink:href="#DejaVuSans-2e" x="63.623047"/>
       <use xlink:href="#DejaVuSans-31" x="95.410156"/>
      </g>
     </g>
    </g>
   </g>
   <g id="LineCollection_9">
    <path d="M 93.581888 217.143336 
L 93.581888 206.241975 
" clip-path="url(#p1304d994f5)" style="fill: none; stroke: #1f77b4; stroke-width: 2"/>
   </g>
   <g id="line2d_51">
    <g clip-path="url(#p1304d994f5)">
     <use xlink:href="#m054de0ed10" x="93.581888" y="217.143336" style="fill: #1f77b4; stroke: #1f77b4"/>
    </g>
   </g>
   <g id="line2d_52">
    <g clip-path="url(#p1304d994f5)">
     <use xlink:href="#m054de0ed10" x="93.581888" y="206.241975" style="fill: #1f77b4; stroke: #1f77b4"/>
    </g>
   </g>
   <g id="LineCollection_10">
    <path d="M 201.491331 213.905404 
L 201.491331 200.361239 
" clip-path="url(#p1304d994f5)" style="fill: none; stroke: #ff7f0e; stroke-width: 2"/>
   </g>
   <g id="line2d_53">
    <g clip-path="url(#p1304d994f5)">
     <use xlink:href="#m91a12e198a" x="201.491331" y="213.905404" style="fill: #ff7f0e; stroke: #ff7f0e"/>
    </g>
   </g>
   <g id="line2d_54">
    <g clip-path="url(#p1304d994f5)">
     <use xlink:href="#m91a12e198a" x="201.491331" y="200.361239" style="fill: #ff7f0e; stroke: #ff7f0e"/>
    </g>
   </g>
   <g id="LineCollection_11">
    <path d="M 309.400773 211.666557 
L 309.400773 198.357279 
" clip-path="url(#p1304d994f5)" style="fill: none; stroke: #2ca02c; stroke-width: 2"/>
   </g>
   <g id="line2d_55">
    <g clip-path="url(#p1304d994f5)">
     <use xlink:href="#m5a96fc69f3" x="309.400773" y="211.666557" style="fill: #2ca02c; stroke: #2ca02c"/>
    </g>
   </g>
   <g id="line2d_56">
    <g clip-path="url(#p1304d994f5)">
     <use xlink:href="#m5a96fc69f3" x="309.400773" y="198.357279" style="fill: #2ca02c; stroke: #2ca02c"/>
    </g>
   </g>
   <g id="LineCollection_12">
    <path d="M 417.310215 208.278991 
L 417.310215 191.079925 
" clip-path="url(#p1304d994f5)" style="fill: none; stroke: #d62728; stroke-width: 2"/>
   </g>
   <g id="line2d_57">
    <g clip-path="url(#p1304d994f5)">
     <use xlink:href="#m69a4e782f6" x="417.310215" y="208.278991" style="fill: #d62728; stroke: #d62728"/>
    </g>
   </g>
   <g id="line2d_58">
    <g clip-path="url(#p1304d994f5)">
     <use xlink:href="#m69a4e782f6" x="417.310215" y="191.079925" style="fill: #d62728; stroke: #d62728"/>
    </g>
   </g>
   <g id="line2d_59">
    <g clip-path="url(#p1304d994f5)">
     <use xlink:href="#m2a355d4515" x="93.581888" y="211.692656" style="fill: #1f77b4; stroke: #1f77b4"/>
    </g>
   </g>
   <g id="line2d_60">
    <g clip-path="url(#p1304d994f5)">
     <use xlink:href="#m4a1665cb66" x="201.491331" y="207.133321" style="fill: #ff7f0e; stroke: #ff7f0e"/>
    </g>
   </g>
   <g id="line2d_61">
    <g clip-path="url(#p1304d994f5)">
     <use xlink:href="#mf828e50cfc" x="309.400773" y="205.011918" style="fill: #2ca02c; stroke: #2ca02c"/>
    </g>
   </g>
   <g id="line2d_62">
    <g clip-path="url(#p1304d994f5)">
     <use xlink:href="#m0b917ad4ff" x="417.310215" y="199.679458" style="fill: #d62728; stroke: #d62728"/>
    </g>
   </g>
   <g id="patch_13">
    <path d="M 72 214.725701 
L 72 160.34972 
" style="fill: none; stroke: #ffffff; stroke-width: 2; stroke-linejoin: miter; stroke-linecap: square"/>
   </g>
   <g id="patch_14">
    <path d="M 438.892103 214.725701 
L 438.892103 160.34972 
" style="fill: none; stroke: #ffffff; stroke-width: 2; stroke-linejoin: miter; stroke-linecap: square"/>
   </g>
   <g id="patch_15">
    <path d="M 72 214.725701 
L 438.892103 214.725701 
" style="fill: none; stroke: #ffffff; stroke-width: 2; stroke-linejoin: miter; stroke-linecap: square"/>
   </g>
   <g id="patch_16">
    <path d="M 72 160.34972 
L 438.892103 160.34972 
" style="fill: none; stroke: #ffffff; stroke-width: 2; stroke-linejoin: miter; stroke-linecap: square"/>
   </g>
  </g>
  <g id="axes_6">
   <g id="PathCollection_3">
    <defs>
     <path id="m49b024ad5b" d="M 0 2.5 
C 0.663008 2.5 1.29895 2.236584 1.767767 1.767767 
C 2.236584 1.29895 2.5 0.663008 2.5 0 
C 2.5 -0.663008 2.236584 -1.29895 1.767767 -1.767767 
C 1.29895 -2.236584 0.663008 -2.5 0 -2.5 
C -0.663008 -2.5 -1.29895 -2.236584 -1.767767 -1.767767 
C -2.236584 -1.29895 -2.5 -0.663008 -2.5 0 
C -2.5 0.663008 -2.236584 1.29895 -1.767767 1.767767 
C -1.29895 2.236584 -0.663008 2.5 0 2.5 
z
" style="stroke: #ff0000; stroke-width: 2"/>
    </defs>
    <g>
     <use xlink:href="#m49b024ad5b" x="550.941785" y="191.883857" style="fill: #ff0000; stroke: #ff0000; stroke-width: 2"/>
    </g>
   </g>
   <g id="line2d_63">
    <path d="M 558.825907 189.262107 
L 558.780537 187.81843 
L 558.644608 186.380451 
L 558.418656 184.953844 
L 558.103572 183.54424 
L 557.7006 182.157201 
L 557.21133 180.798203 
L 556.637694 179.472607 
L 555.981955 178.185647 
L 555.246701 176.9424 
L 554.434833 175.747773 
L 553.549557 174.606481 
L 552.594365 173.523029 
L 551.573027 172.501691 
L 550.489574 171.546499 
L 549.348282 170.661222 
L 548.153656 169.849355 
L 546.910409 169.114101 
L 545.623448 168.458361 
L 544.297853 167.884725 
L 542.938854 167.395455 
L 541.551816 166.992484 
L 540.142212 166.6774 
L 538.715605 166.451447 
L 537.277625 166.315518 
L 535.833948 166.270149 
L 534.390271 166.315518 
L 532.952292 166.451447 
L 531.525685 166.6774 
L 530.116081 166.992484 
L 528.729042 167.395455 
L 527.370044 167.884725 
L 526.044449 168.458361 
L 524.757488 169.114101 
L 523.514241 169.849355 
L 522.319614 170.661222 
L 521.178323 171.546499 
L 520.09487 172.501691 
L 519.073532 173.523029 
L 518.11834 174.606481 
L 517.233063 175.747773 
L 516.421196 176.9424 
L 515.685942 178.185647 
L 515.030203 179.472607 
L 514.456566 180.798203 
L 513.967297 182.157201 
L 513.564325 183.54424 
L 513.249241 184.953844 
L 513.023289 186.380451 
L 512.887359 187.81843 
L 512.84199 189.262107 
L 512.887359 190.705784 
L 513.023289 192.143764 
L 513.249241 193.570371 
L 513.564325 194.979975 
L 513.967297 196.367013 
L 514.456566 197.726012 
L 515.030203 199.051607 
L 515.685942 200.338568 
L 516.421196 201.581814 
L 517.233063 202.776441 
L 518.11834 203.917733 
L 519.073532 205.001186 
L 520.09487 206.022523 
L 521.178323 206.977715 
L 522.319614 207.862992 
L 523.514241 208.67486 
L 524.757488 209.410114 
L 526.044449 210.065853 
L 527.370044 210.639489 
L 528.729042 211.128759 
L 530.116081 211.531731 
L 531.525685 211.846815 
L 532.952292 212.072767 
L 534.390271 212.208696 
L 535.833948 212.254065 
L 537.277625 212.208696 
L 538.715605 212.072767 
L 540.142212 211.846815 
L 541.551816 211.531731 
L 542.938854 211.128759 
L 544.297853 210.639489 
L 545.623448 210.065853 
L 546.910409 209.410114 
L 548.153656 208.67486 
L 549.348282 207.862992 
L 550.489574 206.977715 
L 551.573027 206.022523 
L 552.594365 205.001186 
L 553.549557 203.917733 
L 554.434833 202.776441 
L 555.246701 201.581814 
L 555.981955 200.338568 
L 556.637694 199.051607 
L 557.21133 197.726012 
L 557.7006 196.367013 
L 558.103572 194.979975 
L 558.418656 193.570371 
L 558.644608 192.143764 
L 558.780537 190.705784 
L 558.825907 189.262107 
" style="fill: none; stroke: #ffffff; stroke-linecap: square"/>
   </g>
   <g id="line2d_64">
    <path d="M 531.018524 166.780074 
L 535.833948 162.821355 
L 540.649373 166.780074 
" style="fill: none; stroke: #ffffff; stroke-linecap: square"/>
   </g>
   <g id="line2d_65">
    <path d="M 512.979942 186.71 
L 512.382151 185.698354 
L 512.01428 185.661566 
L 511.467071 185.831707 
L 510.915264 186.71 
L 511.002633 189.515019 
L 510.680746 193.547808 
L 511.370505 195.299795 
L 512.382151 195.626281 
L 513.347813 194.775579 
" style="fill: none; stroke: #ffffff; stroke-linecap: square"/>
   </g>
   <g id="line2d_66">
    <path d="M 558.687955 186.71 
L 559.285746 185.698354 
L 559.653617 185.661566 
L 560.200826 185.831707 
L 560.752633 186.71 
L 560.665263 189.515019 
L 560.987151 193.547808 
L 560.297392 195.299795 
L 559.285746 195.626281 
L 558.320084 194.775579 
" style="fill: none; stroke: #ffffff; stroke-linecap: square"/>
   </g>
  </g>
  <g id="axes_7">
   <g id="patch_17">
    <path d="M 72 288.420561 
L 438.892103 288.420561 
L 438.892103 234.044579 
L 72 234.044579 
L 72 288.420561 
z
" style="fill: none"/>
   </g>
   <g id="matplotlib.axis_7">
    <g id="xtick_13">
     <g id="line2d_67">
      <g>
       <use xlink:href="#mff191dd177" x="93.581888" y="288.420561" style="fill: #ffffff; stroke: #ffffff; stroke-width: 2"/>
      </g>
     </g>
    </g>
    <g id="xtick_14">
     <g id="line2d_68">
      <g>
       <use xlink:href="#mff191dd177" x="201.491331" y="288.420561" style="fill: #ffffff; stroke: #ffffff; stroke-width: 2"/>
      </g>
     </g>
    </g>
    <g id="xtick_15">
     <g id="line2d_69">
      <g>
       <use xlink:href="#mff191dd177" x="309.400773" y="288.420561" style="fill: #ffffff; stroke: #ffffff; stroke-width: 2"/>
      </g>
     </g>
    </g>
    <g id="xtick_16">
     <g id="line2d_70">
      <g>
       <use xlink:href="#mff191dd177" x="417.310215" y="288.420561" style="fill: #ffffff; stroke: #ffffff; stroke-width: 2"/>
      </g>
     </g>
    </g>
   </g>
   <g id="matplotlib.axis_8">
    <g id="ytick_7">
     <g id="line2d_71">
      <g>
       <use xlink:href="#m2316730be0" x="72" y="288.420561" style="fill: #ffffff; stroke: #ffffff; stroke-width: 2"/>
      </g>
     </g>
     <g id="text_7">
      <!-- 0.0 -->
      <g style="fill: #ffffff" transform="translate(39.555 294.499311)scale(0.16 -0.16)">
       <use xlink:href="#DejaVuSans-30"/>
       <use xlink:href="#DejaVuSans-2e" x="63.623047"/>
       <use xlink:href="#DejaVuSans-30" x="95.410156"/>
      </g>
     </g>
    </g>
    <g id="ytick_8">
     <g id="line2d_72">
      <g>
       <use xlink:href="#m2316730be0" x="72" y="252.169907" style="fill: #ffffff; stroke: #ffffff; stroke-width: 2"/>
      </g>
     </g>
     <g id="text_8">
      <!-- 0.1 -->
      <g style="fill: #ffffff" transform="translate(39.555 258.248657)scale(0.16 -0.16)">
       <use xlink:href="#DejaVuSans-30"/>
       <use xlink:href="#DejaVuSans-2e" x="63.623047"/>
       <use xlink:href="#DejaVuSans-31" x="95.410156"/>
      </g>
     </g>
    </g>
   </g>
   <g id="LineCollection_13">
    <path d="M 93.581888 274.070351 
L 93.581888 257.046172 
" clip-path="url(#p8c6c0a9079)" style="fill: none; stroke: #1f77b4; stroke-width: 2"/>
   </g>
   <g id="line2d_73">
    <g clip-path="url(#p8c6c0a9079)">
     <use xlink:href="#m054de0ed10" x="93.581888" y="274.070351" style="fill: #1f77b4; stroke: #1f77b4"/>
    </g>
   </g>
   <g id="line2d_74">
    <g clip-path="url(#p8c6c0a9079)">
     <use xlink:href="#m054de0ed10" x="93.581888" y="257.046172" style="fill: #1f77b4; stroke: #1f77b4"/>
    </g>
   </g>
   <g id="LineCollection_14">
    <path d="M 201.491331 278.486648 
L 201.491331 264.36629 
" clip-path="url(#p8c6c0a9079)" style="fill: none; stroke: #ff7f0e; stroke-width: 2"/>
   </g>
   <g id="line2d_75">
    <g clip-path="url(#p8c6c0a9079)">
     <use xlink:href="#m91a12e198a" x="201.491331" y="278.486648" style="fill: #ff7f0e; stroke: #ff7f0e"/>
    </g>
   </g>
   <g id="line2d_76">
    <g clip-path="url(#p8c6c0a9079)">
     <use xlink:href="#m91a12e198a" x="201.491331" y="264.36629" style="fill: #ff7f0e; stroke: #ff7f0e"/>
    </g>
   </g>
   <g id="LineCollection_15">
    <path d="M 309.400773 275.012469 
L 309.400773 262.740532 
" clip-path="url(#p8c6c0a9079)" style="fill: none; stroke: #2ca02c; stroke-width: 2"/>
   </g>
   <g id="line2d_77">
    <g clip-path="url(#p8c6c0a9079)">
     <use xlink:href="#m5a96fc69f3" x="309.400773" y="275.012469" style="fill: #2ca02c; stroke: #2ca02c"/>
    </g>
   </g>
   <g id="line2d_78">
    <g clip-path="url(#p8c6c0a9079)">
     <use xlink:href="#m5a96fc69f3" x="309.400773" y="262.740532" style="fill: #2ca02c; stroke: #2ca02c"/>
    </g>
   </g>
   <g id="LineCollection_16">
    <path d="M 417.310215 283.498058 
L 417.310215 268.293444 
" clip-path="url(#p8c6c0a9079)" style="fill: none; stroke: #d62728; stroke-width: 2"/>
   </g>
   <g id="line2d_79">
    <g clip-path="url(#p8c6c0a9079)">
     <use xlink:href="#m69a4e782f6" x="417.310215" y="283.498058" style="fill: #d62728; stroke: #d62728"/>
    </g>
   </g>
   <g id="line2d_80">
    <g clip-path="url(#p8c6c0a9079)">
     <use xlink:href="#m69a4e782f6" x="417.310215" y="268.293444" style="fill: #d62728; stroke: #d62728"/>
    </g>
   </g>
   <g id="line2d_81">
    <g clip-path="url(#p8c6c0a9079)">
     <use xlink:href="#m2a355d4515" x="93.581888" y="265.558261" style="fill: #1f77b4; stroke: #1f77b4"/>
    </g>
   </g>
   <g id="line2d_82">
    <g clip-path="url(#p8c6c0a9079)">
     <use xlink:href="#m4a1665cb66" x="201.491331" y="271.426469" style="fill: #ff7f0e; stroke: #ff7f0e"/>
    </g>
   </g>
   <g id="line2d_83">
    <g clip-path="url(#p8c6c0a9079)">
     <use xlink:href="#mf828e50cfc" x="309.400773" y="268.8765" style="fill: #2ca02c; stroke: #2ca02c"/>
    </g>
   </g>
   <g id="line2d_84">
    <g clip-path="url(#p8c6c0a9079)">
     <use xlink:href="#m0b917ad4ff" x="417.310215" y="275.895751" style="fill: #d62728; stroke: #d62728"/>
    </g>
   </g>
   <g id="patch_18">
    <path d="M 72 288.420561 
L 72 234.044579 
" style="fill: none; stroke: #ffffff; stroke-width: 2; stroke-linejoin: miter; stroke-linecap: square"/>
   </g>
   <g id="patch_19">
    <path d="M 438.892103 288.420561 
L 438.892103 234.044579 
" style="fill: none; stroke: #ffffff; stroke-width: 2; stroke-linejoin: miter; stroke-linecap: square"/>
   </g>
   <g id="patch_20">
    <path d="M 72 288.420561 
L 438.892103 288.420561 
" style="fill: none; stroke: #ffffff; stroke-width: 2; stroke-linejoin: miter; stroke-linecap: square"/>
   </g>
   <g id="patch_21">
    <path d="M 72 234.044579 
L 438.892103 234.044579 
" style="fill: none; stroke: #ffffff; stroke-width: 2; stroke-linejoin: miter; stroke-linecap: square"/>
   </g>
  </g>
  <g id="axes_8">
   <g id="PathCollection_4">
    <g>
     <use xlink:href="#m49b024ad5b" x="550.124662" y="262.346028" style="fill: #ff0000; stroke: #ff0000; stroke-width: 2"/>
    </g>
   </g>
   <g id="line2d_85">
    <path d="M 558.825907 262.956967 
L 558.780537 261.51329 
L 558.644608 260.07531 
L 558.418656 258.648704 
L 558.103572 257.239099 
L 557.7006 255.852061 
L 557.21133 254.493063 
L 556.637694 253.167467 
L 555.981955 251.880507 
L 555.246701 250.63726 
L 554.434833 249.442633 
L 553.549557 248.301341 
L 552.594365 247.217888 
L 551.573027 246.196551 
L 550.489574 245.241359 
L 549.348282 244.356082 
L 548.153656 243.544215 
L 546.910409 242.80896 
L 545.623448 242.153221 
L 544.297853 241.579585 
L 542.938854 241.090315 
L 541.551816 240.687343 
L 540.142212 240.372259 
L 538.715605 240.146307 
L 537.277625 240.010378 
L 535.833948 239.965009 
L 534.390271 240.010378 
L 532.952292 240.146307 
L 531.525685 240.372259 
L 530.116081 240.687343 
L 528.729042 241.090315 
L 527.370044 241.579585 
L 526.044449 242.153221 
L 524.757488 242.80896 
L 523.514241 243.544215 
L 522.319614 244.356082 
L 521.178323 245.241359 
L 520.09487 246.196551 
L 519.073532 247.217888 
L 518.11834 248.301341 
L 517.233063 249.442633 
L 516.421196 250.63726 
L 515.685942 251.880507 
L 515.030203 253.167467 
L 514.456566 254.493063 
L 513.967297 255.852061 
L 513.564325 257.239099 
L 513.249241 258.648704 
L 513.023289 260.07531 
L 512.887359 261.51329 
L 512.84199 262.956967 
L 512.887359 264.400644 
L 513.023289 265.838623 
L 513.249241 267.26523 
L 513.564325 268.674834 
L 513.967297 270.061873 
L 514.456566 271.420871 
L 515.030203 272.746467 
L 515.685942 274.033427 
L 516.421196 275.276674 
L 517.233063 276.471301 
L 518.11834 277.612593 
L 519.073532 278.696045 
L 520.09487 279.717383 
L 521.178323 280.672575 
L 522.319614 281.557852 
L 523.514241 282.369719 
L 524.757488 283.104974 
L 526.044449 283.760713 
L 527.370044 284.334349 
L 528.729042 284.823619 
L 530.116081 285.226591 
L 531.525685 285.541674 
L 532.952292 285.767627 
L 534.390271 285.903556 
L 535.833948 285.948925 
L 537.277625 285.903556 
L 538.715605 285.767627 
L 540.142212 285.541674 
L 541.551816 285.226591 
L 542.938854 284.823619 
L 544.297853 284.334349 
L 545.623448 283.760713 
L 546.910409 283.104974 
L 548.153656 282.369719 
L 549.348282 281.557852 
L 550.489574 280.672575 
L 551.573027 279.717383 
L 552.594365 278.696045 
L 553.549557 277.612593 
L 554.434833 276.471301 
L 555.246701 275.276674 
L 555.981955 274.033427 
L 556.637694 272.746467 
L 557.21133 271.420871 
L 557.7006 270.061873 
L 558.103572 268.674834 
L 558.418656 267.26523 
L 558.644608 265.838623 
L 558.780537 264.400644 
L 558.825907 262.956967 
" style="fill: none; stroke: #ffffff; stroke-linecap: square"/>
   </g>
   <g id="line2d_86">
    <path d="M 531.018524 240.474933 
L 535.833948 236.516215 
L 540.649373 240.474933 
" style="fill: none; stroke: #ffffff; stroke-linecap: square"/>
   </g>
   <g id="line2d_87">
    <path d="M 512.979942 260.40486 
L 512.382151 259.393213 
L 512.01428 259.356426 
L 511.467071 259.526567 
L 510.915264 260.40486 
L 511.002633 263.209879 
L 510.680746 267.242668 
L 511.370505 268.994655 
L 512.382151 269.321141 
L 513.347813 268.470439 
" style="fill: none; stroke: #ffffff; stroke-linecap: square"/>
   </g>
   <g id="line2d_88">
    <path d="M 558.687955 260.40486 
L 559.285746 259.393213 
L 559.653617 259.356426 
L 560.200826 259.526567 
L 560.752633 260.40486 
L 560.665263 263.209879 
L 560.987151 267.242668 
L 560.297392 268.994655 
L 559.285746 269.321141 
L 558.320084 268.470439 
" style="fill: none; stroke: #ffffff; stroke-linecap: square"/>
   </g>
  </g>
  <g id="axes_9">
   <g id="patch_22">
    <path d="M 72 362.115421 
L 438.892103 362.115421 
L 438.892103 307.739439 
L 72 307.739439 
L 72 362.115421 
z
" style="fill: none"/>
   </g>
   <g id="matplotlib.axis_9">
    <g id="xtick_17">
     <g id="line2d_89">
      <g>
       <use xlink:href="#mff191dd177" x="93.581888" y="362.115421" style="fill: #ffffff; stroke: #ffffff; stroke-width: 2"/>
      </g>
     </g>
    </g>
    <g id="xtick_18">
     <g id="line2d_90">
      <g>
       <use xlink:href="#mff191dd177" x="201.491331" y="362.115421" style="fill: #ffffff; stroke: #ffffff; stroke-width: 2"/>
      </g>
     </g>
    </g>
    <g id="xtick_19">
     <g id="line2d_91">
      <g>
       <use xlink:href="#mff191dd177" x="309.400773" y="362.115421" style="fill: #ffffff; stroke: #ffffff; stroke-width: 2"/>
      </g>
     </g>
    </g>
    <g id="xtick_20">
     <g id="line2d_92">
      <g>
       <use xlink:href="#mff191dd177" x="417.310215" y="362.115421" style="fill: #ffffff; stroke: #ffffff; stroke-width: 2"/>
      </g>
     </g>
    </g>
   </g>
   <g id="matplotlib.axis_10">
    <g id="ytick_9">
     <g id="line2d_93">
      <g>
       <use xlink:href="#m2316730be0" x="72" y="362.115421" style="fill: #ffffff; stroke: #ffffff; stroke-width: 2"/>
      </g>
     </g>
     <g id="text_9">
      <!-- 0.0 -->
      <g style="fill: #ffffff" transform="translate(39.555 368.194171)scale(0.16 -0.16)">
       <use xlink:href="#DejaVuSans-30"/>
       <use xlink:href="#DejaVuSans-2e" x="63.623047"/>
       <use xlink:href="#DejaVuSans-30" x="95.410156"/>
      </g>
     </g>
    </g>
    <g id="ytick_10">
     <g id="line2d_94">
      <g>
       <use xlink:href="#m2316730be0" x="72" y="325.864766" style="fill: #ffffff; stroke: #ffffff; stroke-width: 2"/>
      </g>
     </g>
     <g id="text_10">
      <!-- 0.1 -->
      <g style="fill: #ffffff" transform="translate(39.555 331.943516)scale(0.16 -0.16)">
       <use xlink:href="#DejaVuSans-30"/>
       <use xlink:href="#DejaVuSans-2e" x="63.623047"/>
       <use xlink:href="#DejaVuSans-31" x="95.410156"/>
      </g>
     </g>
    </g>
   </g>
   <g id="LineCollection_17">
    <path d="M 93.581888 348.270155 
L 93.581888 326.189934 
" clip-path="url(#pa707fb0ae4)" style="fill: none; stroke: #1f77b4; stroke-width: 2"/>
   </g>
   <g id="line2d_95">
    <g clip-path="url(#pa707fb0ae4)">
     <use xlink:href="#m054de0ed10" x="93.581888" y="348.270155" style="fill: #1f77b4; stroke: #1f77b4"/>
    </g>
   </g>
   <g id="line2d_96">
    <g clip-path="url(#pa707fb0ae4)">
     <use xlink:href="#m054de0ed10" x="93.581888" y="326.189934" style="fill: #1f77b4; stroke: #1f77b4"/>
    </g>
   </g>
   <g id="LineCollection_18">
    <path d="M 201.491331 344.998057 
L 201.491331 330.060785 
" clip-path="url(#pa707fb0ae4)" style="fill: none; stroke: #ff7f0e; stroke-width: 2"/>
   </g>
   <g id="line2d_97">
    <g clip-path="url(#pa707fb0ae4)">
     <use xlink:href="#m91a12e198a" x="201.491331" y="344.998057" style="fill: #ff7f0e; stroke: #ff7f0e"/>
    </g>
   </g>
   <g id="line2d_98">
    <g clip-path="url(#pa707fb0ae4)">
     <use xlink:href="#m91a12e198a" x="201.491331" y="330.060785" style="fill: #ff7f0e; stroke: #ff7f0e"/>
    </g>
   </g>
   <g id="LineCollection_19">
    <path d="M 309.400773 335.235979 
L 309.400773 318.28989 
" clip-path="url(#pa707fb0ae4)" style="fill: none; stroke: #2ca02c; stroke-width: 2"/>
   </g>
   <g id="line2d_99">
    <g clip-path="url(#pa707fb0ae4)">
     <use xlink:href="#m5a96fc69f3" x="309.400773" y="335.235979" style="fill: #2ca02c; stroke: #2ca02c"/>
    </g>
   </g>
   <g id="line2d_100">
    <g clip-path="url(#pa707fb0ae4)">
     <use xlink:href="#m5a96fc69f3" x="309.400773" y="318.28989" style="fill: #2ca02c; stroke: #2ca02c"/>
    </g>
   </g>
   <g id="LineCollection_20">
    <path d="M 417.310215 352.669764 
L 417.310215 337.54546 
" clip-path="url(#pa707fb0ae4)" style="fill: none; stroke: #d62728; stroke-width: 2"/>
   </g>
   <g id="line2d_101">
    <g clip-path="url(#pa707fb0ae4)">
     <use xlink:href="#m69a4e782f6" x="417.310215" y="352.669764" style="fill: #d62728; stroke: #d62728"/>
    </g>
   </g>
   <g id="line2d_102">
    <g clip-path="url(#pa707fb0ae4)">
     <use xlink:href="#m69a4e782f6" x="417.310215" y="337.54546" style="fill: #d62728; stroke: #d62728"/>
    </g>
   </g>
   <g id="line2d_103">
    <g clip-path="url(#pa707fb0ae4)">
     <use xlink:href="#m2a355d4515" x="93.581888" y="337.230044" style="fill: #1f77b4; stroke: #1f77b4"/>
    </g>
   </g>
   <g id="line2d_104">
    <g clip-path="url(#pa707fb0ae4)">
     <use xlink:href="#m4a1665cb66" x="201.491331" y="337.529421" style="fill: #ff7f0e; stroke: #ff7f0e"/>
    </g>
   </g>
   <g id="line2d_105">
    <g clip-path="url(#pa707fb0ae4)">
     <use xlink:href="#mf828e50cfc" x="309.400773" y="326.762935" style="fill: #2ca02c; stroke: #2ca02c"/>
    </g>
   </g>
   <g id="line2d_106">
    <g clip-path="url(#pa707fb0ae4)">
     <use xlink:href="#m0b917ad4ff" x="417.310215" y="345.107612" style="fill: #d62728; stroke: #d62728"/>
    </g>
   </g>
   <g id="patch_23">
    <path d="M 72 362.115421 
L 72 307.739439 
" style="fill: none; stroke: #ffffff; stroke-width: 2; stroke-linejoin: miter; stroke-linecap: square"/>
   </g>
   <g id="patch_24">
    <path d="M 438.892103 362.115421 
L 438.892103 307.739439 
" style="fill: none; stroke: #ffffff; stroke-width: 2; stroke-linejoin: miter; stroke-linecap: square"/>
   </g>
   <g id="patch_25">
    <path d="M 72 362.115421 
L 438.892103 362.115421 
" style="fill: none; stroke: #ffffff; stroke-width: 2; stroke-linejoin: miter; stroke-linecap: square"/>
   </g>
   <g id="patch_26">
    <path d="M 72 307.739439 
L 438.892103 307.739439 
" style="fill: none; stroke: #ffffff; stroke-width: 2; stroke-linejoin: miter; stroke-linecap: square"/>
   </g>
  </g>
  <g id="axes_10">
   <g id="PathCollection_5">
    <g>
     <use xlink:href="#m7769659a53" x="519.422783" y="333.491356" style="fill: #aa3377; stroke: #ffffff; stroke-width: 2"/>
    </g>
   </g>
   <g id="line2d_107">
    <path d="M 558.825907 336.651827 
L 558.780537 335.20815 
L 558.644608 333.77017 
L 558.418656 332.343563 
L 558.103572 330.933959 
L 557.7006 329.546921 
L 557.21133 328.187922 
L 556.637694 326.862327 
L 555.981955 325.575366 
L 555.246701 324.332119 
L 554.434833 323.137493 
L 553.549557 321.996201 
L 552.594365 320.912748 
L 551.573027 319.891411 
L 550.489574 318.936218 
L 549.348282 318.050942 
L 548.153656 317.239074 
L 546.910409 316.50382 
L 545.623448 315.848081 
L 544.297853 315.274445 
L 542.938854 314.785175 
L 541.551816 314.382203 
L 540.142212 314.067119 
L 538.715605 313.841167 
L 537.277625 313.705238 
L 535.833948 313.659869 
L 534.390271 313.705238 
L 532.952292 313.841167 
L 531.525685 314.067119 
L 530.116081 314.382203 
L 528.729042 314.785175 
L 527.370044 315.274445 
L 526.044449 315.848081 
L 524.757488 316.50382 
L 523.514241 317.239074 
L 522.319614 318.050942 
L 521.178323 318.936218 
L 520.09487 319.891411 
L 519.073532 320.912748 
L 518.11834 321.996201 
L 517.233063 323.137493 
L 516.421196 324.332119 
L 515.685942 325.575366 
L 515.030203 326.862327 
L 514.456566 328.187922 
L 513.967297 329.546921 
L 513.564325 330.933959 
L 513.249241 332.343563 
L 513.023289 333.77017 
L 512.887359 335.20815 
L 512.84199 336.651827 
L 512.887359 338.095504 
L 513.023289 339.533483 
L 513.249241 340.96009 
L 513.564325 342.369694 
L 513.967297 343.756733 
L 514.456566 345.115731 
L 515.030203 346.441326 
L 515.685942 347.728287 
L 516.421196 348.971534 
L 517.233063 350.166161 
L 518.11834 351.307453 
L 519.073532 352.390905 
L 520.09487 353.412243 
L 521.178323 354.367435 
L 522.319614 355.252712 
L 523.514241 356.064579 
L 524.757488 356.799833 
L 526.044449 357.455573 
L 527.370044 358.029209 
L 528.729042 358.518479 
L 530.116081 358.92145 
L 531.525685 359.236534 
L 532.952292 359.462487 
L 534.390271 359.598416 
L 535.833948 359.643785 
L 537.277625 359.598416 
L 538.715605 359.462487 
L 540.142212 359.236534 
L 541.551816 358.92145 
L 542.938854 358.518479 
L 544.297853 358.029209 
L 545.623448 357.455573 
L 546.910409 356.799833 
L 548.153656 356.064579 
L 549.348282 355.252712 
L 550.489574 354.367435 
L 551.573027 353.412243 
L 552.594365 352.390905 
L 553.549557 351.307453 
L 554.434833 350.166161 
L 555.246701 348.971534 
L 555.981955 347.728287 
L 556.637694 346.441326 
L 557.21133 345.115731 
L 557.7006 343.756733 
L 558.103572 342.369694 
L 558.418656 340.96009 
L 558.644608 339.533483 
L 558.780537 338.095504 
L 558.825907 336.651827 
" style="fill: none; stroke: #ffffff; stroke-linecap: square"/>
   </g>
   <g id="line2d_108">
    <path d="M 531.018524 314.169793 
L 535.833948 310.211075 
L 540.649373 314.169793 
" style="fill: none; stroke: #ffffff; stroke-linecap: square"/>
   </g>
   <g id="line2d_109">
    <path d="M 512.979942 334.099719 
L 512.382151 333.088073 
L 512.01428 333.051286 
L 511.467071 333.221427 
L 510.915264 334.099719 
L 511.002633 336.904738 
L 510.680746 340.937528 
L 511.370505 342.689515 
L 512.382151 343.016001 
L 513.347813 342.165298 
" style="fill: none; stroke: #ffffff; stroke-linecap: square"/>
   </g>
   <g id="line2d_110">
    <path d="M 558.687955 334.099719 
L 559.285746 333.088073 
L 559.653617 333.051286 
L 560.200826 333.221427 
L 560.752633 334.099719 
L 560.665263 336.904738 
L 560.987151 340.937528 
L 560.297392 342.689515 
L 559.285746 343.016001 
L 558.320084 342.165298 
" style="fill: none; stroke: #ffffff; stroke-linecap: square"/>
   </g>
  </g>
  <g id="axes_11">
   <g id="patch_27">
    <path d="M 72 435.81028 
L 438.892103 435.81028 
L 438.892103 381.434299 
L 72 381.434299 
L 72 435.81028 
z
" style="fill: none"/>
   </g>
   <g id="matplotlib.axis_11">
    <g id="xtick_21">
     <g id="line2d_111">
      <g>
       <use xlink:href="#mff191dd177" x="93.581888" y="435.81028" style="fill: #ffffff; stroke: #ffffff; stroke-width: 2"/>
      </g>
     </g>
    </g>
    <g id="xtick_22">
     <g id="line2d_112">
      <g>
       <use xlink:href="#mff191dd177" x="201.491331" y="435.81028" style="fill: #ffffff; stroke: #ffffff; stroke-width: 2"/>
      </g>
     </g>
    </g>
    <g id="xtick_23">
     <g id="line2d_113">
      <g>
       <use xlink:href="#mff191dd177" x="309.400773" y="435.81028" style="fill: #ffffff; stroke: #ffffff; stroke-width: 2"/>
      </g>
     </g>
    </g>
    <g id="xtick_24">
     <g id="line2d_114">
      <g>
       <use xlink:href="#mff191dd177" x="417.310215" y="435.81028" style="fill: #ffffff; stroke: #ffffff; stroke-width: 2"/>
      </g>
     </g>
    </g>
   </g>
   <g id="matplotlib.axis_12">
    <g id="ytick_11">
     <g id="line2d_115">
      <g>
       <use xlink:href="#m2316730be0" x="72" y="435.81028" style="fill: #ffffff; stroke: #ffffff; stroke-width: 2"/>
      </g>
     </g>
     <g id="text_11">
      <!-- 0.0 -->
      <g style="fill: #ffffff" transform="translate(39.555 441.88903)scale(0.16 -0.16)">
       <use xlink:href="#DejaVuSans-30"/>
       <use xlink:href="#DejaVuSans-2e" x="63.623047"/>
       <use xlink:href="#DejaVuSans-30" x="95.410156"/>
      </g>
     </g>
    </g>
    <g id="ytick_12">
     <g id="line2d_116">
      <g>
       <use xlink:href="#m2316730be0" x="72" y="399.559626" style="fill: #ffffff; stroke: #ffffff; stroke-width: 2"/>
      </g>
     </g>
     <g id="text_12">
      <!-- 0.1 -->
      <g style="fill: #ffffff" transform="translate(39.555 405.638376)scale(0.16 -0.16)">
       <use xlink:href="#DejaVuSans-30"/>
       <use xlink:href="#DejaVuSans-2e" x="63.623047"/>
       <use xlink:href="#DejaVuSans-31" x="95.410156"/>
      </g>
     </g>
    </g>
   </g>
   <g id="LineCollection_21">
    <path d="M 93.581888 430.854594 
L 93.581888 415.0164 
" clip-path="url(#p5c8579fe26)" style="fill: none; stroke: #1f77b4; stroke-width: 2"/>
   </g>
   <g id="line2d_117">
    <g clip-path="url(#p5c8579fe26)">
     <use xlink:href="#m054de0ed10" x="93.581888" y="430.854594" style="fill: #1f77b4; stroke: #1f77b4"/>
    </g>
   </g>
   <g id="line2d_118">
    <g clip-path="url(#p5c8579fe26)">
     <use xlink:href="#m054de0ed10" x="93.581888" y="415.0164" style="fill: #1f77b4; stroke: #1f77b4"/>
    </g>
   </g>
   <g id="LineCollection_22">
    <path d="M 201.491331 429.295358 
L 201.491331 416.682392 
" clip-path="url(#p5c8579fe26)" style="fill: none; stroke: #ff7f0e; stroke-width: 2"/>
   </g>
   <g id="line2d_119">
    <g clip-path="url(#p5c8579fe26)">
     <use xlink:href="#m91a12e198a" x="201.491331" y="429.295358" style="fill: #ff7f0e; stroke: #ff7f0e"/>
    </g>
   </g>
   <g id="line2d_120">
    <g clip-path="url(#p5c8579fe26)">
     <use xlink:href="#m91a12e198a" x="201.491331" y="416.682392" style="fill: #ff7f0e; stroke: #ff7f0e"/>
    </g>
   </g>
   <g id="LineCollection_23">
    <path d="M 309.400773 416.006146 
L 309.400773 399.531158 
" clip-path="url(#p5c8579fe26)" style="fill: none; stroke: #2ca02c; stroke-width: 2"/>
   </g>
   <g id="line2d_121">
    <g clip-path="url(#p5c8579fe26)">
     <use xlink:href="#m5a96fc69f3" x="309.400773" y="416.006146" style="fill: #2ca02c; stroke: #2ca02c"/>
    </g>
   </g>
   <g id="line2d_122">
    <g clip-path="url(#p5c8579fe26)">
     <use xlink:href="#m5a96fc69f3" x="309.400773" y="399.531158" style="fill: #2ca02c; stroke: #2ca02c"/>
    </g>
   </g>
   <g id="LineCollection_24">
    <path d="M 417.310215 432.893357 
L 417.310215 416.209018 
" clip-path="url(#p5c8579fe26)" style="fill: none; stroke: #d62728; stroke-width: 2"/>
   </g>
   <g id="line2d_123">
    <g clip-path="url(#p5c8579fe26)">
     <use xlink:href="#m69a4e782f6" x="417.310215" y="432.893357" style="fill: #d62728; stroke: #d62728"/>
    </g>
   </g>
   <g id="line2d_124">
    <g clip-path="url(#p5c8579fe26)">
     <use xlink:href="#m69a4e782f6" x="417.310215" y="416.209018" style="fill: #d62728; stroke: #d62728"/>
    </g>
   </g>
   <g id="line2d_125">
    <g clip-path="url(#p5c8579fe26)">
     <use xlink:href="#m2a355d4515" x="93.581888" y="422.935497" style="fill: #1f77b4; stroke: #1f77b4"/>
    </g>
   </g>
   <g id="line2d_126">
    <g clip-path="url(#p5c8579fe26)">
     <use xlink:href="#m4a1665cb66" x="201.491331" y="422.988875" style="fill: #ff7f0e; stroke: #ff7f0e"/>
    </g>
   </g>
   <g id="line2d_127">
    <g clip-path="url(#p5c8579fe26)">
     <use xlink:href="#mf828e50cfc" x="309.400773" y="407.768652" style="fill: #2ca02c; stroke: #2ca02c"/>
    </g>
   </g>
   <g id="line2d_128">
    <g clip-path="url(#p5c8579fe26)">
     <use xlink:href="#m0b917ad4ff" x="417.310215" y="424.551187" style="fill: #d62728; stroke: #d62728"/>
    </g>
   </g>
   <g id="patch_28">
    <path d="M 72 435.81028 
L 72 381.434299 
" style="fill: none; stroke: #ffffff; stroke-width: 2; stroke-linejoin: miter; stroke-linecap: square"/>
   </g>
   <g id="patch_29">
    <path d="M 438.892103 435.81028 
L 438.892103 381.434299 
" style="fill: none; stroke: #ffffff; stroke-width: 2; stroke-linejoin: miter; stroke-linecap: square"/>
   </g>
   <g id="patch_30">
    <path d="M 72 435.81028 
L 438.892103 435.81028 
" style="fill: none; stroke: #ffffff; stroke-width: 2; stroke-linejoin: miter; stroke-linecap: square"/>
   </g>
   <g id="patch_31">
    <path d="M 72 381.434299 
L 438.892103 381.434299 
" style="fill: none; stroke: #ffffff; stroke-width: 2; stroke-linejoin: miter; stroke-linecap: square"/>
   </g>
  </g>
  <g id="axes_12">
   <g id="PathCollection_6">
    <g>
     <use xlink:href="#m7769659a53" x="518.148286" y="410.495546" style="fill: #aa3377; stroke: #ffffff; stroke-width: 2"/>
    </g>
   </g>
   <g id="line2d_129">
    <path d="M 558.825907 410.346687 
L 558.780537 408.90301 
L 558.644608 407.46503 
L 558.418656 406.038423 
L 558.103572 404.628819 
L 557.7006 403.241781 
L 557.21133 401.882782 
L 556.637694 400.557187 
L 555.981955 399.270226 
L 555.246701 398.026979 
L 554.434833 396.832353 
L 553.549557 395.691061 
L 552.594365 394.607608 
L 551.573027 393.58627 
L 550.489574 392.631078 
L 549.348282 391.745802 
L 548.153656 390.933934 
L 546.910409 390.19868 
L 545.623448 389.542941 
L 544.297853 388.969304 
L 542.938854 388.480035 
L 541.551816 388.077063 
L 540.142212 387.761979 
L 538.715605 387.536027 
L 537.277625 387.400098 
L 535.833948 387.354728 
L 534.390271 387.400098 
L 532.952292 387.536027 
L 531.525685 387.761979 
L 530.116081 388.077063 
L 528.729042 388.480035 
L 527.370044 388.969304 
L 526.044449 389.542941 
L 524.757488 390.19868 
L 523.514241 390.933934 
L 522.319614 391.745802 
L 521.178323 392.631078 
L 520.09487 393.58627 
L 519.073532 394.607608 
L 518.11834 395.691061 
L 517.233063 396.832353 
L 516.421196 398.026979 
L 515.685942 399.270226 
L 515.030203 400.557187 
L 514.456566 401.882782 
L 513.967297 403.241781 
L 513.564325 404.628819 
L 513.249241 406.038423 
L 513.023289 407.46503 
L 512.887359 408.90301 
L 512.84199 410.346687 
L 512.887359 411.790364 
L 513.023289 413.228343 
L 513.249241 414.65495 
L 513.564325 416.064554 
L 513.967297 417.451592 
L 514.456566 418.810591 
L 515.030203 420.136186 
L 515.685942 421.423147 
L 516.421196 422.666394 
L 517.233063 423.861021 
L 518.11834 425.002312 
L 519.073532 426.085765 
L 520.09487 427.107103 
L 521.178323 428.062295 
L 522.319614 428.947572 
L 523.514241 429.759439 
L 524.757488 430.494693 
L 526.044449 431.150432 
L 527.370044 431.724069 
L 528.729042 432.213338 
L 530.116081 432.61631 
L 531.525685 432.931394 
L 532.952292 433.157346 
L 534.390271 433.293275 
L 535.833948 433.338645 
L 537.277625 433.293275 
L 538.715605 433.157346 
L 540.142212 432.931394 
L 541.551816 432.61631 
L 542.938854 432.213338 
L 544.297853 431.724069 
L 545.623448 431.150432 
L 546.910409 430.494693 
L 548.153656 429.759439 
L 549.348282 428.947572 
L 550.489574 428.062295 
L 551.573027 427.107103 
L 552.594365 426.085765 
L 553.549557 425.002312 
L 554.434833 423.861021 
L 555.246701 422.666394 
L 555.981955 421.423147 
L 556.637694 420.136186 
L 557.21133 418.810591 
L 557.7006 417.451592 
L 558.103572 416.064554 
L 558.418656 414.65495 
L 558.644608 413.228343 
L 558.780537 411.790364 
L 558.825907 410.346687 
" style="fill: none; stroke: #ffffff; stroke-linecap: square"/>
   </g>
   <g id="line2d_130">
    <path d="M 531.018524 387.864653 
L 535.833948 383.905935 
L 540.649373 387.864653 
" style="fill: none; stroke: #ffffff; stroke-linecap: square"/>
   </g>
   <g id="line2d_131">
    <path d="M 512.979942 407.794579 
L 512.382151 406.782933 
L 512.01428 406.746146 
L 511.467071 406.916286 
L 510.915264 407.794579 
L 511.002633 410.599598 
L 510.680746 414.632388 
L 511.370505 416.384375 
L 512.382151 416.710861 
L 513.347813 415.860158 
" style="fill: none; stroke: #ffffff; stroke-linecap: square"/>
   </g>
   <g id="line2d_132">
    <path d="M 558.687955 407.794579 
L 559.285746 406.782933 
L 559.653617 406.746146 
L 560.200826 406.916286 
L 560.752633 407.794579 
L 560.665263 410.599598 
L 560.987151 414.632388 
L 560.297392 416.384375 
L 559.285746 416.710861 
L 558.320084 415.860158 
" style="fill: none; stroke: #ffffff; stroke-linecap: square"/>
   </g>
  </g>
  <g id="axes_13">
   <g id="patch_32">
    <path d="M 72 509.50514 
L 438.892103 509.50514 
L 438.892103 455.129159 
L 72 455.129159 
L 72 509.50514 
z
" style="fill: none"/>
   </g>
   <g id="matplotlib.axis_13">
    <g id="xtick_25">
     <g id="line2d_133">
      <g>
       <use xlink:href="#mff191dd177" x="93.581888" y="509.50514" style="fill: #ffffff; stroke: #ffffff; stroke-width: 2"/>
      </g>
     </g>
    </g>
    <g id="xtick_26">
     <g id="line2d_134">
      <g>
       <use xlink:href="#mff191dd177" x="201.491331" y="509.50514" style="fill: #ffffff; stroke: #ffffff; stroke-width: 2"/>
      </g>
     </g>
    </g>
    <g id="xtick_27">
     <g id="line2d_135">
      <g>
       <use xlink:href="#mff191dd177" x="309.400773" y="509.50514" style="fill: #ffffff; stroke: #ffffff; stroke-width: 2"/>
      </g>
     </g>
    </g>
    <g id="xtick_28">
     <g id="line2d_136">
      <g>
       <use xlink:href="#mff191dd177" x="417.310215" y="509.50514" style="fill: #ffffff; stroke: #ffffff; stroke-width: 2"/>
      </g>
     </g>
    </g>
   </g>
   <g id="matplotlib.axis_14">
    <g id="ytick_13">
     <g id="line2d_137">
      <g>
       <use xlink:href="#m2316730be0" x="72" y="509.50514" style="fill: #ffffff; stroke: #ffffff; stroke-width: 2"/>
      </g>
     </g>
     <g id="text_13">
      <!-- 0.0 -->
      <g style="fill: #ffffff" transform="translate(39.555 515.58389)scale(0.16 -0.16)">
       <use xlink:href="#DejaVuSans-30"/>
       <use xlink:href="#DejaVuSans-2e" x="63.623047"/>
       <use xlink:href="#DejaVuSans-30" x="95.410156"/>
      </g>
     </g>
    </g>
    <g id="ytick_14">
     <g id="line2d_138">
      <g>
       <use xlink:href="#m2316730be0" x="72" y="473.254486" style="fill: #ffffff; stroke: #ffffff; stroke-width: 2"/>
      </g>
     </g>
     <g id="text_14">
      <!-- 0.1 -->
      <g style="fill: #ffffff" transform="translate(39.555 479.333236)scale(0.16 -0.16)">
       <use xlink:href="#DejaVuSans-30"/>
       <use xlink:href="#DejaVuSans-2e" x="63.623047"/>
       <use xlink:href="#DejaVuSans-31" x="95.410156"/>
      </g>
     </g>
    </g>
   </g>
   <g id="LineCollection_25">
    <path d="M 93.581888 501.086544 
L 93.581888 485.594511 
" clip-path="url(#p3302a6999f)" style="fill: none; stroke: #1f77b4; stroke-width: 2"/>
   </g>
   <g id="line2d_139">
    <g clip-path="url(#p3302a6999f)">
     <use xlink:href="#m054de0ed10" x="93.581888" y="501.086544" style="fill: #1f77b4; stroke: #1f77b4"/>
    </g>
   </g>
   <g id="line2d_140">
    <g clip-path="url(#p3302a6999f)">
     <use xlink:href="#m054de0ed10" x="93.581888" y="485.594511" style="fill: #1f77b4; stroke: #1f77b4"/>
    </g>
   </g>
   <g id="LineCollection_26">
    <path d="M 201.491331 495.393547 
L 201.491331 482.269607 
" clip-path="url(#p3302a6999f)" style="fill: none; stroke: #ff7f0e; stroke-width: 2"/>
   </g>
   <g id="line2d_141">
    <g clip-path="url(#p3302a6999f)">
     <use xlink:href="#m91a12e198a" x="201.491331" y="495.393547" style="fill: #ff7f0e; stroke: #ff7f0e"/>
    </g>
   </g>
   <g id="line2d_142">
    <g clip-path="url(#p3302a6999f)">
     <use xlink:href="#m91a12e198a" x="201.491331" y="482.269607" style="fill: #ff7f0e; stroke: #ff7f0e"/>
    </g>
   </g>
   <g id="LineCollection_27">
    <path d="M 309.400773 500.000321 
L 309.400773 487.065212 
" clip-path="url(#p3302a6999f)" style="fill: none; stroke: #2ca02c; stroke-width: 2"/>
   </g>
   <g id="line2d_143">
    <g clip-path="url(#p3302a6999f)">
     <use xlink:href="#m5a96fc69f3" x="309.400773" y="500.000321" style="fill: #2ca02c; stroke: #2ca02c"/>
    </g>
   </g>
   <g id="line2d_144">
    <g clip-path="url(#p3302a6999f)">
     <use xlink:href="#m5a96fc69f3" x="309.400773" y="487.065212" style="fill: #2ca02c; stroke: #2ca02c"/>
    </g>
   </g>
   <g id="LineCollection_28">
    <path d="M 417.310215 502.422375 
L 417.310215 491.553631 
" clip-path="url(#p3302a6999f)" style="fill: none; stroke: #d62728; stroke-width: 2"/>
   </g>
   <g id="line2d_145">
    <g clip-path="url(#p3302a6999f)">
     <use xlink:href="#m69a4e782f6" x="417.310215" y="502.422375" style="fill: #d62728; stroke: #d62728"/>
    </g>
   </g>
   <g id="line2d_146">
    <g clip-path="url(#p3302a6999f)">
     <use xlink:href="#m69a4e782f6" x="417.310215" y="491.553631" style="fill: #d62728; stroke: #d62728"/>
    </g>
   </g>
   <g id="line2d_147">
    <g clip-path="url(#p3302a6999f)">
     <use xlink:href="#m2a355d4515" x="93.581888" y="493.340528" style="fill: #1f77b4; stroke: #1f77b4"/>
    </g>
   </g>
   <g id="line2d_148">
    <g clip-path="url(#p3302a6999f)">
     <use xlink:href="#m4a1665cb66" x="201.491331" y="488.831577" style="fill: #ff7f0e; stroke: #ff7f0e"/>
    </g>
   </g>
   <g id="line2d_149">
    <g clip-path="url(#p3302a6999f)">
     <use xlink:href="#mf828e50cfc" x="309.400773" y="493.532767" style="fill: #2ca02c; stroke: #2ca02c"/>
    </g>
   </g>
   <g id="line2d_150">
    <g clip-path="url(#p3302a6999f)">
     <use xlink:href="#m0b917ad4ff" x="417.310215" y="496.988003" style="fill: #d62728; stroke: #d62728"/>
    </g>
   </g>
   <g id="patch_33">
    <path d="M 72 509.50514 
L 72 455.129159 
" style="fill: none; stroke: #ffffff; stroke-width: 2; stroke-linejoin: miter; stroke-linecap: square"/>
   </g>
   <g id="patch_34">
    <path d="M 438.892103 509.50514 
L 438.892103 455.129159 
" style="fill: none; stroke: #ffffff; stroke-width: 2; stroke-linejoin: miter; stroke-linecap: square"/>
   </g>
   <g id="patch_35">
    <path d="M 72 509.50514 
L 438.892103 509.50514 
" style="fill: none; stroke: #ffffff; stroke-width: 2; stroke-linejoin: miter; stroke-linecap: square"/>
   </g>
   <g id="patch_36">
    <path d="M 72 455.129159 
L 438.892103 455.129159 
" style="fill: none; stroke: #ffffff; stroke-width: 2; stroke-linejoin: miter; stroke-linecap: square"/>
   </g>
  </g>
  <g id="axes_14">
   <g id="PathCollection_7">
    <g>
     <use xlink:href="#m7769659a53" x="520.752004" y="483.625383" style="fill: #aa3377; stroke: #ffffff; stroke-width: 2"/>
    </g>
   </g>
   <g id="line2d_151">
    <path d="M 558.825907 484.041546 
L 558.780537 482.597869 
L 558.644608 481.15989 
L 558.418656 479.733283 
L 558.103572 478.323679 
L 557.7006 476.936641 
L 557.21133 475.577642 
L 556.637694 474.252047 
L 555.981955 472.965086 
L 555.246701 471.721839 
L 554.434833 470.527212 
L 553.549557 469.385921 
L 552.594365 468.302468 
L 551.573027 467.28113 
L 550.489574 466.325938 
L 549.348282 465.440661 
L 548.153656 464.628794 
L 546.910409 463.89354 
L 545.623448 463.237801 
L 544.297853 462.664164 
L 542.938854 462.174895 
L 541.551816 461.771923 
L 540.142212 461.456839 
L 538.715605 461.230887 
L 537.277625 461.094958 
L 535.833948 461.049588 
L 534.390271 461.094958 
L 532.952292 461.230887 
L 531.525685 461.456839 
L 530.116081 461.771923 
L 528.729042 462.174895 
L 527.370044 462.664164 
L 526.044449 463.237801 
L 524.757488 463.89354 
L 523.514241 464.628794 
L 522.319614 465.440661 
L 521.178323 466.325938 
L 520.09487 467.28113 
L 519.073532 468.302468 
L 518.11834 469.385921 
L 517.233063 470.527212 
L 516.421196 471.721839 
L 515.685942 472.965086 
L 515.030203 474.252047 
L 514.456566 475.577642 
L 513.967297 476.936641 
L 513.564325 478.323679 
L 513.249241 479.733283 
L 513.023289 481.15989 
L 512.887359 482.597869 
L 512.84199 484.041546 
L 512.887359 485.485223 
L 513.023289 486.923203 
L 513.249241 488.34981 
L 513.564325 489.759414 
L 513.967297 491.146452 
L 514.456566 492.505451 
L 515.030203 493.831046 
L 515.685942 495.118007 
L 516.421196 496.361254 
L 517.233063 497.55588 
L 518.11834 498.697172 
L 519.073532 499.780625 
L 520.09487 500.801963 
L 521.178323 501.757155 
L 522.319614 502.642431 
L 523.514241 503.454299 
L 524.757488 504.189553 
L 526.044449 504.845292 
L 527.370044 505.418929 
L 528.729042 505.908198 
L 530.116081 506.31117 
L 531.525685 506.626254 
L 532.952292 506.852206 
L 534.390271 506.988135 
L 535.833948 507.033505 
L 537.277625 506.988135 
L 538.715605 506.852206 
L 540.142212 506.626254 
L 541.551816 506.31117 
L 542.938854 505.908198 
L 544.297853 505.418929 
L 545.623448 504.845292 
L 546.910409 504.189553 
L 548.153656 503.454299 
L 549.348282 502.642431 
L 550.489574 501.757155 
L 551.573027 500.801963 
L 552.594365 499.780625 
L 553.549557 498.697172 
L 554.434833 497.55588 
L 555.246701 496.361254 
L 555.981955 495.118007 
L 556.637694 493.831046 
L 557.21133 492.505451 
L 557.7006 491.146452 
L 558.103572 489.759414 
L 558.418656 488.34981 
L 558.644608 486.923203 
L 558.780537 485.485223 
L 558.825907 484.041546 
" style="fill: none; stroke: #ffffff; stroke-linecap: square"/>
   </g>
   <g id="line2d_152">
    <path d="M 531.018524 461.559513 
L 535.833948 457.600794 
L 540.649373 461.559513 
" style="fill: none; stroke: #ffffff; stroke-linecap: square"/>
   </g>
   <g id="line2d_153">
    <path d="M 512.979942 481.489439 
L 512.382151 480.477793 
L 512.01428 480.441006 
L 511.467071 480.611146 
L 510.915264 481.489439 
L 511.002633 484.294458 
L 510.680746 488.327247 
L 511.370505 490.079235 
L 512.382151 490.40572 
L 513.347813 489.555018 
" style="fill: none; stroke: #ffffff; stroke-linecap: square"/>
   </g>
   <g id="line2d_154">
    <path d="M 558.687955 481.489439 
L 559.285746 480.477793 
L 559.653617 480.441006 
L 560.200826 480.611146 
L 560.752633 481.489439 
L 560.665263 484.294458 
L 560.987151 488.327247 
L 560.297392 490.079235 
L 559.285746 490.40572 
L 558.320084 489.555018 
" style="fill: none; stroke: #ffffff; stroke-linecap: square"/>
   </g>
  </g>
  <g id="axes_15">
   <g id="patch_37">
    <path d="M 72 583.2 
L 438.892103 583.2 
L 438.892103 528.824019 
L 72 528.824019 
L 72 583.2 
z
" style="fill: none"/>
   </g>
   <g id="matplotlib.axis_15">
    <g id="xtick_29">
     <g id="line2d_155">
      <g>
       <use xlink:href="#mff191dd177" x="93.581888" y="583.2" style="fill: #ffffff; stroke: #ffffff; stroke-width: 2"/>
      </g>
     </g>
    </g>
    <g id="xtick_30">
     <g id="line2d_156">
      <g>
       <use xlink:href="#mff191dd177" x="201.491331" y="583.2" style="fill: #ffffff; stroke: #ffffff; stroke-width: 2"/>
      </g>
     </g>
    </g>
    <g id="xtick_31">
     <g id="line2d_157">
      <g>
       <use xlink:href="#mff191dd177" x="309.400773" y="583.2" style="fill: #ffffff; stroke: #ffffff; stroke-width: 2"/>
      </g>
     </g>
    </g>
    <g id="xtick_32">
     <g id="line2d_158">
      <g>
       <use xlink:href="#mff191dd177" x="417.310215" y="583.2" style="fill: #ffffff; stroke: #ffffff; stroke-width: 2"/>
      </g>
     </g>
    </g>
   </g>
   <g id="matplotlib.axis_16">
    <g id="ytick_15">
     <g id="line2d_159">
      <g>
       <use xlink:href="#m2316730be0" x="72" y="583.2" style="fill: #ffffff; stroke: #ffffff; stroke-width: 2"/>
      </g>
     </g>
     <g id="text_15">
      <!-- 0.0 -->
      <g style="fill: #ffffff" transform="translate(39.555 589.27875)scale(0.16 -0.16)">
       <use xlink:href="#DejaVuSans-30"/>
       <use xlink:href="#DejaVuSans-2e" x="63.623047"/>
       <use xlink:href="#DejaVuSans-30" x="95.410156"/>
      </g>
     </g>
    </g>
    <g id="ytick_16">
     <g id="line2d_160">
      <g>
       <use xlink:href="#m2316730be0" x="72" y="546.949346" style="fill: #ffffff; stroke: #ffffff; stroke-width: 2"/>
      </g>
     </g>
     <g id="text_16">
      <!-- 0.1 -->
      <g style="fill: #ffffff" transform="translate(39.555 553.028096)scale(0.16 -0.16)">
       <use xlink:href="#DejaVuSans-30"/>
       <use xlink:href="#DejaVuSans-2e" x="63.623047"/>
       <use xlink:href="#DejaVuSans-31" x="95.410156"/>
      </g>
     </g>
    </g>
   </g>
   <g id="LineCollection_29">
    <path d="M 93.581888 570.665498 
L 93.581888 557.406954 
" clip-path="url(#p41b48bc6fb)" style="fill: none; stroke: #1f77b4; stroke-width: 2"/>
   </g>
   <g id="line2d_161">
    <g clip-path="url(#p41b48bc6fb)">
     <use xlink:href="#m054de0ed10" x="93.581888" y="570.665498" style="fill: #1f77b4; stroke: #1f77b4"/>
    </g>
   </g>
   <g id="line2d_162">
    <g clip-path="url(#p41b48bc6fb)">
     <use xlink:href="#m054de0ed10" x="93.581888" y="557.406954" style="fill: #1f77b4; stroke: #1f77b4"/>
    </g>
   </g>
   <g id="LineCollection_30">
    <path d="M 201.491331 574.329621 
L 201.491331 565.66582 
" clip-path="url(#p41b48bc6fb)" style="fill: none; stroke: #ff7f0e; stroke-width: 2"/>
   </g>
   <g id="line2d_163">
    <g clip-path="url(#p41b48bc6fb)">
     <use xlink:href="#m91a12e198a" x="201.491331" y="574.329621" style="fill: #ff7f0e; stroke: #ff7f0e"/>
    </g>
   </g>
   <g id="line2d_164">
    <g clip-path="url(#p41b48bc6fb)">
     <use xlink:href="#m91a12e198a" x="201.491331" y="565.66582" style="fill: #ff7f0e; stroke: #ff7f0e"/>
    </g>
   </g>
   <g id="LineCollection_31">
    <path d="M 309.400773 563.632186 
L 309.400773 550.346069 
" clip-path="url(#p41b48bc6fb)" style="fill: none; stroke: #2ca02c; stroke-width: 2"/>
   </g>
   <g id="line2d_165">
    <g clip-path="url(#p41b48bc6fb)">
     <use xlink:href="#m5a96fc69f3" x="309.400773" y="563.632186" style="fill: #2ca02c; stroke: #2ca02c"/>
    </g>
   </g>
   <g id="line2d_166">
    <g clip-path="url(#p41b48bc6fb)">
     <use xlink:href="#m5a96fc69f3" x="309.400773" y="550.346069" style="fill: #2ca02c; stroke: #2ca02c"/>
    </g>
   </g>
   <g id="LineCollection_32">
    <path d="M 417.310215 570.560492 
L 417.310215 559.048652 
" clip-path="url(#p41b48bc6fb)" style="fill: none; stroke: #d62728; stroke-width: 2"/>
   </g>
   <g id="line2d_167">
    <g clip-path="url(#p41b48bc6fb)">
     <use xlink:href="#m69a4e782f6" x="417.310215" y="570.560492" style="fill: #d62728; stroke: #d62728"/>
    </g>
   </g>
   <g id="line2d_168">
    <g clip-path="url(#p41b48bc6fb)">
     <use xlink:href="#m69a4e782f6" x="417.310215" y="559.048652" style="fill: #d62728; stroke: #d62728"/>
    </g>
   </g>
   <g id="line2d_169">
    <g clip-path="url(#p41b48bc6fb)">
     <use xlink:href="#m2a355d4515" x="93.581888" y="564.036226" style="fill: #1f77b4; stroke: #1f77b4"/>
    </g>
   </g>
   <g id="line2d_170">
    <g clip-path="url(#p41b48bc6fb)">
     <use xlink:href="#m4a1665cb66" x="201.491331" y="569.997721" style="fill: #ff7f0e; stroke: #ff7f0e"/>
    </g>
   </g>
   <g id="line2d_171">
    <g clip-path="url(#p41b48bc6fb)">
     <use xlink:href="#mf828e50cfc" x="309.400773" y="556.989128" style="fill: #2ca02c; stroke: #2ca02c"/>
    </g>
   </g>
   <g id="line2d_172">
    <g clip-path="url(#p41b48bc6fb)">
     <use xlink:href="#m0b917ad4ff" x="417.310215" y="564.804572" style="fill: #d62728; stroke: #d62728"/>
    </g>
   </g>
   <g id="patch_38">
    <path d="M 72 583.2 
L 72 528.824019 
" style="fill: none; stroke: #ffffff; stroke-width: 2; stroke-linejoin: miter; stroke-linecap: square"/>
   </g>
   <g id="patch_39">
    <path d="M 438.892103 583.2 
L 438.892103 528.824019 
" style="fill: none; stroke: #ffffff; stroke-width: 2; stroke-linejoin: miter; stroke-linecap: square"/>
   </g>
   <g id="patch_40">
    <path d="M 72 583.2 
L 438.892103 583.2 
" style="fill: none; stroke: #ffffff; stroke-width: 2; stroke-linejoin: miter; stroke-linecap: square"/>
   </g>
   <g id="patch_41">
    <path d="M 72 528.824019 
L 438.892103 528.824019 
" style="fill: none; stroke: #ffffff; stroke-width: 2; stroke-linejoin: miter; stroke-linecap: square"/>
   </g>
  </g>
  <g id="axes_16">
   <g id="PathCollection_8">
    <g>
     <use xlink:href="#m49b024ad5b" x="519.940337" y="560.532133" style="fill: #ff0000; stroke: #ff0000; stroke-width: 2"/>
    </g>
   </g>
   <g id="line2d_173">
    <path d="M 558.825907 557.736406 
L 558.780537 556.292729 
L 558.644608 554.85475 
L 558.418656 553.428143 
L 558.103572 552.018539 
L 557.7006 550.6315 
L 557.21133 549.272502 
L 556.637694 547.946907 
L 555.981955 546.659946 
L 555.246701 545.416699 
L 554.434833 544.222072 
L 553.549557 543.08078 
L 552.594365 541.997328 
L 551.573027 540.97599 
L 550.489574 540.020798 
L 549.348282 539.135521 
L 548.153656 538.323654 
L 546.910409 537.5884 
L 545.623448 536.93266 
L 544.297853 536.359024 
L 542.938854 535.869754 
L 541.551816 535.466783 
L 540.142212 535.151699 
L 538.715605 534.925746 
L 537.277625 534.789817 
L 535.833948 534.744448 
L 534.390271 534.789817 
L 532.952292 534.925746 
L 531.525685 535.151699 
L 530.116081 535.466783 
L 528.729042 535.869754 
L 527.370044 536.359024 
L 526.044449 536.93266 
L 524.757488 537.5884 
L 523.514241 538.323654 
L 522.319614 539.135521 
L 521.178323 540.020798 
L 520.09487 540.97599 
L 519.073532 541.997328 
L 518.11834 543.08078 
L 517.233063 544.222072 
L 516.421196 545.416699 
L 515.685942 546.659946 
L 515.030203 547.946907 
L 514.456566 549.272502 
L 513.967297 550.6315 
L 513.564325 552.018539 
L 513.249241 553.428143 
L 513.023289 554.85475 
L 512.887359 556.292729 
L 512.84199 557.736406 
L 512.887359 559.180083 
L 513.023289 560.618063 
L 513.249241 562.04467 
L 513.564325 563.454274 
L 513.967297 564.841312 
L 514.456566 566.200311 
L 515.030203 567.525906 
L 515.685942 568.812867 
L 516.421196 570.056114 
L 517.233063 571.25074 
L 518.11834 572.392032 
L 519.073532 573.475485 
L 520.09487 574.496822 
L 521.178323 575.452015 
L 522.319614 576.337291 
L 523.514241 577.149159 
L 524.757488 577.884413 
L 526.044449 578.540152 
L 527.370044 579.113788 
L 528.729042 579.603058 
L 530.116081 580.00603 
L 531.525685 580.321114 
L 532.952292 580.547066 
L 534.390271 580.682995 
L 535.833948 580.728364 
L 537.277625 580.682995 
L 538.715605 580.547066 
L 540.142212 580.321114 
L 541.551816 580.00603 
L 542.938854 579.603058 
L 544.297853 579.113788 
L 545.623448 578.540152 
L 546.910409 577.884413 
L 548.153656 577.149159 
L 549.348282 576.337291 
L 550.489574 575.452015 
L 551.573027 574.496822 
L 552.594365 573.475485 
L 553.549557 572.392032 
L 554.434833 571.25074 
L 555.246701 570.056114 
L 555.981955 568.812867 
L 556.637694 567.525906 
L 557.21133 566.200311 
L 557.7006 564.841312 
L 558.103572 563.454274 
L 558.418656 562.04467 
L 558.644608 560.618063 
L 558.780537 559.180083 
L 558.825907 557.736406 
" style="fill: none; stroke: #ffffff; stroke-linecap: square"/>
   </g>
   <g id="line2d_174">
    <path d="M 531.018524 535.254373 
L 535.833948 531.295654 
L 540.649373 535.254373 
" style="fill: none; stroke: #ffffff; stroke-linecap: square"/>
   </g>
   <g id="line2d_175">
    <path d="M 512.979942 555.184299 
L 512.382151 554.172653 
L 512.01428 554.135866 
L 511.467071 554.306006 
L 510.915264 555.184299 
L 511.002633 557.989318 
L 510.680746 562.022107 
L 511.370505 563.774094 
L 512.382151 564.10058 
L 513.347813 563.249878 
" style="fill: none; stroke: #ffffff; stroke-linecap: square"/>
   </g>
   <g id="line2d_176">
    <path d="M 558.687955 555.184299 
L 559.285746 554.172653 
L 559.653617 554.135866 
L 560.200826 554.306006 
L 560.752633 555.184299 
L 560.665263 557.989318 
L 560.987151 562.022107 
L 560.297392 563.774094 
L 559.285746 564.10058 
L 558.320084 563.249878 
" style="fill: none; stroke: #ffffff; stroke-linecap: square"/>
   </g>
  </g>
 </g>
 <defs>
  <clipPath id="p7f8c88c81c">
   <rect x="72" y="12.96" width="366.892103" height="54.375981"/>
  </clipPath>
  <clipPath id="p2d884c98f4">
   <rect x="72" y="86.65486" width="366.892103" height="54.375981"/>
  </clipPath>
  <clipPath id="p1304d994f5">
   <rect x="72" y="160.34972" width="366.892103" height="54.375981"/>
  </clipPath>
  <clipPath id="p8c6c0a9079">
   <rect x="72" y="234.044579" width="366.892103" height="54.375981"/>
  </clipPath>
  <clipPath id="pa707fb0ae4">
   <rect x="72" y="307.739439" width="366.892103" height="54.375981"/>
  </clipPath>
  <clipPath id="p5c8579fe26">
   <rect x="72" y="381.434299" width="366.892103" height="54.375981"/>
  </clipPath>
  <clipPath id="p3302a6999f">
   <rect x="72" y="455.129159" width="366.892103" height="54.375981"/>
  </clipPath>
  <clipPath id="p41b48bc6fb">
   <rect x="72" y="528.824019" width="366.892103" height="54.375981"/>
  </clipPath>
 </defs>
</svg>
