<?xml version="1.0" encoding="utf-8" standalone="no"?>
<!DOCTYPE svg PUBLIC "-//W3C//DTD SVG 1.1//EN"
  "http://www.w3.org/Graphics/SVG/1.1/DTD/svg11.dtd">
<svg xmlns:xlink="http://www.w3.org/1999/xlink" width="720pt" height="648pt" viewBox="0 0 720 648" xmlns="http://www.w3.org/2000/svg" version="1.1">
 <metadata>
  <rdf:RDF xmlns:dc="http://purl.org/dc/elements/1.1/" xmlns:cc="http://creativecommons.org/ns#" xmlns:rdf="http://www.w3.org/1999/02/22-rdf-syntax-ns#">
   <cc:Work>
    <dc:type rdf:resource="http://purl.org/dc/dcmitype/StillImage"/>
    <dc:date>2024-06-25T11:20:24.156814</dc:date>
    <dc:format>image/svg+xml</dc:format>
    <dc:creator>
     <cc:Agent>
      <dc:title>Matplotlib v3.5.3, https://matplotlib.org/</dc:title>
     </cc:Agent>
    </dc:creator>
   </cc:Work>
  </rdf:RDF>
 </metadata>
 <defs>
  <style type="text/css">*{stroke-linejoin: round; stroke-linecap: butt}</style>
 </defs>
 <g id="figure_1">
  <g id="patch_1">
   <path d="M 0 648 
L 720 648 
L 720 0 
L 0 0 
z
" style="fill: #ffffff"/>
  </g>
  <g id="axes_1">
   <g id="patch_2">
    <path d="M 72 90.837881 
L 418.742034 90.837881 
L 418.742034 12.96 
L 72 12.96 
z
" style="fill: #ffffff"/>
   </g>
   <g id="matplotlib.axis_1">
    <g id="xtick_1">
     <g id="line2d_1">
      <defs>
       <path id="m7e5d610311" d="M 0 0 
L 0 3.5 
" style="stroke: #000000; stroke-width: 0.8"/>
      </defs>
      <g>
       <use xlink:href="#m7e5d610311" x="92.39659" y="90.837881" style="stroke: #000000; stroke-width: 0.8"/>
      </g>
     </g>
    </g>
    <g id="xtick_2">
     <g id="line2d_2">
      <g>
       <use xlink:href="#m7e5d610311" x="194.379541" y="90.837881" style="stroke: #000000; stroke-width: 0.8"/>
      </g>
     </g>
    </g>
    <g id="xtick_3">
     <g id="line2d_3">
      <g>
       <use xlink:href="#m7e5d610311" x="296.362492" y="90.837881" style="stroke: #000000; stroke-width: 0.8"/>
      </g>
     </g>
    </g>
    <g id="xtick_4">
     <g id="line2d_4">
      <g>
       <use xlink:href="#m7e5d610311" x="398.345444" y="90.837881" style="stroke: #000000; stroke-width: 0.8"/>
      </g>
     </g>
    </g>
   </g>
   <g id="matplotlib.axis_2">
    <g id="ytick_1">
     <g id="line2d_5">
      <defs>
       <path id="m8924e7785f" d="M 0 0 
L -3.5 0 
" style="stroke: #000000; stroke-width: 0.8"/>
      </defs>
      <g>
       <use xlink:href="#m8924e7785f" x="72" y="90.837881" style="stroke: #000000; stroke-width: 0.8"/>
      </g>
     </g>
     <g id="text_1">
      <!-- 0.00 -->
      <g transform="translate(42.734375 94.6371)scale(0.1 -0.1)">
       <defs>
        <path id="DejaVuSans-30" d="M 2034 4250 
Q 1547 4250 1301 3770 
Q 1056 3291 1056 2328 
Q 1056 1369 1301 889 
Q 1547 409 2034 409 
Q 2525 409 2770 889 
Q 3016 1369 3016 2328 
Q 3016 3291 2770 3770 
Q 2525 4250 2034 4250 
z
M 2034 4750 
Q 2819 4750 3233 4129 
Q 3647 3509 3647 2328 
Q 3647 1150 3233 529 
Q 2819 -91 2034 -91 
Q 1250 -91 836 529 
Q 422 1150 422 2328 
Q 422 3509 836 4129 
Q 1250 4750 2034 4750 
z
" transform="scale(0.015625)"/>
        <path id="DejaVuSans-2e" d="M 684 794 
L 1344 794 
L 1344 0 
L 684 0 
L 684 794 
z
" transform="scale(0.015625)"/>
       </defs>
       <use xlink:href="#DejaVuSans-30"/>
       <use xlink:href="#DejaVuSans-2e" x="63.623047"/>
       <use xlink:href="#DejaVuSans-30" x="95.410156"/>
       <use xlink:href="#DejaVuSans-30" x="159.033203"/>
      </g>
     </g>
    </g>
    <g id="ytick_2">
     <g id="line2d_6">
      <g>
       <use xlink:href="#m8924e7785f" x="72" y="64.878587" style="stroke: #000000; stroke-width: 0.8"/>
      </g>
     </g>
     <g id="text_2">
      <!-- 0.05 -->
      <g transform="translate(42.734375 68.677806)scale(0.1 -0.1)">
       <defs>
        <path id="DejaVuSans-35" d="M 691 4666 
L 3169 4666 
L 3169 4134 
L 1269 4134 
L 1269 2991 
Q 1406 3038 1543 3061 
Q 1681 3084 1819 3084 
Q 2600 3084 3056 2656 
Q 3513 2228 3513 1497 
Q 3513 744 3044 326 
Q 2575 -91 1722 -91 
Q 1428 -91 1123 -41 
Q 819 9 494 109 
L 494 744 
Q 775 591 1075 516 
Q 1375 441 1709 441 
Q 2250 441 2565 725 
Q 2881 1009 2881 1497 
Q 2881 1984 2565 2268 
Q 2250 2553 1709 2553 
Q 1456 2553 1204 2497 
Q 953 2441 691 2322 
L 691 4666 
z
" transform="scale(0.015625)"/>
       </defs>
       <use xlink:href="#DejaVuSans-30"/>
       <use xlink:href="#DejaVuSans-2e" x="63.623047"/>
       <use xlink:href="#DejaVuSans-30" x="95.410156"/>
       <use xlink:href="#DejaVuSans-35" x="159.033203"/>
      </g>
     </g>
    </g>
    <g id="ytick_3">
     <g id="line2d_7">
      <g>
       <use xlink:href="#m8924e7785f" x="72" y="38.919294" style="stroke: #000000; stroke-width: 0.8"/>
      </g>
     </g>
     <g id="text_3">
      <!-- 0.10 -->
      <g transform="translate(42.734375 42.718512)scale(0.1 -0.1)">
       <defs>
        <path id="DejaVuSans-31" d="M 794 531 
L 1825 531 
L 1825 4091 
L 703 3866 
L 703 4441 
L 1819 4666 
L 2450 4666 
L 2450 531 
L 3481 531 
L 3481 0 
L 794 0 
L 794 531 
z
" transform="scale(0.015625)"/>
       </defs>
       <use xlink:href="#DejaVuSans-30"/>
       <use xlink:href="#DejaVuSans-2e" x="63.623047"/>
       <use xlink:href="#DejaVuSans-31" x="95.410156"/>
       <use xlink:href="#DejaVuSans-30" x="159.033203"/>
      </g>
     </g>
    </g>
    <g id="ytick_4">
     <g id="line2d_8">
      <g>
       <use xlink:href="#m8924e7785f" x="72" y="12.96" style="stroke: #000000; stroke-width: 0.8"/>
      </g>
     </g>
     <g id="text_4">
      <!-- 0.15 -->
      <g transform="translate(42.734375 16.759219)scale(0.1 -0.1)">
       <use xlink:href="#DejaVuSans-30"/>
       <use xlink:href="#DejaVuSans-2e" x="63.623047"/>
       <use xlink:href="#DejaVuSans-31" x="95.410156"/>
       <use xlink:href="#DejaVuSans-35" x="159.033203"/>
      </g>
     </g>
    </g>
   </g>
   <g id="LineCollection_1">
    <path d="M 92.39659 62.890634 
L 92.39659 48.312734 
" clip-path="url(#p6e1c7fe7f8)" style="fill: none; stroke: #1f77b4; stroke-width: 1.5"/>
   </g>
   <g id="line2d_9">
    <defs>
     <path id="m8ca70c7ec1" d="M 5 0 
L -5 -0 
" style="stroke: #1f77b4"/>
    </defs>
    <g clip-path="url(#p6e1c7fe7f8)">
     <use xlink:href="#m8ca70c7ec1" x="92.39659" y="62.890634" style="fill: #1f77b4; stroke: #1f77b4"/>
    </g>
   </g>
   <g id="line2d_10">
    <g clip-path="url(#p6e1c7fe7f8)">
     <use xlink:href="#m8ca70c7ec1" x="92.39659" y="48.312734" style="fill: #1f77b4; stroke: #1f77b4"/>
    </g>
   </g>
   <g id="LineCollection_2">
    <path d="M 194.379541 52.014507 
L 194.379541 45.374547 
" clip-path="url(#p6e1c7fe7f8)" style="fill: none; stroke: #ff7f0e; stroke-width: 1.5"/>
   </g>
   <g id="line2d_11">
    <defs>
     <path id="mb1a24c9ee8" d="M 5 0 
L -5 -0 
" style="stroke: #ff7f0e"/>
    </defs>
    <g clip-path="url(#p6e1c7fe7f8)">
     <use xlink:href="#mb1a24c9ee8" x="194.379541" y="52.014507" style="fill: #ff7f0e; stroke: #ff7f0e"/>
    </g>
   </g>
   <g id="line2d_12">
    <g clip-path="url(#p6e1c7fe7f8)">
     <use xlink:href="#mb1a24c9ee8" x="194.379541" y="45.374547" style="fill: #ff7f0e; stroke: #ff7f0e"/>
    </g>
   </g>
   <g id="LineCollection_3">
    <path d="M 296.362492 46.832438 
L 296.362492 35.603686 
" clip-path="url(#p6e1c7fe7f8)" style="fill: none; stroke: #2ca02c; stroke-width: 1.5"/>
   </g>
   <g id="line2d_13">
    <defs>
     <path id="m3b8dd14d8a" d="M 5 0 
L -5 -0 
" style="stroke: #2ca02c"/>
    </defs>
    <g clip-path="url(#p6e1c7fe7f8)">
     <use xlink:href="#m3b8dd14d8a" x="296.362492" y="46.832438" style="fill: #2ca02c; stroke: #2ca02c"/>
    </g>
   </g>
   <g id="line2d_14">
    <g clip-path="url(#p6e1c7fe7f8)">
     <use xlink:href="#m3b8dd14d8a" x="296.362492" y="35.603686" style="fill: #2ca02c; stroke: #2ca02c"/>
    </g>
   </g>
   <g id="LineCollection_4">
    <path d="M 398.345444 64.552377 
L 398.345444 51.916706 
" clip-path="url(#p6e1c7fe7f8)" style="fill: none; stroke: #d62728; stroke-width: 1.5"/>
   </g>
   <g id="line2d_15">
    <defs>
     <path id="ma1cb28231b" d="M 5 0 
L -5 -0 
" style="stroke: #d62728"/>
    </defs>
    <g clip-path="url(#p6e1c7fe7f8)">
     <use xlink:href="#ma1cb28231b" x="398.345444" y="64.552377" style="fill: #d62728; stroke: #d62728"/>
    </g>
   </g>
   <g id="line2d_16">
    <g clip-path="url(#p6e1c7fe7f8)">
     <use xlink:href="#ma1cb28231b" x="398.345444" y="51.916706" style="fill: #d62728; stroke: #d62728"/>
    </g>
   </g>
   <g id="line2d_17">
    <defs>
     <path id="m02f795422e" d="M 0 3 
C 0.795609 3 1.55874 2.683901 2.12132 2.12132 
C 2.683901 1.55874 3 0.795609 3 0 
C 3 -0.795609 2.683901 -1.55874 2.12132 -2.12132 
C 1.55874 -2.683901 0.795609 -3 0 -3 
C -0.795609 -3 -1.55874 -2.683901 -2.12132 -2.12132 
C -2.683901 -1.55874 -3 -0.795609 -3 0 
C -3 0.795609 -2.683901 1.55874 -2.12132 2.12132 
C -1.55874 2.683901 -0.795609 3 0 3 
z
" style="stroke: #1f77b4"/>
    </defs>
    <g clip-path="url(#p6e1c7fe7f8)">
     <use xlink:href="#m02f795422e" x="92.39659" y="55.601684" style="fill: #1f77b4; stroke: #1f77b4"/>
    </g>
   </g>
   <g id="line2d_18">
    <defs>
     <path id="m422b918a51" d="M 0 3 
C 0.795609 3 1.55874 2.683901 2.12132 2.12132 
C 2.683901 1.55874 3 0.795609 3 0 
C 3 -0.795609 2.683901 -1.55874 2.12132 -2.12132 
C 1.55874 -2.683901 0.795609 -3 0 -3 
C -0.795609 -3 -1.55874 -2.683901 -2.12132 -2.12132 
C -2.683901 -1.55874 -3 -0.795609 -3 0 
C -3 0.795609 -2.683901 1.55874 -2.12132 2.12132 
C -1.55874 2.683901 -0.795609 3 0 3 
z
" style="stroke: #ff7f0e"/>
    </defs>
    <g clip-path="url(#p6e1c7fe7f8)">
     <use xlink:href="#m422b918a51" x="194.379541" y="48.694527" style="fill: #ff7f0e; stroke: #ff7f0e"/>
    </g>
   </g>
   <g id="line2d_19">
    <defs>
     <path id="m00c9e15667" d="M 0 3 
C 0.795609 3 1.55874 2.683901 2.12132 2.12132 
C 2.683901 1.55874 3 0.795609 3 0 
C 3 -0.795609 2.683901 -1.55874 2.12132 -2.12132 
C 1.55874 -2.683901 0.795609 -3 0 -3 
C -0.795609 -3 -1.55874 -2.683901 -2.12132 -2.12132 
C -2.683901 -1.55874 -3 -0.795609 -3 0 
C -3 0.795609 -2.683901 1.55874 -2.12132 2.12132 
C -1.55874 2.683901 -0.795609 3 0 3 
z
" style="stroke: #2ca02c"/>
    </defs>
    <g clip-path="url(#p6e1c7fe7f8)">
     <use xlink:href="#m00c9e15667" x="296.362492" y="41.218062" style="fill: #2ca02c; stroke: #2ca02c"/>
    </g>
   </g>
   <g id="line2d_20">
    <defs>
     <path id="mda9c306f65" d="M 0 3 
C 0.795609 3 1.55874 2.683901 2.12132 2.12132 
C 2.683901 1.55874 3 0.795609 3 0 
C 3 -0.795609 2.683901 -1.55874 2.12132 -2.12132 
C 1.55874 -2.683901 0.795609 -3 0 -3 
C -0.795609 -3 -1.55874 -2.683901 -2.12132 -2.12132 
C -2.683901 -1.55874 -3 -0.795609 -3 0 
C -3 0.795609 -2.683901 1.55874 -2.12132 2.12132 
C -1.55874 2.683901 -0.795609 3 0 3 
z
" style="stroke: #d62728"/>
    </defs>
    <g clip-path="url(#p6e1c7fe7f8)">
     <use xlink:href="#mda9c306f65" x="398.345444" y="58.234541" style="fill: #d62728; stroke: #d62728"/>
    </g>
   </g>
   <g id="patch_3">
    <path d="M 72 90.837881 
L 72 12.96 
" style="fill: none; stroke: #000000; stroke-width: 0.8; stroke-linejoin: miter; stroke-linecap: square"/>
   </g>
   <g id="patch_4">
    <path d="M 418.742034 90.837881 
L 418.742034 12.96 
" style="fill: none; stroke: #000000; stroke-width: 0.8; stroke-linejoin: miter; stroke-linecap: square"/>
   </g>
   <g id="patch_5">
    <path d="M 72 90.837881 
L 418.742034 90.837881 
" style="fill: none; stroke: #000000; stroke-width: 0.8; stroke-linejoin: miter; stroke-linecap: square"/>
   </g>
   <g id="patch_6">
    <path d="M 72 12.96 
L 418.742034 12.96 
" style="fill: none; stroke: #000000; stroke-width: 0.8; stroke-linejoin: miter; stroke-linecap: square"/>
   </g>
  </g>
  <g id="axes_2">
   <g id="PathCollection_1">
    <defs>
     <path id="m616de66dfd" d="M 0 2.5 
C 0.663008 2.5 1.29895 2.236584 1.767767 1.767767 
C 2.236584 1.29895 2.5 0.663008 2.5 0 
C 2.5 -0.663008 2.236584 -1.29895 1.767767 -1.767767 
C 1.29895 -2.236584 0.663008 -2.5 0 -2.5 
C -0.663008 -2.5 -1.29895 -2.236584 -1.767767 -1.767767 
C -2.236584 -1.29895 -2.5 -0.663008 -2.5 0 
C -2.5 0.663008 -2.236584 1.29895 -1.767767 1.767767 
C -1.29895 2.236584 -0.663008 2.5 0 2.5 
z
" style="stroke: #ff0000; stroke-width: 2"/>
    </defs>
    <g>
     <use xlink:href="#m616de66dfd" x="527.807323" y="27.739001" style="fill: #ff0000; stroke: #ff0000; stroke-width: 2"/>
    </g>
   </g>
   <g id="line2d_21">
    <path d="M 578.83832 54.368641 
L 578.773341 52.300991 
L 578.578662 50.241501 
L 578.255051 48.198298 
L 577.803784 46.179448 
L 577.226643 44.192916 
L 576.525906 42.246544 
L 575.704338 40.348011 
L 574.765181 38.504812 
L 573.712142 36.72422 
L 572.549376 35.013262 
L 571.281473 33.378692 
L 569.913436 31.826959 
L 568.450665 30.364188 
L 566.898932 28.996151 
L 565.264362 27.728248 
L 563.553404 26.565482 
L 561.772812 25.512443 
L 559.929613 24.573286 
L 558.03108 23.751718 
L 556.084708 23.050981 
L 554.098176 22.47384 
L 552.079326 22.022573 
L 550.036123 21.698962 
L 547.976633 21.504283 
L 545.908983 21.439304 
L 543.841333 21.504283 
L 541.781843 21.698962 
L 539.738641 22.022573 
L 537.71979 22.47384 
L 535.733258 23.050981 
L 533.786886 23.751718 
L 531.888353 24.573286 
L 530.045154 25.512443 
L 528.264562 26.565482 
L 526.553605 27.728248 
L 524.919034 28.996151 
L 523.367301 30.364188 
L 521.90453 31.826959 
L 520.536493 33.378692 
L 519.26859 35.013262 
L 518.105825 36.72422 
L 517.052785 38.504812 
L 516.113628 40.348011 
L 515.29206 42.246544 
L 514.591323 44.192916 
L 514.014182 46.179448 
L 513.562916 48.198298 
L 513.239304 50.241501 
L 513.044625 52.300991 
L 512.979646 54.368641 
L 513.044625 56.436291 
L 513.239304 58.495781 
L 513.562916 60.538983 
L 514.014182 62.557834 
L 514.591323 64.544366 
L 515.29206 66.490738 
L 516.113628 68.38927 
L 517.052785 70.23247 
L 518.105825 72.013062 
L 519.26859 73.724019 
L 520.536493 75.35859 
L 521.90453 76.910323 
L 523.367301 78.373094 
L 524.919034 79.741131 
L 526.553605 81.009034 
L 528.264562 82.171799 
L 530.045154 83.224839 
L 531.888353 84.163995 
L 533.786886 84.985564 
L 535.733258 85.686301 
L 537.71979 86.263442 
L 539.738641 86.714708 
L 541.781843 87.03832 
L 543.841333 87.232999 
L 545.908983 87.297978 
L 547.976633 87.232999 
L 550.036123 87.03832 
L 552.079326 86.714708 
L 554.098176 86.263442 
L 556.084708 85.686301 
L 558.03108 84.985564 
L 559.929613 84.163995 
L 561.772812 83.224839 
L 563.553404 82.171799 
L 565.264362 81.009034 
L 566.898932 79.741131 
L 568.450665 78.373094 
L 569.913436 76.910323 
L 571.281473 75.35859 
L 572.549376 73.724019 
L 573.712142 72.013062 
L 574.765181 70.23247 
L 575.704338 68.38927 
L 576.525906 66.490738 
L 577.226643 64.544366 
L 577.803784 62.557834 
L 578.255051 60.538983 
L 578.578662 58.495781 
L 578.773341 56.436291 
L 578.83832 54.368641 
" style="fill: none; stroke: #000000; stroke-linecap: square"/>
   </g>
   <g id="line2d_22">
    <path d="M 539.012279 22.169624 
L 545.908983 16.499904 
L 552.805687 22.169624 
" style="fill: none; stroke: #000000; stroke-linecap: square"/>
   </g>
   <g id="line2d_23">
    <path d="M 513.177222 50.713484 
L 512.32106 49.264594 
L 511.79419 49.211907 
L 511.010472 49.455584 
L 510.220168 50.713484 
L 510.3453 54.730864 
L 509.884289 60.506669 
L 510.872169 63.015885 
L 512.32106 63.483481 
L 513.704092 62.265096 
" style="fill: none; stroke: #000000; stroke-linecap: square"/>
   </g>
   <g id="line2d_24">
    <path d="M 578.640744 50.713484 
L 579.496907 49.264594 
L 580.023776 49.211907 
L 580.807494 49.455584 
L 581.597798 50.713484 
L 581.472667 54.730864 
L 581.933677 60.506669 
L 580.945797 63.015885 
L 579.496907 63.483481 
L 578.113874 62.265096 
" style="fill: none; stroke: #000000; stroke-linecap: square"/>
   </g>
  </g>
  <g id="axes_3">
   <g id="patch_7">
    <path d="M 72 189.310305 
L 418.742034 189.310305 
L 418.742034 111.432424 
L 72 111.432424 
z
" style="fill: #ffffff"/>
   </g>
   <g id="matplotlib.axis_3">
    <g id="xtick_5">
     <g id="line2d_25">
      <g>
       <use xlink:href="#m7e5d610311" x="92.39659" y="189.310305" style="stroke: #000000; stroke-width: 0.8"/>
      </g>
     </g>
    </g>
    <g id="xtick_6">
     <g id="line2d_26">
      <g>
       <use xlink:href="#m7e5d610311" x="194.379541" y="189.310305" style="stroke: #000000; stroke-width: 0.8"/>
      </g>
     </g>
    </g>
    <g id="xtick_7">
     <g id="line2d_27">
      <g>
       <use xlink:href="#m7e5d610311" x="296.362492" y="189.310305" style="stroke: #000000; stroke-width: 0.8"/>
      </g>
     </g>
    </g>
    <g id="xtick_8">
     <g id="line2d_28">
      <g>
       <use xlink:href="#m7e5d610311" x="398.345444" y="189.310305" style="stroke: #000000; stroke-width: 0.8"/>
      </g>
     </g>
    </g>
   </g>
   <g id="matplotlib.axis_4">
    <g id="ytick_5">
     <g id="line2d_29">
      <g>
       <use xlink:href="#m8924e7785f" x="72" y="189.310305" style="stroke: #000000; stroke-width: 0.8"/>
      </g>
     </g>
     <g id="text_5">
      <!-- 0.00 -->
      <g transform="translate(42.734375 193.109524)scale(0.1 -0.1)">
       <use xlink:href="#DejaVuSans-30"/>
       <use xlink:href="#DejaVuSans-2e" x="63.623047"/>
       <use xlink:href="#DejaVuSans-30" x="95.410156"/>
       <use xlink:href="#DejaVuSans-30" x="159.033203"/>
      </g>
     </g>
    </g>
    <g id="ytick_6">
     <g id="line2d_30">
      <g>
       <use xlink:href="#m8924e7785f" x="72" y="163.351011" style="stroke: #000000; stroke-width: 0.8"/>
      </g>
     </g>
     <g id="text_6">
      <!-- 0.05 -->
      <g transform="translate(42.734375 167.15023)scale(0.1 -0.1)">
       <use xlink:href="#DejaVuSans-30"/>
       <use xlink:href="#DejaVuSans-2e" x="63.623047"/>
       <use xlink:href="#DejaVuSans-30" x="95.410156"/>
       <use xlink:href="#DejaVuSans-35" x="159.033203"/>
      </g>
     </g>
    </g>
    <g id="ytick_7">
     <g id="line2d_31">
      <g>
       <use xlink:href="#m8924e7785f" x="72" y="137.391717" style="stroke: #000000; stroke-width: 0.8"/>
      </g>
     </g>
     <g id="text_7">
      <!-- 0.10 -->
      <g transform="translate(42.734375 141.190936)scale(0.1 -0.1)">
       <use xlink:href="#DejaVuSans-30"/>
       <use xlink:href="#DejaVuSans-2e" x="63.623047"/>
       <use xlink:href="#DejaVuSans-31" x="95.410156"/>
       <use xlink:href="#DejaVuSans-30" x="159.033203"/>
      </g>
     </g>
    </g>
    <g id="ytick_8">
     <g id="line2d_32">
      <g>
       <use xlink:href="#m8924e7785f" x="72" y="111.432424" style="stroke: #000000; stroke-width: 0.8"/>
      </g>
     </g>
     <g id="text_8">
      <!-- 0.15 -->
      <g transform="translate(42.734375 115.231643)scale(0.1 -0.1)">
       <use xlink:href="#DejaVuSans-30"/>
       <use xlink:href="#DejaVuSans-2e" x="63.623047"/>
       <use xlink:href="#DejaVuSans-31" x="95.410156"/>
       <use xlink:href="#DejaVuSans-35" x="159.033203"/>
      </g>
     </g>
    </g>
   </g>
   <g id="LineCollection_5">
    <path d="M 92.39659 140.730875 
L 92.39659 128.951226 
" clip-path="url(#pb1a54052f6)" style="fill: none; stroke: #1f77b4; stroke-width: 1.5"/>
   </g>
   <g id="line2d_33">
    <g clip-path="url(#pb1a54052f6)">
     <use xlink:href="#m8ca70c7ec1" x="92.39659" y="140.730875" style="fill: #1f77b4; stroke: #1f77b4"/>
    </g>
   </g>
   <g id="line2d_34">
    <g clip-path="url(#pb1a54052f6)">
     <use xlink:href="#m8ca70c7ec1" x="92.39659" y="128.951226" style="fill: #1f77b4; stroke: #1f77b4"/>
    </g>
   </g>
   <g id="LineCollection_6">
    <path d="M 194.379541 165.420506 
L 194.379541 156.443364 
" clip-path="url(#pb1a54052f6)" style="fill: none; stroke: #ff7f0e; stroke-width: 1.5"/>
   </g>
   <g id="line2d_35">
    <g clip-path="url(#pb1a54052f6)">
     <use xlink:href="#mb1a24c9ee8" x="194.379541" y="165.420506" style="fill: #ff7f0e; stroke: #ff7f0e"/>
    </g>
   </g>
   <g id="line2d_36">
    <g clip-path="url(#pb1a54052f6)">
     <use xlink:href="#mb1a24c9ee8" x="194.379541" y="156.443364" style="fill: #ff7f0e; stroke: #ff7f0e"/>
    </g>
   </g>
   <g id="LineCollection_7">
    <path d="M 296.362492 148.187419 
L 296.362492 137.817984 
" clip-path="url(#pb1a54052f6)" style="fill: none; stroke: #2ca02c; stroke-width: 1.5"/>
   </g>
   <g id="line2d_37">
    <g clip-path="url(#pb1a54052f6)">
     <use xlink:href="#m3b8dd14d8a" x="296.362492" y="148.187419" style="fill: #2ca02c; stroke: #2ca02c"/>
    </g>
   </g>
   <g id="line2d_38">
    <g clip-path="url(#pb1a54052f6)">
     <use xlink:href="#m3b8dd14d8a" x="296.362492" y="137.817984" style="fill: #2ca02c; stroke: #2ca02c"/>
    </g>
   </g>
   <g id="LineCollection_8">
    <path d="M 398.345444 145.862182 
L 398.345444 135.173263 
" clip-path="url(#pb1a54052f6)" style="fill: none; stroke: #d62728; stroke-width: 1.5"/>
   </g>
   <g id="line2d_39">
    <g clip-path="url(#pb1a54052f6)">
     <use xlink:href="#ma1cb28231b" x="398.345444" y="145.862182" style="fill: #d62728; stroke: #d62728"/>
    </g>
   </g>
   <g id="line2d_40">
    <g clip-path="url(#pb1a54052f6)">
     <use xlink:href="#ma1cb28231b" x="398.345444" y="135.173263" style="fill: #d62728; stroke: #d62728"/>
    </g>
   </g>
   <g id="line2d_41">
    <g clip-path="url(#pb1a54052f6)">
     <use xlink:href="#m02f795422e" x="92.39659" y="134.84105" style="fill: #1f77b4; stroke: #1f77b4"/>
    </g>
   </g>
   <g id="line2d_42">
    <g clip-path="url(#pb1a54052f6)">
     <use xlink:href="#m422b918a51" x="194.379541" y="160.931935" style="fill: #ff7f0e; stroke: #ff7f0e"/>
    </g>
   </g>
   <g id="line2d_43">
    <g clip-path="url(#pb1a54052f6)">
     <use xlink:href="#m00c9e15667" x="296.362492" y="143.002701" style="fill: #2ca02c; stroke: #2ca02c"/>
    </g>
   </g>
   <g id="line2d_44">
    <g clip-path="url(#pb1a54052f6)">
     <use xlink:href="#mda9c306f65" x="398.345444" y="140.517723" style="fill: #d62728; stroke: #d62728"/>
    </g>
   </g>
   <g id="patch_8">
    <path d="M 72 189.310305 
L 72 111.432424 
" style="fill: none; stroke: #000000; stroke-width: 0.8; stroke-linejoin: miter; stroke-linecap: square"/>
   </g>
   <g id="patch_9">
    <path d="M 418.742034 189.310305 
L 418.742034 111.432424 
" style="fill: none; stroke: #000000; stroke-width: 0.8; stroke-linejoin: miter; stroke-linecap: square"/>
   </g>
   <g id="patch_10">
    <path d="M 72 189.310305 
L 418.742034 189.310305 
" style="fill: none; stroke: #000000; stroke-width: 0.8; stroke-linejoin: miter; stroke-linecap: square"/>
   </g>
   <g id="patch_11">
    <path d="M 72 111.432424 
L 418.742034 111.432424 
" style="fill: none; stroke: #000000; stroke-width: 0.8; stroke-linejoin: miter; stroke-linecap: square"/>
   </g>
  </g>
  <g id="axes_4">
   <g id="PathCollection_2">
    <defs>
     <path id="m4e8826d108" d="M 0 2.5 
C 0.663008 2.5 1.29895 2.236584 1.767767 1.767767 
C 2.236584 1.29895 2.5 0.663008 2.5 0 
C 2.5 -0.663008 2.236584 -1.29895 1.767767 -1.767767 
C 1.29895 -2.236584 0.663008 -2.5 0 -2.5 
C -0.663008 -2.5 -1.29895 -2.236584 -1.767767 -1.767767 
C -2.236584 -1.29895 -2.5 -0.663008 -2.5 0 
C -2.5 0.663008 -2.236584 1.29895 -1.767767 1.767767 
C -1.29895 2.236584 -0.663008 2.5 0 2.5 
z
" style="stroke: #000000; stroke-width: 2"/>
    </defs>
    <g>
     <use xlink:href="#m4e8826d108" x="532.182155" y="121.917251" style="fill: #aa3377; stroke: #000000; stroke-width: 2"/>
    </g>
   </g>
   <g id="line2d_45">
    <path d="M 578.83832 152.841065 
L 578.773341 150.773414 
L 578.578662 148.713924 
L 578.255051 146.670722 
L 577.803784 144.651872 
L 577.226643 142.66534 
L 576.525906 140.718967 
L 575.704338 138.820435 
L 574.765181 136.977236 
L 573.712142 135.196644 
L 572.549376 133.485686 
L 571.281473 131.851115 
L 569.913436 130.299382 
L 568.450665 128.836611 
L 566.898932 127.468575 
L 565.264362 126.200672 
L 563.553404 125.037906 
L 561.772812 123.984867 
L 559.929613 123.04571 
L 558.03108 122.224142 
L 556.084708 121.523404 
L 554.098176 120.946264 
L 552.079326 120.494997 
L 550.036123 120.171386 
L 547.976633 119.976706 
L 545.908983 119.911728 
L 543.841333 119.976706 
L 541.781843 120.171386 
L 539.738641 120.494997 
L 537.71979 120.946264 
L 535.733258 121.523404 
L 533.786886 122.224142 
L 531.888353 123.04571 
L 530.045154 123.984867 
L 528.264562 125.037906 
L 526.553605 126.200672 
L 524.919034 127.468575 
L 523.367301 128.836611 
L 521.90453 130.299382 
L 520.536493 131.851115 
L 519.26859 133.485686 
L 518.105825 135.196644 
L 517.052785 136.977236 
L 516.113628 138.820435 
L 515.29206 140.718967 
L 514.591323 142.66534 
L 514.014182 144.651872 
L 513.562916 146.670722 
L 513.239304 148.713924 
L 513.044625 150.773414 
L 512.979646 152.841065 
L 513.044625 154.908715 
L 513.239304 156.968205 
L 513.562916 159.011407 
L 514.014182 161.030258 
L 514.591323 163.016789 
L 515.29206 164.963162 
L 516.113628 166.861694 
L 517.052785 168.704894 
L 518.105825 170.485486 
L 519.26859 172.196443 
L 520.536493 173.831014 
L 521.90453 175.382747 
L 523.367301 176.845518 
L 524.919034 178.213555 
L 526.553605 179.481458 
L 528.264562 180.644223 
L 530.045154 181.697262 
L 531.888353 182.636419 
L 533.786886 183.457988 
L 535.733258 184.158725 
L 537.71979 184.735866 
L 539.738641 185.187132 
L 541.781843 185.510744 
L 543.841333 185.705423 
L 545.908983 185.770401 
L 547.976633 185.705423 
L 550.036123 185.510744 
L 552.079326 185.187132 
L 554.098176 184.735866 
L 556.084708 184.158725 
L 558.03108 183.457988 
L 559.929613 182.636419 
L 561.772812 181.697262 
L 563.553404 180.644223 
L 565.264362 179.481458 
L 566.898932 178.213555 
L 568.450665 176.845518 
L 569.913436 175.382747 
L 571.281473 173.831014 
L 572.549376 172.196443 
L 573.712142 170.485486 
L 574.765181 168.704894 
L 575.704338 166.861694 
L 576.525906 164.963162 
L 577.226643 163.016789 
L 577.803784 161.030258 
L 578.255051 159.011407 
L 578.578662 156.968205 
L 578.773341 154.908715 
L 578.83832 152.841065 
" style="fill: none; stroke: #000000; stroke-linecap: square"/>
   </g>
   <g id="line2d_46">
    <path d="M 539.012279 120.642048 
L 545.908983 114.972327 
L 552.805687 120.642048 
" style="fill: none; stroke: #000000; stroke-linecap: square"/>
   </g>
   <g id="line2d_47">
    <path d="M 513.177222 149.185908 
L 512.32106 147.737017 
L 511.79419 147.68433 
L 511.010472 147.928008 
L 510.220168 149.185908 
L 510.3453 153.203287 
L 509.884289 158.979093 
L 510.872169 161.488308 
L 512.32106 161.955905 
L 513.704092 160.73752 
" style="fill: none; stroke: #000000; stroke-linecap: square"/>
   </g>
   <g id="line2d_48">
    <path d="M 578.640744 149.185908 
L 579.496907 147.737017 
L 580.023776 147.68433 
L 580.807494 147.928008 
L 581.597798 149.185908 
L 581.472667 153.203287 
L 581.933677 158.979093 
L 580.945797 161.488308 
L 579.496907 161.955905 
L 578.113874 160.73752 
" style="fill: none; stroke: #000000; stroke-linecap: square"/>
   </g>
  </g>
  <g id="axes_5">
   <g id="patch_12">
    <path d="M 72 287.782729 
L 418.742034 287.782729 
L 418.742034 209.904848 
L 72 209.904848 
z
" style="fill: #ffffff"/>
   </g>
   <g id="matplotlib.axis_5">
    <g id="xtick_9">
     <g id="line2d_49">
      <g>
       <use xlink:href="#m7e5d610311" x="92.39659" y="287.782729" style="stroke: #000000; stroke-width: 0.8"/>
      </g>
     </g>
    </g>
    <g id="xtick_10">
     <g id="line2d_50">
      <g>
       <use xlink:href="#m7e5d610311" x="194.379541" y="287.782729" style="stroke: #000000; stroke-width: 0.8"/>
      </g>
     </g>
    </g>
    <g id="xtick_11">
     <g id="line2d_51">
      <g>
       <use xlink:href="#m7e5d610311" x="296.362492" y="287.782729" style="stroke: #000000; stroke-width: 0.8"/>
      </g>
     </g>
    </g>
    <g id="xtick_12">
     <g id="line2d_52">
      <g>
       <use xlink:href="#m7e5d610311" x="398.345444" y="287.782729" style="stroke: #000000; stroke-width: 0.8"/>
      </g>
     </g>
    </g>
   </g>
   <g id="matplotlib.axis_6">
    <g id="ytick_9">
     <g id="line2d_53">
      <g>
       <use xlink:href="#m8924e7785f" x="72" y="287.782729" style="stroke: #000000; stroke-width: 0.8"/>
      </g>
     </g>
     <g id="text_9">
      <!-- 0.00 -->
      <g transform="translate(42.734375 291.581947)scale(0.1 -0.1)">
       <use xlink:href="#DejaVuSans-30"/>
       <use xlink:href="#DejaVuSans-2e" x="63.623047"/>
       <use xlink:href="#DejaVuSans-30" x="95.410156"/>
       <use xlink:href="#DejaVuSans-30" x="159.033203"/>
      </g>
     </g>
    </g>
    <g id="ytick_10">
     <g id="line2d_54">
      <g>
       <use xlink:href="#m8924e7785f" x="72" y="261.823435" style="stroke: #000000; stroke-width: 0.8"/>
      </g>
     </g>
     <g id="text_10">
      <!-- 0.05 -->
      <g transform="translate(42.734375 265.622654)scale(0.1 -0.1)">
       <use xlink:href="#DejaVuSans-30"/>
       <use xlink:href="#DejaVuSans-2e" x="63.623047"/>
       <use xlink:href="#DejaVuSans-30" x="95.410156"/>
       <use xlink:href="#DejaVuSans-35" x="159.033203"/>
      </g>
     </g>
    </g>
    <g id="ytick_11">
     <g id="line2d_55">
      <g>
       <use xlink:href="#m8924e7785f" x="72" y="235.864141" style="stroke: #000000; stroke-width: 0.8"/>
      </g>
     </g>
     <g id="text_11">
      <!-- 0.10 -->
      <g transform="translate(42.734375 239.66336)scale(0.1 -0.1)">
       <use xlink:href="#DejaVuSans-30"/>
       <use xlink:href="#DejaVuSans-2e" x="63.623047"/>
       <use xlink:href="#DejaVuSans-31" x="95.410156"/>
       <use xlink:href="#DejaVuSans-30" x="159.033203"/>
      </g>
     </g>
    </g>
    <g id="ytick_12">
     <g id="line2d_56">
      <g>
       <use xlink:href="#m8924e7785f" x="72" y="209.904848" style="stroke: #000000; stroke-width: 0.8"/>
      </g>
     </g>
     <g id="text_12">
      <!-- 0.15 -->
      <g transform="translate(42.734375 213.704066)scale(0.1 -0.1)">
       <use xlink:href="#DejaVuSans-30"/>
       <use xlink:href="#DejaVuSans-2e" x="63.623047"/>
       <use xlink:href="#DejaVuSans-31" x="95.410156"/>
       <use xlink:href="#DejaVuSans-35" x="159.033203"/>
      </g>
     </g>
    </g>
    <g id="text_13">
     <!-- Mean $\Delta$Hb ($\mu$M) during stim. -->
     <g transform="translate(33.694375 417.563788)rotate(-90)scale(0.24 -0.24)">
      <defs>
       <path id="DejaVuSans-4d" d="M 628 4666 
L 1569 4666 
L 2759 1491 
L 3956 4666 
L 4897 4666 
L 4897 0 
L 4281 0 
L 4281 4097 
L 3078 897 
L 2444 897 
L 1241 4097 
L 1241 0 
L 628 0 
L 628 4666 
z
" transform="scale(0.015625)"/>
       <path id="DejaVuSans-65" d="M 3597 1894 
L 3597 1613 
L 953 1613 
Q 991 1019 1311 708 
Q 1631 397 2203 397 
Q 2534 397 2845 478 
Q 3156 559 3463 722 
L 3463 178 
Q 3153 47 2828 -22 
Q 2503 -91 2169 -91 
Q 1331 -91 842 396 
Q 353 884 353 1716 
Q 353 2575 817 3079 
Q 1281 3584 2069 3584 
Q 2775 3584 3186 3129 
Q 3597 2675 3597 1894 
z
M 3022 2063 
Q 3016 2534 2758 2815 
Q 2500 3097 2075 3097 
Q 1594 3097 1305 2825 
Q 1016 2553 972 2059 
L 3022 2063 
z
" transform="scale(0.015625)"/>
       <path id="DejaVuSans-61" d="M 2194 1759 
Q 1497 1759 1228 1600 
Q 959 1441 959 1056 
Q 959 750 1161 570 
Q 1363 391 1709 391 
Q 2188 391 2477 730 
Q 2766 1069 2766 1631 
L 2766 1759 
L 2194 1759 
z
M 3341 1997 
L 3341 0 
L 2766 0 
L 2766 531 
Q 2569 213 2275 61 
Q 1981 -91 1556 -91 
Q 1019 -91 701 211 
Q 384 513 384 1019 
Q 384 1609 779 1909 
Q 1175 2209 1959 2209 
L 2766 2209 
L 2766 2266 
Q 2766 2663 2505 2880 
Q 2244 3097 1772 3097 
Q 1472 3097 1187 3025 
Q 903 2953 641 2809 
L 641 3341 
Q 956 3463 1253 3523 
Q 1550 3584 1831 3584 
Q 2591 3584 2966 3190 
Q 3341 2797 3341 1997 
z
" transform="scale(0.015625)"/>
       <path id="DejaVuSans-6e" d="M 3513 2113 
L 3513 0 
L 2938 0 
L 2938 2094 
Q 2938 2591 2744 2837 
Q 2550 3084 2163 3084 
Q 1697 3084 1428 2787 
Q 1159 2491 1159 1978 
L 1159 0 
L 581 0 
L 581 3500 
L 1159 3500 
L 1159 2956 
Q 1366 3272 1645 3428 
Q 1925 3584 2291 3584 
Q 2894 3584 3203 3211 
Q 3513 2838 3513 2113 
z
" transform="scale(0.015625)"/>
       <path id="DejaVuSans-20" transform="scale(0.015625)"/>
       <path id="DejaVuSans-394" d="M 2188 4044 
L 906 525 
L 3472 525 
L 2188 4044 
z
M 50 0 
L 1831 4666 
L 2547 4666 
L 4325 0 
L 50 0 
z
" transform="scale(0.015625)"/>
       <path id="DejaVuSans-48" d="M 628 4666 
L 1259 4666 
L 1259 2753 
L 3553 2753 
L 3553 4666 
L 4184 4666 
L 4184 0 
L 3553 0 
L 3553 2222 
L 1259 2222 
L 1259 0 
L 628 0 
L 628 4666 
z
" transform="scale(0.015625)"/>
       <path id="DejaVuSans-62" d="M 3116 1747 
Q 3116 2381 2855 2742 
Q 2594 3103 2138 3103 
Q 1681 3103 1420 2742 
Q 1159 2381 1159 1747 
Q 1159 1113 1420 752 
Q 1681 391 2138 391 
Q 2594 391 2855 752 
Q 3116 1113 3116 1747 
z
M 1159 2969 
Q 1341 3281 1617 3432 
Q 1894 3584 2278 3584 
Q 2916 3584 3314 3078 
Q 3713 2572 3713 1747 
Q 3713 922 3314 415 
Q 2916 -91 2278 -91 
Q 1894 -91 1617 61 
Q 1341 213 1159 525 
L 1159 0 
L 581 0 
L 581 4863 
L 1159 4863 
L 1159 2969 
z
" transform="scale(0.015625)"/>
       <path id="DejaVuSans-28" d="M 1984 4856 
Q 1566 4138 1362 3434 
Q 1159 2731 1159 2009 
Q 1159 1288 1364 580 
Q 1569 -128 1984 -844 
L 1484 -844 
Q 1016 -109 783 600 
Q 550 1309 550 2009 
Q 550 2706 781 3412 
Q 1013 4119 1484 4856 
L 1984 4856 
z
" transform="scale(0.015625)"/>
       <path id="DejaVuSans-Oblique-3bc" d="M -84 -1331 
L 856 3500 
L 1434 3500 
L 1009 1322 
Q 997 1256 987 1175 
Q 978 1094 978 1013 
Q 978 722 1161 565 
Q 1344 409 1684 409 
Q 2147 409 2431 671 
Q 2716 934 2816 1459 
L 3213 3500 
L 3788 3500 
L 3266 809 
Q 3253 750 3248 706 
Q 3244 663 3244 628 
Q 3244 531 3283 486 
Q 3322 441 3406 441 
Q 3438 441 3492 456 
Q 3547 472 3647 513 
L 3559 50 
Q 3422 -19 3297 -55 
Q 3172 -91 3053 -91 
Q 2847 -91 2730 40 
Q 2613 172 2613 403 
Q 2438 153 2195 31 
Q 1953 -91 1625 -91 
Q 1334 -91 1117 43 
Q 900 178 831 397 
L 494 -1331 
L -84 -1331 
z
" transform="scale(0.015625)"/>
       <path id="DejaVuSans-29" d="M 513 4856 
L 1013 4856 
Q 1481 4119 1714 3412 
Q 1947 2706 1947 2009 
Q 1947 1309 1714 600 
Q 1481 -109 1013 -844 
L 513 -844 
Q 928 -128 1133 580 
Q 1338 1288 1338 2009 
Q 1338 2731 1133 3434 
Q 928 4138 513 4856 
z
" transform="scale(0.015625)"/>
       <path id="DejaVuSans-64" d="M 2906 2969 
L 2906 4863 
L 3481 4863 
L 3481 0 
L 2906 0 
L 2906 525 
Q 2725 213 2448 61 
Q 2172 -91 1784 -91 
Q 1150 -91 751 415 
Q 353 922 353 1747 
Q 353 2572 751 3078 
Q 1150 3584 1784 3584 
Q 2172 3584 2448 3432 
Q 2725 3281 2906 2969 
z
M 947 1747 
Q 947 1113 1208 752 
Q 1469 391 1925 391 
Q 2381 391 2643 752 
Q 2906 1113 2906 1747 
Q 2906 2381 2643 2742 
Q 2381 3103 1925 3103 
Q 1469 3103 1208 2742 
Q 947 2381 947 1747 
z
" transform="scale(0.015625)"/>
       <path id="DejaVuSans-75" d="M 544 1381 
L 544 3500 
L 1119 3500 
L 1119 1403 
Q 1119 906 1312 657 
Q 1506 409 1894 409 
Q 2359 409 2629 706 
Q 2900 1003 2900 1516 
L 2900 3500 
L 3475 3500 
L 3475 0 
L 2900 0 
L 2900 538 
Q 2691 219 2414 64 
Q 2138 -91 1772 -91 
Q 1169 -91 856 284 
Q 544 659 544 1381 
z
M 1991 3584 
L 1991 3584 
z
" transform="scale(0.015625)"/>
       <path id="DejaVuSans-72" d="M 2631 2963 
Q 2534 3019 2420 3045 
Q 2306 3072 2169 3072 
Q 1681 3072 1420 2755 
Q 1159 2438 1159 1844 
L 1159 0 
L 581 0 
L 581 3500 
L 1159 3500 
L 1159 2956 
Q 1341 3275 1631 3429 
Q 1922 3584 2338 3584 
Q 2397 3584 2469 3576 
Q 2541 3569 2628 3553 
L 2631 2963 
z
" transform="scale(0.015625)"/>
       <path id="DejaVuSans-69" d="M 603 3500 
L 1178 3500 
L 1178 0 
L 603 0 
L 603 3500 
z
M 603 4863 
L 1178 4863 
L 1178 4134 
L 603 4134 
L 603 4863 
z
" transform="scale(0.015625)"/>
       <path id="DejaVuSans-67" d="M 2906 1791 
Q 2906 2416 2648 2759 
Q 2391 3103 1925 3103 
Q 1463 3103 1205 2759 
Q 947 2416 947 1791 
Q 947 1169 1205 825 
Q 1463 481 1925 481 
Q 2391 481 2648 825 
Q 2906 1169 2906 1791 
z
M 3481 434 
Q 3481 -459 3084 -895 
Q 2688 -1331 1869 -1331 
Q 1566 -1331 1297 -1286 
Q 1028 -1241 775 -1147 
L 775 -588 
Q 1028 -725 1275 -790 
Q 1522 -856 1778 -856 
Q 2344 -856 2625 -561 
Q 2906 -266 2906 331 
L 2906 616 
Q 2728 306 2450 153 
Q 2172 0 1784 0 
Q 1141 0 747 490 
Q 353 981 353 1791 
Q 353 2603 747 3093 
Q 1141 3584 1784 3584 
Q 2172 3584 2450 3431 
Q 2728 3278 2906 2969 
L 2906 3500 
L 3481 3500 
L 3481 434 
z
" transform="scale(0.015625)"/>
       <path id="DejaVuSans-73" d="M 2834 3397 
L 2834 2853 
Q 2591 2978 2328 3040 
Q 2066 3103 1784 3103 
Q 1356 3103 1142 2972 
Q 928 2841 928 2578 
Q 928 2378 1081 2264 
Q 1234 2150 1697 2047 
L 1894 2003 
Q 2506 1872 2764 1633 
Q 3022 1394 3022 966 
Q 3022 478 2636 193 
Q 2250 -91 1575 -91 
Q 1294 -91 989 -36 
Q 684 19 347 128 
L 347 722 
Q 666 556 975 473 
Q 1284 391 1588 391 
Q 1994 391 2212 530 
Q 2431 669 2431 922 
Q 2431 1156 2273 1281 
Q 2116 1406 1581 1522 
L 1381 1569 
Q 847 1681 609 1914 
Q 372 2147 372 2553 
Q 372 3047 722 3315 
Q 1072 3584 1716 3584 
Q 2034 3584 2315 3537 
Q 2597 3491 2834 3397 
z
" transform="scale(0.015625)"/>
       <path id="DejaVuSans-74" d="M 1172 4494 
L 1172 3500 
L 2356 3500 
L 2356 3053 
L 1172 3053 
L 1172 1153 
Q 1172 725 1289 603 
Q 1406 481 1766 481 
L 2356 481 
L 2356 0 
L 1766 0 
Q 1100 0 847 248 
Q 594 497 594 1153 
L 594 3053 
L 172 3053 
L 172 3500 
L 594 3500 
L 594 4494 
L 1172 4494 
z
" transform="scale(0.015625)"/>
       <path id="DejaVuSans-6d" d="M 3328 2828 
Q 3544 3216 3844 3400 
Q 4144 3584 4550 3584 
Q 5097 3584 5394 3201 
Q 5691 2819 5691 2113 
L 5691 0 
L 5113 0 
L 5113 2094 
Q 5113 2597 4934 2840 
Q 4756 3084 4391 3084 
Q 3944 3084 3684 2787 
Q 3425 2491 3425 1978 
L 3425 0 
L 2847 0 
L 2847 2094 
Q 2847 2600 2669 2842 
Q 2491 3084 2119 3084 
Q 1678 3084 1418 2786 
Q 1159 2488 1159 1978 
L 1159 0 
L 581 0 
L 581 3500 
L 1159 3500 
L 1159 2956 
Q 1356 3278 1631 3431 
Q 1906 3584 2284 3584 
Q 2666 3584 2933 3390 
Q 3200 3197 3328 2828 
z
" transform="scale(0.015625)"/>
      </defs>
      <use xlink:href="#DejaVuSans-4d" transform="translate(0 0.015625)"/>
      <use xlink:href="#DejaVuSans-65" transform="translate(86.279297 0.015625)"/>
      <use xlink:href="#DejaVuSans-61" transform="translate(147.802734 0.015625)"/>
      <use xlink:href="#DejaVuSans-6e" transform="translate(209.082031 0.015625)"/>
      <use xlink:href="#DejaVuSans-20" transform="translate(272.460938 0.015625)"/>
      <use xlink:href="#DejaVuSans-394" transform="translate(304.248047 0.015625)"/>
      <use xlink:href="#DejaVuSans-48" transform="translate(372.65625 0.015625)"/>
      <use xlink:href="#DejaVuSans-62" transform="translate(447.851562 0.015625)"/>
      <use xlink:href="#DejaVuSans-20" transform="translate(511.328125 0.015625)"/>
      <use xlink:href="#DejaVuSans-28" transform="translate(543.115234 0.015625)"/>
      <use xlink:href="#DejaVuSans-Oblique-3bc" transform="translate(582.128906 0.015625)"/>
      <use xlink:href="#DejaVuSans-4d" transform="translate(645.751953 0.015625)"/>
      <use xlink:href="#DejaVuSans-29" transform="translate(732.03125 0.015625)"/>
      <use xlink:href="#DejaVuSans-20" transform="translate(771.044922 0.015625)"/>
      <use xlink:href="#DejaVuSans-64" transform="translate(802.832031 0.015625)"/>
      <use xlink:href="#DejaVuSans-75" transform="translate(866.308594 0.015625)"/>
      <use xlink:href="#DejaVuSans-72" transform="translate(929.6875 0.015625)"/>
      <use xlink:href="#DejaVuSans-69" transform="translate(970.800781 0.015625)"/>
      <use xlink:href="#DejaVuSans-6e" transform="translate(998.583984 0.015625)"/>
      <use xlink:href="#DejaVuSans-67" transform="translate(1061.962891 0.015625)"/>
      <use xlink:href="#DejaVuSans-20" transform="translate(1125.439453 0.015625)"/>
      <use xlink:href="#DejaVuSans-73" transform="translate(1157.226562 0.015625)"/>
      <use xlink:href="#DejaVuSans-74" transform="translate(1209.326172 0.015625)"/>
      <use xlink:href="#DejaVuSans-69" transform="translate(1248.535156 0.015625)"/>
      <use xlink:href="#DejaVuSans-6d" transform="translate(1276.318359 0.015625)"/>
      <use xlink:href="#DejaVuSans-2e" transform="translate(1373.730469 0.015625)"/>
     </g>
    </g>
   </g>
   <g id="LineCollection_9">
    <path d="M 92.39659 249.895805 
L 92.39659 237.540802 
" clip-path="url(#pf2e5e5a848)" style="fill: none; stroke: #1f77b4; stroke-width: 1.5"/>
   </g>
   <g id="line2d_57">
    <g clip-path="url(#pf2e5e5a848)">
     <use xlink:href="#m8ca70c7ec1" x="92.39659" y="249.895805" style="fill: #1f77b4; stroke: #1f77b4"/>
    </g>
   </g>
   <g id="line2d_58">
    <g clip-path="url(#pf2e5e5a848)">
     <use xlink:href="#m8ca70c7ec1" x="92.39659" y="237.540802" style="fill: #1f77b4; stroke: #1f77b4"/>
    </g>
   </g>
   <g id="LineCollection_10">
    <path d="M 194.379541 258.006217 
L 194.379541 247.796934 
" clip-path="url(#pf2e5e5a848)" style="fill: none; stroke: #ff7f0e; stroke-width: 1.5"/>
   </g>
   <g id="line2d_59">
    <g clip-path="url(#pf2e5e5a848)">
     <use xlink:href="#mb1a24c9ee8" x="194.379541" y="258.006217" style="fill: #ff7f0e; stroke: #ff7f0e"/>
    </g>
   </g>
   <g id="line2d_60">
    <g clip-path="url(#pf2e5e5a848)">
     <use xlink:href="#mb1a24c9ee8" x="194.379541" y="247.796934" style="fill: #ff7f0e; stroke: #ff7f0e"/>
    </g>
   </g>
   <g id="LineCollection_11">
    <path d="M 296.362492 259.208935 
L 296.362492 245.929928 
" clip-path="url(#pf2e5e5a848)" style="fill: none; stroke: #2ca02c; stroke-width: 1.5"/>
   </g>
   <g id="line2d_61">
    <g clip-path="url(#pf2e5e5a848)">
     <use xlink:href="#m3b8dd14d8a" x="296.362492" y="259.208935" style="fill: #2ca02c; stroke: #2ca02c"/>
    </g>
   </g>
   <g id="line2d_62">
    <g clip-path="url(#pf2e5e5a848)">
     <use xlink:href="#m3b8dd14d8a" x="296.362492" y="245.929928" style="fill: #2ca02c; stroke: #2ca02c"/>
    </g>
   </g>
   <g id="LineCollection_12">
    <path d="M 398.345444 261.499589 
L 398.345444 251.467555 
" clip-path="url(#pf2e5e5a848)" style="fill: none; stroke: #d62728; stroke-width: 1.5"/>
   </g>
   <g id="line2d_63">
    <g clip-path="url(#pf2e5e5a848)">
     <use xlink:href="#ma1cb28231b" x="398.345444" y="261.499589" style="fill: #d62728; stroke: #d62728"/>
    </g>
   </g>
   <g id="line2d_64">
    <g clip-path="url(#pf2e5e5a848)">
     <use xlink:href="#ma1cb28231b" x="398.345444" y="251.467555" style="fill: #d62728; stroke: #d62728"/>
    </g>
   </g>
   <g id="line2d_65">
    <g clip-path="url(#pf2e5e5a848)">
     <use xlink:href="#m02f795422e" x="92.39659" y="243.718304" style="fill: #1f77b4; stroke: #1f77b4"/>
    </g>
   </g>
   <g id="line2d_66">
    <g clip-path="url(#pf2e5e5a848)">
     <use xlink:href="#m422b918a51" x="194.379541" y="252.901575" style="fill: #ff7f0e; stroke: #ff7f0e"/>
    </g>
   </g>
   <g id="line2d_67">
    <g clip-path="url(#pf2e5e5a848)">
     <use xlink:href="#m00c9e15667" x="296.362492" y="252.569431" style="fill: #2ca02c; stroke: #2ca02c"/>
    </g>
   </g>
   <g id="line2d_68">
    <g clip-path="url(#pf2e5e5a848)">
     <use xlink:href="#mda9c306f65" x="398.345444" y="256.483572" style="fill: #d62728; stroke: #d62728"/>
    </g>
   </g>
   <g id="patch_13">
    <path d="M 72 287.782729 
L 72 209.904848 
" style="fill: none; stroke: #000000; stroke-width: 0.8; stroke-linejoin: miter; stroke-linecap: square"/>
   </g>
   <g id="patch_14">
    <path d="M 418.742034 287.782729 
L 418.742034 209.904848 
" style="fill: none; stroke: #000000; stroke-width: 0.8; stroke-linejoin: miter; stroke-linecap: square"/>
   </g>
   <g id="patch_15">
    <path d="M 72 287.782729 
L 418.742034 287.782729 
" style="fill: none; stroke: #000000; stroke-width: 0.8; stroke-linejoin: miter; stroke-linecap: square"/>
   </g>
   <g id="patch_16">
    <path d="M 72 209.904848 
L 418.742034 209.904848 
" style="fill: none; stroke: #000000; stroke-width: 0.8; stroke-linejoin: miter; stroke-linecap: square"/>
   </g>
  </g>
  <g id="axes_6">
   <g id="PathCollection_3">
    <g>
     <use xlink:href="#m616de66dfd" x="529.90943" y="228.57787" style="fill: #ff0000; stroke: #ff0000; stroke-width: 2"/>
    </g>
   </g>
   <g id="line2d_69">
    <path d="M 578.83832 251.313488 
L 578.773341 249.245838 
L 578.578662 247.186348 
L 578.255051 245.143146 
L 577.803784 243.124295 
L 577.226643 241.137764 
L 576.525906 239.191391 
L 575.704338 237.292859 
L 574.765181 235.449659 
L 573.712142 233.669067 
L 572.549376 231.95811 
L 571.281473 230.323539 
L 569.913436 228.771806 
L 568.450665 227.309035 
L 566.898932 225.940998 
L 565.264362 224.673095 
L 563.553404 223.51033 
L 561.772812 222.457291 
L 559.929613 221.518134 
L 558.03108 220.696565 
L 556.084708 219.995828 
L 554.098176 219.418687 
L 552.079326 218.967421 
L 550.036123 218.643809 
L 547.976633 218.44913 
L 545.908983 218.384152 
L 543.841333 218.44913 
L 541.781843 218.643809 
L 539.738641 218.967421 
L 537.71979 219.418687 
L 535.733258 219.995828 
L 533.786886 220.696565 
L 531.888353 221.518134 
L 530.045154 222.457291 
L 528.264562 223.51033 
L 526.553605 224.673095 
L 524.919034 225.940998 
L 523.367301 227.309035 
L 521.90453 228.771806 
L 520.536493 230.323539 
L 519.26859 231.95811 
L 518.105825 233.669067 
L 517.052785 235.449659 
L 516.113628 237.292859 
L 515.29206 239.191391 
L 514.591323 241.137764 
L 514.014182 243.124295 
L 513.562916 245.143146 
L 513.239304 247.186348 
L 513.044625 249.245838 
L 512.979646 251.313488 
L 513.044625 253.381139 
L 513.239304 255.440629 
L 513.562916 257.483831 
L 514.014182 259.502681 
L 514.591323 261.489213 
L 515.29206 263.435586 
L 516.113628 265.334118 
L 517.052785 267.177317 
L 518.105825 268.957909 
L 519.26859 270.668867 
L 520.536493 272.303438 
L 521.90453 273.85517 
L 523.367301 275.317942 
L 524.919034 276.685978 
L 526.553605 277.953881 
L 528.264562 279.116647 
L 530.045154 280.169686 
L 531.888353 281.108843 
L 533.786886 281.930411 
L 535.733258 282.631149 
L 537.71979 283.208289 
L 539.738641 283.659556 
L 541.781843 283.983167 
L 543.841333 284.177847 
L 545.908983 284.242825 
L 547.976633 284.177847 
L 550.036123 283.983167 
L 552.079326 283.659556 
L 554.098176 283.208289 
L 556.084708 282.631149 
L 558.03108 281.930411 
L 559.929613 281.108843 
L 561.772812 280.169686 
L 563.553404 279.116647 
L 565.264362 277.953881 
L 566.898932 276.685978 
L 568.450665 275.317942 
L 569.913436 273.85517 
L 571.281473 272.303438 
L 572.549376 270.668867 
L 573.712142 268.957909 
L 574.765181 267.177317 
L 575.704338 265.334118 
L 576.525906 263.435586 
L 577.226643 261.489213 
L 577.803784 259.502681 
L 578.255051 257.483831 
L 578.578662 255.440629 
L 578.773341 253.381139 
L 578.83832 251.313488 
" style="fill: none; stroke: #000000; stroke-linecap: square"/>
   </g>
   <g id="line2d_70">
    <path d="M 539.012279 219.114472 
L 545.908983 213.444751 
L 552.805687 219.114472 
" style="fill: none; stroke: #000000; stroke-linecap: square"/>
   </g>
   <g id="line2d_71">
    <path d="M 513.177222 247.658332 
L 512.32106 246.209441 
L 511.79419 246.156754 
L 511.010472 246.400431 
L 510.220168 247.658332 
L 510.3453 251.675711 
L 509.884289 257.451517 
L 510.872169 259.960732 
L 512.32106 260.428329 
L 513.704092 259.209943 
" style="fill: none; stroke: #000000; stroke-linecap: square"/>
   </g>
   <g id="line2d_72">
    <path d="M 578.640744 247.658332 
L 579.496907 246.209441 
L 580.023776 246.156754 
L 580.807494 246.400431 
L 581.597798 247.658332 
L 581.472667 251.675711 
L 581.933677 257.451517 
L 580.945797 259.960732 
L 579.496907 260.428329 
L 578.113874 259.209943 
" style="fill: none; stroke: #000000; stroke-linecap: square"/>
   </g>
  </g>
  <g id="axes_7">
   <g id="patch_17">
    <path d="M 72 386.255152 
L 418.742034 386.255152 
L 418.742034 308.377271 
L 72 308.377271 
z
" style="fill: #ffffff"/>
   </g>
   <g id="matplotlib.axis_7">
    <g id="xtick_13">
     <g id="line2d_73">
      <g>
       <use xlink:href="#m7e5d610311" x="92.39659" y="386.255152" style="stroke: #000000; stroke-width: 0.8"/>
      </g>
     </g>
    </g>
    <g id="xtick_14">
     <g id="line2d_74">
      <g>
       <use xlink:href="#m7e5d610311" x="194.379541" y="386.255152" style="stroke: #000000; stroke-width: 0.8"/>
      </g>
     </g>
    </g>
    <g id="xtick_15">
     <g id="line2d_75">
      <g>
       <use xlink:href="#m7e5d610311" x="296.362492" y="386.255152" style="stroke: #000000; stroke-width: 0.8"/>
      </g>
     </g>
    </g>
    <g id="xtick_16">
     <g id="line2d_76">
      <g>
       <use xlink:href="#m7e5d610311" x="398.345444" y="386.255152" style="stroke: #000000; stroke-width: 0.8"/>
      </g>
     </g>
    </g>
   </g>
   <g id="matplotlib.axis_8">
    <g id="ytick_13">
     <g id="line2d_77">
      <g>
       <use xlink:href="#m8924e7785f" x="72" y="386.255152" style="stroke: #000000; stroke-width: 0.8"/>
      </g>
     </g>
     <g id="text_14">
      <!-- 0.00 -->
      <g transform="translate(42.734375 390.054371)scale(0.1 -0.1)">
       <use xlink:href="#DejaVuSans-30"/>
       <use xlink:href="#DejaVuSans-2e" x="63.623047"/>
       <use xlink:href="#DejaVuSans-30" x="95.410156"/>
       <use xlink:href="#DejaVuSans-30" x="159.033203"/>
      </g>
     </g>
    </g>
    <g id="ytick_14">
     <g id="line2d_78">
      <g>
       <use xlink:href="#m8924e7785f" x="72" y="360.295859" style="stroke: #000000; stroke-width: 0.8"/>
      </g>
     </g>
     <g id="text_15">
      <!-- 0.05 -->
      <g transform="translate(42.734375 364.095077)scale(0.1 -0.1)">
       <use xlink:href="#DejaVuSans-30"/>
       <use xlink:href="#DejaVuSans-2e" x="63.623047"/>
       <use xlink:href="#DejaVuSans-30" x="95.410156"/>
       <use xlink:href="#DejaVuSans-35" x="159.033203"/>
      </g>
     </g>
    </g>
    <g id="ytick_15">
     <g id="line2d_79">
      <g>
       <use xlink:href="#m8924e7785f" x="72" y="334.336565" style="stroke: #000000; stroke-width: 0.8"/>
      </g>
     </g>
     <g id="text_16">
      <!-- 0.10 -->
      <g transform="translate(42.734375 338.135784)scale(0.1 -0.1)">
       <use xlink:href="#DejaVuSans-30"/>
       <use xlink:href="#DejaVuSans-2e" x="63.623047"/>
       <use xlink:href="#DejaVuSans-31" x="95.410156"/>
       <use xlink:href="#DejaVuSans-30" x="159.033203"/>
      </g>
     </g>
    </g>
    <g id="ytick_16">
     <g id="line2d_80">
      <g>
       <use xlink:href="#m8924e7785f" x="72" y="308.377271" style="stroke: #000000; stroke-width: 0.8"/>
      </g>
     </g>
     <g id="text_17">
      <!-- 0.15 -->
      <g transform="translate(42.734375 312.17649)scale(0.1 -0.1)">
       <use xlink:href="#DejaVuSans-30"/>
       <use xlink:href="#DejaVuSans-2e" x="63.623047"/>
       <use xlink:href="#DejaVuSans-31" x="95.410156"/>
       <use xlink:href="#DejaVuSans-35" x="159.033203"/>
      </g>
     </g>
    </g>
   </g>
   <g id="LineCollection_13">
    <path d="M 92.39659 338.28158 
L 92.39659 327.253848 
" clip-path="url(#p49c988947f)" style="fill: none; stroke: #1f77b4; stroke-width: 1.5"/>
   </g>
   <g id="line2d_81">
    <g clip-path="url(#p49c988947f)">
     <use xlink:href="#m8ca70c7ec1" x="92.39659" y="338.28158" style="fill: #1f77b4; stroke: #1f77b4"/>
    </g>
   </g>
   <g id="line2d_82">
    <g clip-path="url(#p49c988947f)">
     <use xlink:href="#m8ca70c7ec1" x="92.39659" y="327.253848" style="fill: #1f77b4; stroke: #1f77b4"/>
    </g>
   </g>
   <g id="LineCollection_14">
    <path d="M 194.379541 352.648834 
L 194.379541 342.264096 
" clip-path="url(#p49c988947f)" style="fill: none; stroke: #ff7f0e; stroke-width: 1.5"/>
   </g>
   <g id="line2d_83">
    <g clip-path="url(#p49c988947f)">
     <use xlink:href="#mb1a24c9ee8" x="194.379541" y="352.648834" style="fill: #ff7f0e; stroke: #ff7f0e"/>
    </g>
   </g>
   <g id="line2d_84">
    <g clip-path="url(#p49c988947f)">
     <use xlink:href="#mb1a24c9ee8" x="194.379541" y="342.264096" style="fill: #ff7f0e; stroke: #ff7f0e"/>
    </g>
   </g>
   <g id="LineCollection_15">
    <path d="M 296.362492 342.456763 
L 296.362492 330.59165 
" clip-path="url(#p49c988947f)" style="fill: none; stroke: #2ca02c; stroke-width: 1.5"/>
   </g>
   <g id="line2d_85">
    <g clip-path="url(#p49c988947f)">
     <use xlink:href="#m3b8dd14d8a" x="296.362492" y="342.456763" style="fill: #2ca02c; stroke: #2ca02c"/>
    </g>
   </g>
   <g id="line2d_86">
    <g clip-path="url(#p49c988947f)">
     <use xlink:href="#m3b8dd14d8a" x="296.362492" y="330.59165" style="fill: #2ca02c; stroke: #2ca02c"/>
    </g>
   </g>
   <g id="LineCollection_16">
    <path d="M 398.345444 365.595485 
L 398.345444 353.787712 
" clip-path="url(#p49c988947f)" style="fill: none; stroke: #d62728; stroke-width: 1.5"/>
   </g>
   <g id="line2d_87">
    <g clip-path="url(#p49c988947f)">
     <use xlink:href="#ma1cb28231b" x="398.345444" y="365.595485" style="fill: #d62728; stroke: #d62728"/>
    </g>
   </g>
   <g id="line2d_88">
    <g clip-path="url(#p49c988947f)">
     <use xlink:href="#ma1cb28231b" x="398.345444" y="353.787712" style="fill: #d62728; stroke: #d62728"/>
    </g>
   </g>
   <g id="line2d_89">
    <g clip-path="url(#p49c988947f)">
     <use xlink:href="#m02f795422e" x="92.39659" y="332.767714" style="fill: #1f77b4; stroke: #1f77b4"/>
    </g>
   </g>
   <g id="line2d_90">
    <g clip-path="url(#p49c988947f)">
     <use xlink:href="#m422b918a51" x="194.379541" y="347.456465" style="fill: #ff7f0e; stroke: #ff7f0e"/>
    </g>
   </g>
   <g id="line2d_91">
    <g clip-path="url(#p49c988947f)">
     <use xlink:href="#m00c9e15667" x="296.362492" y="336.524206" style="fill: #2ca02c; stroke: #2ca02c"/>
    </g>
   </g>
   <g id="line2d_92">
    <g clip-path="url(#p49c988947f)">
     <use xlink:href="#mda9c306f65" x="398.345444" y="359.691599" style="fill: #d62728; stroke: #d62728"/>
    </g>
   </g>
   <g id="patch_18">
    <path d="M 72 386.255152 
L 72 308.377271 
" style="fill: none; stroke: #000000; stroke-width: 0.8; stroke-linejoin: miter; stroke-linecap: square"/>
   </g>
   <g id="patch_19">
    <path d="M 418.742034 386.255152 
L 418.742034 308.377271 
" style="fill: none; stroke: #000000; stroke-width: 0.8; stroke-linejoin: miter; stroke-linecap: square"/>
   </g>
   <g id="patch_20">
    <path d="M 72 386.255152 
L 418.742034 386.255152 
" style="fill: none; stroke: #000000; stroke-width: 0.8; stroke-linejoin: miter; stroke-linecap: square"/>
   </g>
   <g id="patch_21">
    <path d="M 72 308.377271 
L 418.742034 308.377271 
" style="fill: none; stroke: #000000; stroke-width: 0.8; stroke-linejoin: miter; stroke-linecap: square"/>
   </g>
  </g>
  <g id="axes_8">
   <g id="PathCollection_4">
    <g>
     <use xlink:href="#m4e8826d108" x="533.807941" y="323.053224" style="fill: #aa3377; stroke: #000000; stroke-width: 2"/>
    </g>
   </g>
   <g id="line2d_93">
    <path d="M 578.83832 349.785912 
L 578.773341 347.718262 
L 578.578662 345.658772 
L 578.255051 343.61557 
L 577.803784 341.596719 
L 577.226643 339.610187 
L 576.525906 337.663815 
L 575.704338 335.765282 
L 574.765181 333.922083 
L 573.712142 332.141491 
L 572.549376 330.430534 
L 571.281473 328.795963 
L 569.913436 327.24423 
L 568.450665 325.781459 
L 566.898932 324.413422 
L 565.264362 323.145519 
L 563.553404 321.982754 
L 561.772812 320.929714 
L 559.929613 319.990557 
L 558.03108 319.168989 
L 556.084708 318.468252 
L 554.098176 317.891111 
L 552.079326 317.439845 
L 550.036123 317.116233 
L 547.976633 316.921554 
L 545.908983 316.856575 
L 543.841333 316.921554 
L 541.781843 317.116233 
L 539.738641 317.439845 
L 537.71979 317.891111 
L 535.733258 318.468252 
L 533.786886 319.168989 
L 531.888353 319.990557 
L 530.045154 320.929714 
L 528.264562 321.982754 
L 526.553605 323.145519 
L 524.919034 324.413422 
L 523.367301 325.781459 
L 521.90453 327.24423 
L 520.536493 328.795963 
L 519.26859 330.430534 
L 518.105825 332.141491 
L 517.052785 333.922083 
L 516.113628 335.765282 
L 515.29206 337.663815 
L 514.591323 339.610187 
L 514.014182 341.596719 
L 513.562916 343.61557 
L 513.239304 345.658772 
L 513.044625 347.718262 
L 512.979646 349.785912 
L 513.044625 351.853562 
L 513.239304 353.913052 
L 513.562916 355.956255 
L 514.014182 357.975105 
L 514.591323 359.961637 
L 515.29206 361.908009 
L 516.113628 363.806542 
L 517.052785 365.649741 
L 518.105825 367.430333 
L 519.26859 369.141291 
L 520.536493 370.775861 
L 521.90453 372.327594 
L 523.367301 373.790365 
L 524.919034 375.158402 
L 526.553605 376.426305 
L 528.264562 377.589071 
L 530.045154 378.64211 
L 531.888353 379.581267 
L 533.786886 380.402835 
L 535.733258 381.103572 
L 537.71979 381.680713 
L 539.738641 382.13198 
L 541.781843 382.455591 
L 543.841333 382.65027 
L 545.908983 382.715249 
L 547.976633 382.65027 
L 550.036123 382.455591 
L 552.079326 382.13198 
L 554.098176 381.680713 
L 556.084708 381.103572 
L 558.03108 380.402835 
L 559.929613 379.581267 
L 561.772812 378.64211 
L 563.553404 377.589071 
L 565.264362 376.426305 
L 566.898932 375.158402 
L 568.450665 373.790365 
L 569.913436 372.327594 
L 571.281473 370.775861 
L 572.549376 369.141291 
L 573.712142 367.430333 
L 574.765181 365.649741 
L 575.704338 363.806542 
L 576.525906 361.908009 
L 577.226643 359.961637 
L 577.803784 357.975105 
L 578.255051 355.956255 
L 578.578662 353.913052 
L 578.773341 351.853562 
L 578.83832 349.785912 
" style="fill: none; stroke: #000000; stroke-linecap: square"/>
   </g>
   <g id="line2d_94">
    <path d="M 539.012279 317.586895 
L 545.908983 311.917175 
L 552.805687 317.586895 
" style="fill: none; stroke: #000000; stroke-linecap: square"/>
   </g>
   <g id="line2d_95">
    <path d="M 513.177222 346.130756 
L 512.32106 344.681865 
L 511.79419 344.629178 
L 511.010472 344.872855 
L 510.220168 346.130756 
L 510.3453 350.148135 
L 509.884289 355.92394 
L 510.872169 358.433156 
L 512.32106 358.900753 
L 513.704092 357.682367 
" style="fill: none; stroke: #000000; stroke-linecap: square"/>
   </g>
   <g id="line2d_96">
    <path d="M 578.640744 346.130756 
L 579.496907 344.681865 
L 580.023776 344.629178 
L 580.807494 344.872855 
L 581.597798 346.130756 
L 581.472667 350.148135 
L 581.933677 355.92394 
L 580.945797 358.433156 
L 579.496907 358.900753 
L 578.113874 357.682367 
" style="fill: none; stroke: #000000; stroke-linecap: square"/>
   </g>
  </g>
  <g id="axes_9">
   <g id="patch_22">
    <path d="M 72 484.727576 
L 418.742034 484.727576 
L 418.742034 406.849695 
L 72 406.849695 
z
" style="fill: #ffffff"/>
   </g>
   <g id="matplotlib.axis_9">
    <g id="xtick_17">
     <g id="line2d_97">
      <g>
       <use xlink:href="#m7e5d610311" x="92.39659" y="484.727576" style="stroke: #000000; stroke-width: 0.8"/>
      </g>
     </g>
    </g>
    <g id="xtick_18">
     <g id="line2d_98">
      <g>
       <use xlink:href="#m7e5d610311" x="194.379541" y="484.727576" style="stroke: #000000; stroke-width: 0.8"/>
      </g>
     </g>
    </g>
    <g id="xtick_19">
     <g id="line2d_99">
      <g>
       <use xlink:href="#m7e5d610311" x="296.362492" y="484.727576" style="stroke: #000000; stroke-width: 0.8"/>
      </g>
     </g>
    </g>
    <g id="xtick_20">
     <g id="line2d_100">
      <g>
       <use xlink:href="#m7e5d610311" x="398.345444" y="484.727576" style="stroke: #000000; stroke-width: 0.8"/>
      </g>
     </g>
    </g>
   </g>
   <g id="matplotlib.axis_10">
    <g id="ytick_17">
     <g id="line2d_101">
      <g>
       <use xlink:href="#m8924e7785f" x="72" y="484.727576" style="stroke: #000000; stroke-width: 0.8"/>
      </g>
     </g>
     <g id="text_18">
      <!-- 0.00 -->
      <g transform="translate(42.734375 488.526795)scale(0.1 -0.1)">
       <use xlink:href="#DejaVuSans-30"/>
       <use xlink:href="#DejaVuSans-2e" x="63.623047"/>
       <use xlink:href="#DejaVuSans-30" x="95.410156"/>
       <use xlink:href="#DejaVuSans-30" x="159.033203"/>
      </g>
     </g>
    </g>
    <g id="ytick_18">
     <g id="line2d_102">
      <g>
       <use xlink:href="#m8924e7785f" x="72" y="458.768283" style="stroke: #000000; stroke-width: 0.8"/>
      </g>
     </g>
     <g id="text_19">
      <!-- 0.05 -->
      <g transform="translate(42.734375 462.567501)scale(0.1 -0.1)">
       <use xlink:href="#DejaVuSans-30"/>
       <use xlink:href="#DejaVuSans-2e" x="63.623047"/>
       <use xlink:href="#DejaVuSans-30" x="95.410156"/>
       <use xlink:href="#DejaVuSans-35" x="159.033203"/>
      </g>
     </g>
    </g>
    <g id="ytick_19">
     <g id="line2d_103">
      <g>
       <use xlink:href="#m8924e7785f" x="72" y="432.808989" style="stroke: #000000; stroke-width: 0.8"/>
      </g>
     </g>
     <g id="text_20">
      <!-- 0.10 -->
      <g transform="translate(42.734375 436.608208)scale(0.1 -0.1)">
       <use xlink:href="#DejaVuSans-30"/>
       <use xlink:href="#DejaVuSans-2e" x="63.623047"/>
       <use xlink:href="#DejaVuSans-31" x="95.410156"/>
       <use xlink:href="#DejaVuSans-30" x="159.033203"/>
      </g>
     </g>
    </g>
    <g id="ytick_20">
     <g id="line2d_104">
      <g>
       <use xlink:href="#m8924e7785f" x="72" y="406.849695" style="stroke: #000000; stroke-width: 0.8"/>
      </g>
     </g>
     <g id="text_21">
      <!-- 0.15 -->
      <g transform="translate(42.734375 410.648914)scale(0.1 -0.1)">
       <use xlink:href="#DejaVuSans-30"/>
       <use xlink:href="#DejaVuSans-2e" x="63.623047"/>
       <use xlink:href="#DejaVuSans-31" x="95.410156"/>
       <use xlink:href="#DejaVuSans-35" x="159.033203"/>
      </g>
     </g>
    </g>
   </g>
   <g id="LineCollection_17">
    <path d="M 92.39659 434.518632 
L 92.39659 421.048053 
" clip-path="url(#p5f1f346f89)" style="fill: none; stroke: #1f77b4; stroke-width: 1.5"/>
   </g>
   <g id="line2d_105">
    <g clip-path="url(#p5f1f346f89)">
     <use xlink:href="#m8ca70c7ec1" x="92.39659" y="434.518632" style="fill: #1f77b4; stroke: #1f77b4"/>
    </g>
   </g>
   <g id="line2d_106">
    <g clip-path="url(#p5f1f346f89)">
     <use xlink:href="#m8ca70c7ec1" x="92.39659" y="421.048053" style="fill: #1f77b4; stroke: #1f77b4"/>
    </g>
   </g>
   <g id="LineCollection_18">
    <path d="M 194.379541 455.43963 
L 194.379541 444.265165 
" clip-path="url(#p5f1f346f89)" style="fill: none; stroke: #ff7f0e; stroke-width: 1.5"/>
   </g>
   <g id="line2d_107">
    <g clip-path="url(#p5f1f346f89)">
     <use xlink:href="#mb1a24c9ee8" x="194.379541" y="455.43963" style="fill: #ff7f0e; stroke: #ff7f0e"/>
    </g>
   </g>
   <g id="line2d_108">
    <g clip-path="url(#p5f1f346f89)">
     <use xlink:href="#mb1a24c9ee8" x="194.379541" y="444.265165" style="fill: #ff7f0e; stroke: #ff7f0e"/>
    </g>
   </g>
   <g id="LineCollection_19">
    <path d="M 296.362492 447.985397 
L 296.362492 434.684301 
" clip-path="url(#p5f1f346f89)" style="fill: none; stroke: #2ca02c; stroke-width: 1.5"/>
   </g>
   <g id="line2d_109">
    <g clip-path="url(#p5f1f346f89)">
     <use xlink:href="#m3b8dd14d8a" x="296.362492" y="447.985397" style="fill: #2ca02c; stroke: #2ca02c"/>
    </g>
   </g>
   <g id="line2d_110">
    <g clip-path="url(#p5f1f346f89)">
     <use xlink:href="#m3b8dd14d8a" x="296.362492" y="434.684301" style="fill: #2ca02c; stroke: #2ca02c"/>
    </g>
   </g>
   <g id="LineCollection_20">
    <path d="M 398.345444 450.31585 
L 398.345444 436.633778 
" clip-path="url(#p5f1f346f89)" style="fill: none; stroke: #d62728; stroke-width: 1.5"/>
   </g>
   <g id="line2d_111">
    <g clip-path="url(#p5f1f346f89)">
     <use xlink:href="#ma1cb28231b" x="398.345444" y="450.31585" style="fill: #d62728; stroke: #d62728"/>
    </g>
   </g>
   <g id="line2d_112">
    <g clip-path="url(#p5f1f346f89)">
     <use xlink:href="#ma1cb28231b" x="398.345444" y="436.633778" style="fill: #d62728; stroke: #d62728"/>
    </g>
   </g>
   <g id="line2d_113">
    <g clip-path="url(#p5f1f346f89)">
     <use xlink:href="#m02f795422e" x="92.39659" y="427.783342" style="fill: #1f77b4; stroke: #1f77b4"/>
    </g>
   </g>
   <g id="line2d_114">
    <g clip-path="url(#p5f1f346f89)">
     <use xlink:href="#m422b918a51" x="194.379541" y="449.852398" style="fill: #ff7f0e; stroke: #ff7f0e"/>
    </g>
   </g>
   <g id="line2d_115">
    <g clip-path="url(#p5f1f346f89)">
     <use xlink:href="#m00c9e15667" x="296.362492" y="441.334849" style="fill: #2ca02c; stroke: #2ca02c"/>
    </g>
   </g>
   <g id="line2d_116">
    <g clip-path="url(#p5f1f346f89)">
     <use xlink:href="#mda9c306f65" x="398.345444" y="443.474814" style="fill: #d62728; stroke: #d62728"/>
    </g>
   </g>
   <g id="patch_23">
    <path d="M 72 484.727576 
L 72 406.849695 
" style="fill: none; stroke: #000000; stroke-width: 0.8; stroke-linejoin: miter; stroke-linecap: square"/>
   </g>
   <g id="patch_24">
    <path d="M 418.742034 484.727576 
L 418.742034 406.849695 
" style="fill: none; stroke: #000000; stroke-width: 0.8; stroke-linejoin: miter; stroke-linecap: square"/>
   </g>
   <g id="patch_25">
    <path d="M 72 484.727576 
L 418.742034 484.727576 
" style="fill: none; stroke: #000000; stroke-width: 0.8; stroke-linejoin: miter; stroke-linecap: square"/>
   </g>
   <g id="patch_26">
    <path d="M 72 406.849695 
L 418.742034 406.849695 
" style="fill: none; stroke: #000000; stroke-width: 0.8; stroke-linejoin: miter; stroke-linecap: square"/>
   </g>
  </g>
  <g id="axes_10">
   <g id="PathCollection_5">
    <g>
     <use xlink:href="#m616de66dfd" x="559.278788" y="421.612138" style="fill: #ff0000; stroke: #ff0000; stroke-width: 2"/>
    </g>
   </g>
   <g id="line2d_117">
    <path d="M 578.83832 448.258336 
L 578.773341 446.190686 
L 578.578662 444.131196 
L 578.255051 442.087993 
L 577.803784 440.069143 
L 577.226643 438.082611 
L 576.525906 436.136239 
L 575.704338 434.237706 
L 574.765181 432.394507 
L 573.712142 430.613915 
L 572.549376 428.902957 
L 571.281473 427.268387 
L 569.913436 425.716654 
L 568.450665 424.253883 
L 566.898932 422.885846 
L 565.264362 421.617943 
L 563.553404 420.455177 
L 561.772812 419.402138 
L 559.929613 418.462981 
L 558.03108 417.641413 
L 556.084708 416.940676 
L 554.098176 416.363535 
L 552.079326 415.912268 
L 550.036123 415.588657 
L 547.976633 415.393978 
L 545.908983 415.328999 
L 543.841333 415.393978 
L 541.781843 415.588657 
L 539.738641 415.912268 
L 537.71979 416.363535 
L 535.733258 416.940676 
L 533.786886 417.641413 
L 531.888353 418.462981 
L 530.045154 419.402138 
L 528.264562 420.455177 
L 526.553605 421.617943 
L 524.919034 422.885846 
L 523.367301 424.253883 
L 521.90453 425.716654 
L 520.536493 427.268387 
L 519.26859 428.902957 
L 518.105825 430.613915 
L 517.052785 432.394507 
L 516.113628 434.237706 
L 515.29206 436.136239 
L 514.591323 438.082611 
L 514.014182 440.069143 
L 513.562916 442.087993 
L 513.239304 444.131196 
L 513.044625 446.190686 
L 512.979646 448.258336 
L 513.044625 450.325986 
L 513.239304 452.385476 
L 513.562916 454.428678 
L 514.014182 456.447529 
L 514.591323 458.434061 
L 515.29206 460.380433 
L 516.113628 462.278966 
L 517.052785 464.122165 
L 518.105825 465.902757 
L 519.26859 467.613714 
L 520.536493 469.248285 
L 521.90453 470.800018 
L 523.367301 472.262789 
L 524.919034 473.630826 
L 526.553605 474.898729 
L 528.264562 476.061494 
L 530.045154 477.114534 
L 531.888353 478.053691 
L 533.786886 478.875259 
L 535.733258 479.575996 
L 537.71979 480.153137 
L 539.738641 480.604403 
L 541.781843 480.928015 
L 543.841333 481.122694 
L 545.908983 481.187673 
L 547.976633 481.122694 
L 550.036123 480.928015 
L 552.079326 480.604403 
L 554.098176 480.153137 
L 556.084708 479.575996 
L 558.03108 478.875259 
L 559.929613 478.053691 
L 561.772812 477.114534 
L 563.553404 476.061494 
L 565.264362 474.898729 
L 566.898932 473.630826 
L 568.450665 472.262789 
L 569.913436 470.800018 
L 571.281473 469.248285 
L 572.549376 467.613714 
L 573.712142 465.902757 
L 574.765181 464.122165 
L 575.704338 462.278966 
L 576.525906 460.380433 
L 577.226643 458.434061 
L 577.803784 456.447529 
L 578.255051 454.428678 
L 578.578662 452.385476 
L 578.773341 450.325986 
L 578.83832 448.258336 
" style="fill: none; stroke: #000000; stroke-linecap: square"/>
   </g>
   <g id="line2d_118">
    <path d="M 539.012279 416.059319 
L 545.908983 410.389599 
L 552.805687 416.059319 
" style="fill: none; stroke: #000000; stroke-linecap: square"/>
   </g>
   <g id="line2d_119">
    <path d="M 513.177222 444.60318 
L 512.32106 443.154289 
L 511.79419 443.101602 
L 511.010472 443.345279 
L 510.220168 444.60318 
L 510.3453 448.620559 
L 509.884289 454.396364 
L 510.872169 456.90558 
L 512.32106 457.373176 
L 513.704092 456.154791 
" style="fill: none; stroke: #000000; stroke-linecap: square"/>
   </g>
   <g id="line2d_120">
    <path d="M 578.640744 444.60318 
L 579.496907 443.154289 
L 580.023776 443.101602 
L 580.807494 443.345279 
L 581.597798 444.60318 
L 581.472667 448.620559 
L 581.933677 454.396364 
L 580.945797 456.90558 
L 579.496907 457.373176 
L 578.113874 456.154791 
" style="fill: none; stroke: #000000; stroke-linecap: square"/>
   </g>
  </g>
  <g id="axes_11">
   <g id="patch_27">
    <path d="M 72 583.2 
L 418.742034 583.2 
L 418.742034 505.322119 
L 72 505.322119 
z
" style="fill: #ffffff"/>
   </g>
   <g id="matplotlib.axis_11">
    <g id="xtick_21">
     <g id="line2d_121">
      <g>
       <use xlink:href="#m7e5d610311" x="92.39659" y="583.2" style="stroke: #000000; stroke-width: 0.8"/>
      </g>
     </g>
     <g id="text_22">
      <!-- Small -->
      <g transform="translate(67.400496 603.877188)scale(0.18 -0.18)">
       <defs>
        <path id="DejaVuSans-53" d="M 3425 4513 
L 3425 3897 
Q 3066 4069 2747 4153 
Q 2428 4238 2131 4238 
Q 1616 4238 1336 4038 
Q 1056 3838 1056 3469 
Q 1056 3159 1242 3001 
Q 1428 2844 1947 2747 
L 2328 2669 
Q 3034 2534 3370 2195 
Q 3706 1856 3706 1288 
Q 3706 609 3251 259 
Q 2797 -91 1919 -91 
Q 1588 -91 1214 -16 
Q 841 59 441 206 
L 441 856 
Q 825 641 1194 531 
Q 1563 422 1919 422 
Q 2459 422 2753 634 
Q 3047 847 3047 1241 
Q 3047 1584 2836 1778 
Q 2625 1972 2144 2069 
L 1759 2144 
Q 1053 2284 737 2584 
Q 422 2884 422 3419 
Q 422 4038 858 4394 
Q 1294 4750 2059 4750 
Q 2388 4750 2728 4690 
Q 3069 4631 3425 4513 
z
" transform="scale(0.015625)"/>
        <path id="DejaVuSans-6c" d="M 603 4863 
L 1178 4863 
L 1178 0 
L 603 0 
L 603 4863 
z
" transform="scale(0.015625)"/>
       </defs>
       <use xlink:href="#DejaVuSans-53"/>
       <use xlink:href="#DejaVuSans-6d" x="63.476562"/>
       <use xlink:href="#DejaVuSans-61" x="160.888672"/>
       <use xlink:href="#DejaVuSans-6c" x="222.167969"/>
       <use xlink:href="#DejaVuSans-6c" x="249.951172"/>
      </g>
      <!--  ITD -->
      <g transform="translate(74.454246 624.03325)scale(0.18 -0.18)">
       <defs>
        <path id="DejaVuSans-49" d="M 628 4666 
L 1259 4666 
L 1259 0 
L 628 0 
L 628 4666 
z
" transform="scale(0.015625)"/>
        <path id="DejaVuSans-54" d="M -19 4666 
L 3928 4666 
L 3928 4134 
L 2272 4134 
L 2272 0 
L 1638 0 
L 1638 4134 
L -19 4134 
L -19 4666 
z
" transform="scale(0.015625)"/>
        <path id="DejaVuSans-44" d="M 1259 4147 
L 1259 519 
L 2022 519 
Q 2988 519 3436 956 
Q 3884 1394 3884 2338 
Q 3884 3275 3436 3711 
Q 2988 4147 2022 4147 
L 1259 4147 
z
M 628 4666 
L 1925 4666 
Q 3281 4666 3915 4102 
Q 4550 3538 4550 2338 
Q 4550 1131 3912 565 
Q 3275 0 1925 0 
L 628 0 
L 628 4666 
z
" transform="scale(0.015625)"/>
       </defs>
       <use xlink:href="#DejaVuSans-20"/>
       <use xlink:href="#DejaVuSans-49" x="31.787109"/>
       <use xlink:href="#DejaVuSans-54" x="61.279297"/>
       <use xlink:href="#DejaVuSans-44" x="122.363281"/>
      </g>
     </g>
    </g>
    <g id="xtick_22">
     <g id="line2d_122">
      <g>
       <use xlink:href="#m7e5d610311" x="194.379541" y="583.2" style="stroke: #000000; stroke-width: 0.8"/>
      </g>
     </g>
     <g id="text_23">
      <!-- Large -->
      <g transform="translate(169.055791 603.877188)scale(0.18 -0.18)">
       <defs>
        <path id="DejaVuSans-4c" d="M 628 4666 
L 1259 4666 
L 1259 531 
L 3531 531 
L 3531 0 
L 628 0 
L 628 4666 
z
" transform="scale(0.015625)"/>
       </defs>
       <use xlink:href="#DejaVuSans-4c"/>
       <use xlink:href="#DejaVuSans-61" x="55.712891"/>
       <use xlink:href="#DejaVuSans-72" x="116.992188"/>
       <use xlink:href="#DejaVuSans-67" x="156.355469"/>
       <use xlink:href="#DejaVuSans-65" x="219.832031"/>
      </g>
      <!--  ITD -->
      <g transform="translate(176.437198 624.03325)scale(0.18 -0.18)">
       <use xlink:href="#DejaVuSans-20"/>
       <use xlink:href="#DejaVuSans-49" x="31.787109"/>
       <use xlink:href="#DejaVuSans-54" x="61.279297"/>
       <use xlink:href="#DejaVuSans-44" x="122.363281"/>
      </g>
     </g>
    </g>
    <g id="xtick_23">
     <g id="line2d_123">
      <g>
       <use xlink:href="#m7e5d610311" x="296.362492" y="583.2" style="stroke: #000000; stroke-width: 0.8"/>
      </g>
     </g>
     <g id="text_24">
      <!-- Natural -->
      <g transform="translate(263.166555 603.877188)scale(0.18 -0.18)">
       <defs>
        <path id="DejaVuSans-4e" d="M 628 4666 
L 1478 4666 
L 3547 763 
L 3547 4666 
L 4159 4666 
L 4159 0 
L 3309 0 
L 1241 3903 
L 1241 0 
L 628 0 
L 628 4666 
z
" transform="scale(0.015625)"/>
       </defs>
       <use xlink:href="#DejaVuSans-4e"/>
       <use xlink:href="#DejaVuSans-61" x="74.804688"/>
       <use xlink:href="#DejaVuSans-74" x="136.083984"/>
       <use xlink:href="#DejaVuSans-75" x="175.292969"/>
       <use xlink:href="#DejaVuSans-72" x="238.671875"/>
       <use xlink:href="#DejaVuSans-61" x="279.785156"/>
       <use xlink:href="#DejaVuSans-6c" x="341.064453"/>
      </g>
      <!--  ILD -->
      <g transform="translate(278.902492 624.03325)scale(0.18 -0.18)">
       <use xlink:href="#DejaVuSans-20"/>
       <use xlink:href="#DejaVuSans-49" x="31.787109"/>
       <use xlink:href="#DejaVuSans-4c" x="61.279297"/>
       <use xlink:href="#DejaVuSans-44" x="116.992188"/>
      </g>
     </g>
    </g>
    <g id="xtick_24">
     <g id="line2d_124">
      <g>
       <use xlink:href="#m7e5d610311" x="398.345444" y="583.2" style="stroke: #000000; stroke-width: 0.8"/>
      </g>
     </g>
     <g id="text_25">
      <!-- Broadband -->
      <g transform="translate(349.291225 603.877188)scale(0.18 -0.18)">
       <defs>
        <path id="DejaVuSans-42" d="M 1259 2228 
L 1259 519 
L 2272 519 
Q 2781 519 3026 730 
Q 3272 941 3272 1375 
Q 3272 1813 3026 2020 
Q 2781 2228 2272 2228 
L 1259 2228 
z
M 1259 4147 
L 1259 2741 
L 2194 2741 
Q 2656 2741 2882 2914 
Q 3109 3088 3109 3444 
Q 3109 3797 2882 3972 
Q 2656 4147 2194 4147 
L 1259 4147 
z
M 628 4666 
L 2241 4666 
Q 2963 4666 3353 4366 
Q 3744 4066 3744 3513 
Q 3744 3084 3544 2831 
Q 3344 2578 2956 2516 
Q 3422 2416 3680 2098 
Q 3938 1781 3938 1306 
Q 3938 681 3513 340 
Q 3088 0 2303 0 
L 628 0 
L 628 4666 
z
" transform="scale(0.015625)"/>
        <path id="DejaVuSans-6f" d="M 1959 3097 
Q 1497 3097 1228 2736 
Q 959 2375 959 1747 
Q 959 1119 1226 758 
Q 1494 397 1959 397 
Q 2419 397 2687 759 
Q 2956 1122 2956 1747 
Q 2956 2369 2687 2733 
Q 2419 3097 1959 3097 
z
M 1959 3584 
Q 2709 3584 3137 3096 
Q 3566 2609 3566 1747 
Q 3566 888 3137 398 
Q 2709 -91 1959 -91 
Q 1206 -91 779 398 
Q 353 888 353 1747 
Q 353 2609 779 3096 
Q 1206 3584 1959 3584 
z
" transform="scale(0.015625)"/>
       </defs>
       <use xlink:href="#DejaVuSans-42"/>
       <use xlink:href="#DejaVuSans-72" x="68.603516"/>
       <use xlink:href="#DejaVuSans-6f" x="107.466797"/>
       <use xlink:href="#DejaVuSans-61" x="168.648438"/>
       <use xlink:href="#DejaVuSans-64" x="229.927734"/>
       <use xlink:href="#DejaVuSans-62" x="293.404297"/>
       <use xlink:href="#DejaVuSans-61" x="356.880859"/>
       <use xlink:href="#DejaVuSans-6e" x="418.160156"/>
       <use xlink:href="#DejaVuSans-64" x="481.539062"/>
      </g>
      <!--  ILD -->
      <g transform="translate(380.885444 624.03325)scale(0.18 -0.18)">
       <use xlink:href="#DejaVuSans-20"/>
       <use xlink:href="#DejaVuSans-49" x="31.787109"/>
       <use xlink:href="#DejaVuSans-4c" x="61.279297"/>
       <use xlink:href="#DejaVuSans-44" x="116.992188"/>
      </g>
     </g>
    </g>
   </g>
   <g id="matplotlib.axis_12">
    <g id="ytick_21">
     <g id="line2d_125">
      <g>
       <use xlink:href="#m8924e7785f" x="72" y="583.2" style="stroke: #000000; stroke-width: 0.8"/>
      </g>
     </g>
     <g id="text_26">
      <!-- 0.00 -->
      <g transform="translate(42.734375 586.999219)scale(0.1 -0.1)">
       <use xlink:href="#DejaVuSans-30"/>
       <use xlink:href="#DejaVuSans-2e" x="63.623047"/>
       <use xlink:href="#DejaVuSans-30" x="95.410156"/>
       <use xlink:href="#DejaVuSans-30" x="159.033203"/>
      </g>
     </g>
    </g>
    <g id="ytick_22">
     <g id="line2d_126">
      <g>
       <use xlink:href="#m8924e7785f" x="72" y="557.240706" style="stroke: #000000; stroke-width: 0.8"/>
      </g>
     </g>
     <g id="text_27">
      <!-- 0.05 -->
      <g transform="translate(42.734375 561.039925)scale(0.1 -0.1)">
       <use xlink:href="#DejaVuSans-30"/>
       <use xlink:href="#DejaVuSans-2e" x="63.623047"/>
       <use xlink:href="#DejaVuSans-30" x="95.410156"/>
       <use xlink:href="#DejaVuSans-35" x="159.033203"/>
      </g>
     </g>
    </g>
    <g id="ytick_23">
     <g id="line2d_127">
      <g>
       <use xlink:href="#m8924e7785f" x="72" y="531.281413" style="stroke: #000000; stroke-width: 0.8"/>
      </g>
     </g>
     <g id="text_28">
      <!-- 0.10 -->
      <g transform="translate(42.734375 535.080631)scale(0.1 -0.1)">
       <use xlink:href="#DejaVuSans-30"/>
       <use xlink:href="#DejaVuSans-2e" x="63.623047"/>
       <use xlink:href="#DejaVuSans-31" x="95.410156"/>
       <use xlink:href="#DejaVuSans-30" x="159.033203"/>
      </g>
     </g>
    </g>
    <g id="ytick_24">
     <g id="line2d_128">
      <g>
       <use xlink:href="#m8924e7785f" x="72" y="505.322119" style="stroke: #000000; stroke-width: 0.8"/>
      </g>
     </g>
     <g id="text_29">
      <!-- 0.15 -->
      <g transform="translate(42.734375 509.121338)scale(0.1 -0.1)">
       <use xlink:href="#DejaVuSans-30"/>
       <use xlink:href="#DejaVuSans-2e" x="63.623047"/>
       <use xlink:href="#DejaVuSans-31" x="95.410156"/>
       <use xlink:href="#DejaVuSans-35" x="159.033203"/>
      </g>
     </g>
    </g>
   </g>
   <g id="LineCollection_21">
    <path d="M 92.39659 547.28795 
L 92.39659 536.144431 
" clip-path="url(#pdc4c081734)" style="fill: none; stroke: #1f77b4; stroke-width: 1.5"/>
   </g>
   <g id="line2d_129">
    <g clip-path="url(#pdc4c081734)">
     <use xlink:href="#m8ca70c7ec1" x="92.39659" y="547.28795" style="fill: #1f77b4; stroke: #1f77b4"/>
    </g>
   </g>
   <g id="line2d_130">
    <g clip-path="url(#pdc4c081734)">
     <use xlink:href="#m8ca70c7ec1" x="92.39659" y="536.144431" style="fill: #1f77b4; stroke: #1f77b4"/>
    </g>
   </g>
   <g id="LineCollection_22">
    <path d="M 194.379541 561.122943 
L 194.379541 554.145054 
" clip-path="url(#pdc4c081734)" style="fill: none; stroke: #ff7f0e; stroke-width: 1.5"/>
   </g>
   <g id="line2d_131">
    <g clip-path="url(#pdc4c081734)">
     <use xlink:href="#mb1a24c9ee8" x="194.379541" y="561.122943" style="fill: #ff7f0e; stroke: #ff7f0e"/>
    </g>
   </g>
   <g id="line2d_132">
    <g clip-path="url(#pdc4c081734)">
     <use xlink:href="#mb1a24c9ee8" x="194.379541" y="554.145054" style="fill: #ff7f0e; stroke: #ff7f0e"/>
    </g>
   </g>
   <g id="LineCollection_23">
    <path d="M 296.362492 535.140286 
L 296.362492 523.587904 
" clip-path="url(#pdc4c081734)" style="fill: none; stroke: #2ca02c; stroke-width: 1.5"/>
   </g>
   <g id="line2d_133">
    <g clip-path="url(#pdc4c081734)">
     <use xlink:href="#m3b8dd14d8a" x="296.362492" y="535.140286" style="fill: #2ca02c; stroke: #2ca02c"/>
    </g>
   </g>
   <g id="line2d_134">
    <g clip-path="url(#pdc4c081734)">
     <use xlink:href="#m3b8dd14d8a" x="296.362492" y="523.587904" style="fill: #2ca02c; stroke: #2ca02c"/>
    </g>
   </g>
   <g id="LineCollection_24">
    <path d="M 398.345444 556.446934 
L 398.345444 547.030775 
" clip-path="url(#pdc4c081734)" style="fill: none; stroke: #d62728; stroke-width: 1.5"/>
   </g>
   <g id="line2d_135">
    <g clip-path="url(#pdc4c081734)">
     <use xlink:href="#ma1cb28231b" x="398.345444" y="556.446934" style="fill: #d62728; stroke: #d62728"/>
    </g>
   </g>
   <g id="line2d_136">
    <g clip-path="url(#pdc4c081734)">
     <use xlink:href="#ma1cb28231b" x="398.345444" y="547.030775" style="fill: #d62728; stroke: #d62728"/>
    </g>
   </g>
   <g id="line2d_137">
    <g clip-path="url(#pdc4c081734)">
     <use xlink:href="#m02f795422e" x="92.39659" y="541.71619" style="fill: #1f77b4; stroke: #1f77b4"/>
    </g>
   </g>
   <g id="line2d_138">
    <g clip-path="url(#pdc4c081734)">
     <use xlink:href="#m422b918a51" x="194.379541" y="557.633998" style="fill: #ff7f0e; stroke: #ff7f0e"/>
    </g>
   </g>
   <g id="line2d_139">
    <g clip-path="url(#pdc4c081734)">
     <use xlink:href="#m00c9e15667" x="296.362492" y="529.364095" style="fill: #2ca02c; stroke: #2ca02c"/>
    </g>
   </g>
   <g id="line2d_140">
    <g clip-path="url(#pdc4c081734)">
     <use xlink:href="#mda9c306f65" x="398.345444" y="551.738855" style="fill: #d62728; stroke: #d62728"/>
    </g>
   </g>
   <g id="patch_28">
    <path d="M 72 583.2 
L 72 505.322119 
" style="fill: none; stroke: #000000; stroke-width: 0.8; stroke-linejoin: miter; stroke-linecap: square"/>
   </g>
   <g id="patch_29">
    <path d="M 418.742034 583.2 
L 418.742034 505.322119 
" style="fill: none; stroke: #000000; stroke-width: 0.8; stroke-linejoin: miter; stroke-linecap: square"/>
   </g>
   <g id="patch_30">
    <path d="M 72 583.2 
L 418.742034 583.2 
" style="fill: none; stroke: #000000; stroke-width: 0.8; stroke-linejoin: miter; stroke-linecap: square"/>
   </g>
   <g id="patch_31">
    <path d="M 72 505.322119 
L 418.742034 505.322119 
" style="fill: none; stroke: #000000; stroke-width: 0.8; stroke-linejoin: miter; stroke-linecap: square"/>
   </g>
  </g>
  <g id="axes_12">
   <g id="PathCollection_6">
    <g>
     <use xlink:href="#m4e8826d108" x="562.852818" y="520.18367" style="fill: #aa3377; stroke: #000000; stroke-width: 2"/>
    </g>
   </g>
   <g id="line2d_141">
    <path d="M 578.83832 546.73076 
L 578.773341 544.663109 
L 578.578662 542.603619 
L 578.255051 540.560417 
L 577.803784 538.541567 
L 577.226643 536.555035 
L 576.525906 534.608662 
L 575.704338 532.71013 
L 574.765181 530.866931 
L 573.712142 529.086339 
L 572.549376 527.375381 
L 571.281473 525.74081 
L 569.913436 524.189078 
L 568.450665 522.726306 
L 566.898932 521.35827 
L 565.264362 520.090367 
L 563.553404 518.927601 
L 561.772812 517.874562 
L 559.929613 516.935405 
L 558.03108 516.113837 
L 556.084708 515.413099 
L 554.098176 514.835959 
L 552.079326 514.384692 
L 550.036123 514.061081 
L 547.976633 513.866401 
L 545.908983 513.801423 
L 543.841333 513.866401 
L 541.781843 514.061081 
L 539.738641 514.384692 
L 537.71979 514.835959 
L 535.733258 515.413099 
L 533.786886 516.113837 
L 531.888353 516.935405 
L 530.045154 517.874562 
L 528.264562 518.927601 
L 526.553605 520.090367 
L 524.919034 521.35827 
L 523.367301 522.726306 
L 521.90453 524.189078 
L 520.536493 525.74081 
L 519.26859 527.375381 
L 518.105825 529.086339 
L 517.052785 530.866931 
L 516.113628 532.71013 
L 515.29206 534.608662 
L 514.591323 536.555035 
L 514.014182 538.541567 
L 513.562916 540.560417 
L 513.239304 542.603619 
L 513.044625 544.663109 
L 512.979646 546.73076 
L 513.044625 548.79841 
L 513.239304 550.8579 
L 513.562916 552.901102 
L 514.014182 554.919953 
L 514.591323 556.906484 
L 515.29206 558.852857 
L 516.113628 560.751389 
L 517.052785 562.594589 
L 518.105825 564.375181 
L 519.26859 566.086138 
L 520.536493 567.720709 
L 521.90453 569.272442 
L 523.367301 570.735213 
L 524.919034 572.10325 
L 526.553605 573.371153 
L 528.264562 574.533918 
L 530.045154 575.586957 
L 531.888353 576.526114 
L 533.786886 577.347683 
L 535.733258 578.04842 
L 537.71979 578.625561 
L 539.738641 579.076827 
L 541.781843 579.400439 
L 543.841333 579.595118 
L 545.908983 579.660096 
L 547.976633 579.595118 
L 550.036123 579.400439 
L 552.079326 579.076827 
L 554.098176 578.625561 
L 556.084708 578.04842 
L 558.03108 577.347683 
L 559.929613 576.526114 
L 561.772812 575.586957 
L 563.553404 574.533918 
L 565.264362 573.371153 
L 566.898932 572.10325 
L 568.450665 570.735213 
L 569.913436 569.272442 
L 571.281473 567.720709 
L 572.549376 566.086138 
L 573.712142 564.375181 
L 574.765181 562.594589 
L 575.704338 560.751389 
L 576.525906 558.852857 
L 577.226643 556.906484 
L 577.803784 554.919953 
L 578.255051 552.901102 
L 578.578662 550.8579 
L 578.773341 548.79841 
L 578.83832 546.73076 
" style="fill: none; stroke: #000000; stroke-linecap: square"/>
   </g>
   <g id="line2d_142">
    <path d="M 539.012279 514.531743 
L 545.908983 508.862022 
L 552.805687 514.531743 
" style="fill: none; stroke: #000000; stroke-linecap: square"/>
   </g>
   <g id="line2d_143">
    <path d="M 513.177222 543.075603 
L 512.32106 541.626712 
L 511.79419 541.574026 
L 511.010472 541.817703 
L 510.220168 543.075603 
L 510.3453 547.092982 
L 509.884289 552.868788 
L 510.872169 555.378003 
L 512.32106 555.8456 
L 513.704092 554.627215 
" style="fill: none; stroke: #000000; stroke-linecap: square"/>
   </g>
   <g id="line2d_144">
    <path d="M 578.640744 543.075603 
L 579.496907 541.626712 
L 580.023776 541.574026 
L 580.807494 541.817703 
L 581.597798 543.075603 
L 581.472667 547.092982 
L 581.933677 552.868788 
L 580.945797 555.378003 
L 579.496907 555.8456 
L 578.113874 554.627215 
" style="fill: none; stroke: #000000; stroke-linecap: square"/>
   </g>
  </g>
 </g>
 <defs>
  <clipPath id="p6e1c7fe7f8">
   <rect x="72" y="12.96" width="346.742034" height="77.877881"/>
  </clipPath>
  <clipPath id="pb1a54052f6">
   <rect x="72" y="111.432424" width="346.742034" height="77.877881"/>
  </clipPath>
  <clipPath id="pf2e5e5a848">
   <rect x="72" y="209.904848" width="346.742034" height="77.877881"/>
  </clipPath>
  <clipPath id="p49c988947f">
   <rect x="72" y="308.377271" width="346.742034" height="77.877881"/>
  </clipPath>
  <clipPath id="p5f1f346f89">
   <rect x="72" y="406.849695" width="346.742034" height="77.877881"/>
  </clipPath>
  <clipPath id="pdc4c081734">
   <rect x="72" y="505.322119" width="346.742034" height="77.877881"/>
  </clipPath>
 </defs>
</svg>
